<svg xmlns="http://www.w3.org/2000/svg" width="257.179" height="595.479" viewBox="0 0 257.179 595.479"><g transform="translate(-921.607 -1542.521)"><path d="M2488.214-7091.237a1.5,1.5,0,0,1-1.448-1.114c-3.434-12.877-12.04-26.178-21.152-40.259-5.343-8.256-10.867-16.794-15.592-25.64-5.368-10.05-8.929-19.119-10.886-27.724a207.173,207.173,0,0,1-5.21-39.646,172.357,172.357,0,0,1,2.553-35.437,165.952,165.952,0,0,1,9-31.6,184.292,184.292,0,0,1,14.095-28.145c9.621-15.774,22.082-31.334,38.1-47.568,14-14.187,28.44-26.683,42.409-38.767,3.489-3.018,6.784-5.868,10.051-8.727a44.616,44.616,0,0,0,15.791-34.838c.024-11.757-3.662-25.306-10.958-40.27-6.205-12.728-15.053-26.56-26.3-41.111-23.222-30.051-49.189-53.707-56.594-60.241a37.154,37.154,0,0,1-7.138-7.805c-1.447-2.374-1.725-4.4-.828-6.026.738-1.335,2.232-2.264,4.441-2.758a27.557,27.557,0,0,1,6.772-.436,107.831,107.831,0,0,1,15.586,2.018q-1.6-.994-3.182-2.083a108.44,108.44,0,0,1-17.864-15.636,16.168,16.168,0,0,1-4.08-7,11.164,11.164,0,0,1,.563-7.037,21.31,21.31,0,0,1,6.672-8.156,61.852,61.852,0,0,1,11.873-7.17q3.005-1.441,6.437-2.838c-50.307,1.349-97.236,2.709-98.17,2.736h-.044a1.5,1.5,0,0,1-1.5-1.457,1.5,1.5,0,0,1,1.456-1.543c.988-.028,53.446-1.549,106.936-2.97,6.044-2.067,12.813-4.045,20.262-5.917,26.566-6.678,59.906-11.445,89.186-12.752,11.867-.529,21.2-.4,27.735.38,6.307.754,9.832,2.058,11.095,4.1a3.408,3.408,0,0,1,0,3.58c-.791,1.419-2.572,2.838-5.292,4.218a53.771,53.771,0,0,1-9.184,3.458,91.754,91.754,0,0,1-24.288,3.492c-13.9,0-61.778,1.173-108.978,2.427a135.881,135.881,0,0,0-14.357,5.789,58.924,58.924,0,0,0-11.292,6.8,18.435,18.435,0,0,0-5.774,6.954c-1.473,3.6-.512,7.148,2.938,10.861a105.576,105.576,0,0,0,17.238,15.118,74.453,74.453,0,0,0,12.343,6.95c8.56,2.022,15.327,4.007,15.416,4.034a1.5,1.5,0,0,1,1.062,1.646,1.5,1.5,0,0,1-1.471,1.293h-.033c-.513,0-5.819-.083-14.056-3.341q-.933-.369-1.869-.774c-2.659-.626-5.487-1.253-8.335-1.825a112.359,112.359,0,0,0-17.148-2.359,24.64,24.64,0,0,0-6,.366,3.772,3.772,0,0,0-2.468,1.281c-.444.8.288,2.233.763,3.014a34.961,34.961,0,0,0,6.561,7.118c4.612,4.069,14.072,12.68,25.611,24.623a436.326,436.326,0,0,1,31.372,36.033c11.37,14.713,20.326,28.72,26.62,41.631a127.109,127.109,0,0,1,8.228,21.142,75.665,75.665,0,0,1,3.033,20.449,49.691,49.691,0,0,1-3.969,19.872,48.818,48.818,0,0,1-12.846,17.218c-3.273,2.864-6.572,5.718-10.064,8.738-55.7,48.181-125.016,108.143-99.977,218.23,4.247,18.671,15.342,35.817,26.072,52.4,9.244,14.286,17.976,27.78,21.532,41.115a1.5,1.5,0,0,1-1.063,1.836A1.5,1.5,0,0,1,2488.214-7091.237Zm134.348-585.243q-5.847,0-12.98.318c-29.09,1.3-62.207,6.033-88.588,12.665q-5.277,1.327-10.083,2.72c43.657-1.146,85.711-2.152,98.6-2.152a88.62,88.62,0,0,0,23.459-3.375c8.087-2.326,11.888-4.822,12.686-6.253.19-.34.124-.447.065-.542-.182-.295-1.467-1.811-8.9-2.7A123.854,123.854,0,0,0,2622.562-7676.48Z" transform="translate(-1470 9222)" fill="#fff"/><circle cx="5" cy="5" r="5" transform="translate(1013 2128)" fill="#fff"/></g></svg>