<svg xmlns="http://www.w3.org/2000/svg" xmlns:xlink="http://www.w3.org/1999/xlink" width="1097.282" height="998" viewBox="0 0 1097.282 998"><defs><radialGradient id="a" cx="0.5" cy="0.5" r="0.5" gradientUnits="objectBoundingBox"><stop offset="0" stop-color="#77777a"/><stop offset="1" stop-color="#0c0c0f"/></radialGradient></defs><path d="M1093.092,998H0V0H1097.282V998Zm-95.181-4.189h95.181V898.617H997.911Zm-99.373,0h95.181V898.617H898.538Zm-99.373,0h95.182V898.617H799.165Zm-99.372,0h95.181V898.617H699.794Zm-99.373,0h95.185V898.617H600.421Zm-99.373,0h95.185V898.617H501.049Zm-99.372,0h95.184V898.617H401.677Zm-99.37,0h95.182V898.617H302.307Zm-99.371,0h95.181V898.617H202.935Zm-99.373,0h95.181V898.617H103.563Zm-99.373,0H99.373V898.617H4.19Zm993.72-99.383h95.181V799.234H997.911Zm-99.373,0h95.181V799.234H898.538Zm-99.373,0h95.182V799.234H799.165Zm-99.372,0h95.181V799.234H699.794Zm-99.373,0h95.185V799.234H600.421Zm-99.373,0h95.185V799.234H501.049Zm-99.372,0h95.184V799.234H401.677Zm-99.37,0h95.182V799.234H302.307Zm-99.371,0h95.181V799.234H202.935Zm-99.373,0h95.181V799.234H103.563Zm-99.373,0H99.373V799.234H4.19Zm993.72-99.383h95.181V699.852H997.911Zm-99.373,0h95.181V699.852H898.538Zm-99.373,0h95.182V699.852H799.165Zm-99.372,0h95.181V699.852H699.794Zm-99.373,0h95.185V699.852H600.421Zm-99.373,0h95.185V699.852H501.049Zm-99.372,0h95.184V699.852H401.677Zm-99.37,0h95.182V699.852H302.307Zm-99.371,0h95.181V699.852H202.935Zm-99.373,0h95.181V699.852H103.563Zm-99.373,0H99.373V699.852H4.19Zm993.72-99.383h95.181V600.471H997.911Zm-99.373,0h95.181V600.471H898.538Zm-99.373,0h95.182V600.471H799.165Zm-99.372,0h95.181V600.471H699.794Zm-99.373,0h95.185V600.471H600.421Zm-99.373,0h95.185V600.471H501.049Zm-99.372,0h95.184V600.471H401.677Zm-99.37,0h95.182V600.471H302.307Zm-99.371,0h95.181V600.471H202.935Zm-99.373,0h95.181V600.471H103.563Zm-99.373,0H99.373V600.471H4.19Zm993.72-99.383h95.181V501.1H997.911Zm-99.373,0h95.181V501.1H898.538Zm-99.373,0h95.182V501.1H799.165Zm-99.372,0h95.181V501.1H699.794Zm-99.373,0h95.185V501.1H600.421Zm-99.373,0h95.185V501.1H501.049Zm-99.372,0h95.184V501.1H401.677Zm-99.37,0h95.182V501.1H302.307Zm-99.371,0h95.181V501.1H202.935Zm-99.373,0h95.181V501.1H103.563Zm-99.373,0H99.373V501.1H4.19Zm1088.9-99.382V401.72H997.911V496.9Zm-99.373,0V401.72H898.538V496.9Zm-99.371,0V401.72H799.167V496.9Zm-99.373,0V401.72H699.794V496.9Zm-99.371,0V401.72H600.422V496.9Zm-99.373,0V401.72H501.05V496.9Zm-99.372,0V401.72H401.678V496.9Zm-99.373,0V401.72H302.306V496.9Zm-99.372,0V401.72H202.934V496.9Zm-99.373,0V401.72H103.562V496.9Zm-99.371,0V401.72H4.19V496.9ZM997.911,397.53h95.182V302.337H997.911Zm-99.373,0H993.72V302.337H898.538Zm-99.372,0h95.182V302.337H799.167Zm-99.373,0h95.182V302.337H699.794Zm-99.372,0H695.6V302.337H600.422Zm-99.373,0h95.183V302.337H501.05Zm-99.371,0h95.182V302.337H401.678Zm-99.373,0h95.183V302.337H302.306Zm-99.371,0h95.182V302.337H202.934Zm-99.373,0h95.183V302.337H103.562Zm-99.371,0H99.373V302.337H4.19Zm993.72-99.383h95.182V202.954H997.911Zm-99.373,0H993.72V202.954H898.538Zm-99.372,0h95.182V202.954H799.167Zm-99.373,0h95.182V202.954H699.794Zm-99.372,0H695.6V202.954H600.422Zm-99.373,0h95.183V202.954H501.05Zm-99.371,0h95.182V202.954H401.678Zm-99.373,0h95.183V202.954H302.306Zm-99.371,0h95.182V202.954H202.934Zm-99.373,0h95.183V202.954H103.562Zm-99.371,0H99.373V202.954H4.19Zm993.72-99.383h95.182V103.573H997.911Zm-99.373,0H993.72V103.573H898.538Zm-99.372,0h95.182V103.573H799.167Zm-99.373,0h95.182V103.573H699.794Zm-99.372,0H695.6V103.573H600.422Zm-99.373,0h95.183V103.573H501.05Zm-99.371,0h95.182V103.573H401.678Zm-99.373,0h95.183V103.573H302.306Zm-99.371,0h95.182V103.573H202.934Zm-99.373,0h95.183V103.573H103.562Zm-99.371,0H99.373V103.573H4.19Zm993.72-99.382h95.182V4.19H997.911Zm-99.373,0H993.72V4.19H898.538Zm-99.372,0h95.182V4.19H799.167Zm-99.373,0h95.182V4.19H699.794Zm-99.372,0H695.6V4.19H600.422Zm-99.373,0h95.183V4.19H501.05Zm-99.371,0h95.182V4.19H401.678Zm-99.373,0h95.183V4.19H302.306Zm-99.371,0h95.182V4.19H202.934Zm-99.373,0h95.183V4.19H103.562Zm-99.371,0H99.373V4.19H4.19Z" opacity="0.2" fill="url(#a)"/></svg>