<?xml version="1.0" standalone="no"?>
<!DOCTYPE svg PUBLIC "-//W3C//DTD SVG 1.1//EN" "http://www.w3.org/Graphics/SVG/1.1/DTD/svg11.dtd" >
<svg xmlns="http://www.w3.org/2000/svg" xmlns:xlink="http://www.w3.org/1999/xlink" version="1.1">
<metadata>
Created by FontForge 20170731 at Sun Dec  3 20:52:35 2023
 By Aleksey,,,
Copyright (c) 2019 by Roger Gaillard. All rights reserved.
</metadata>
<defs>
<font id="RebondGrotesque-Hairline" horiz-adv-x="0" >
  <font-face 
    font-family="Rebond Grotesque Hairline"
    font-weight="50"
    font-stretch="normal"
    units-per-em="2048"
    panose-1="0 0 1 0 0 0 0 0 0 0"
    ascent="1638"
    descent="-410"
    x-height="1024"
    cap-height="1434"
    bbox="-973 -492 2556 2005.91"
    underline-thickness="102"
    underline-position="-307"
    unicode-range="U+0020-1F169"
  />
<missing-glyph horiz-adv-x="1144" 
d="M215 0h715v1434h-715v-1434zM276 61v1311h592v-1311h-592z" />
    <glyph glyph-name="fi" unicode="fi" horiz-adv-x="1105" 
d="M942 1024v-1024h-61v967h-512v-967h-62v967h-233v57h233v90q0 336 314 336q57 0 105 -17.5t78.5 -47t51 -68t22 -79t-9.5 -81.5h-65q30 102 -29 167t-153 65q-123 0 -187.5 -65t-64.5 -210v-90h573z" />
    <glyph glyph-name="fl" unicode="fl" horiz-adv-x="1105" 
d="M307 1024v133q0 137 61.5 215t170.5 78q111 0 162.5 -77.5t23.5 -194.5h-66q22 98 -12 154.5t-112 56.5q-81 0 -123.5 -61t-42.5 -171v-133h346v-57h-346v-967h-62v967h-233v57h233zM881 0v1434h61v-1434h-61z" />
    <glyph glyph-name="f_f" unicode="ff" horiz-adv-x="1314" 
d="M307 0v967h-233v57h233v133q0 137 61.5 215t170.5 78q111 0 162.5 -77.5t23.5 -194.5h-66q22 98 -12 154.5t-112 56.5q-81 0 -123.5 -61t-42.5 -171v-133h512v133q0 137 61.5 215t169.5 78q111 0 162.5 -77.5t23.5 -194.5h-65q22 98 -12.5 154.5t-112.5 56.5
q-81 0 -123.5 -61t-42.5 -171v-133h346v-57h-346v-967h-61v967h-512v-967h-62z" />
    <glyph glyph-name="f_f_i" unicode="ffi" horiz-adv-x="1648" 
d="M1516 1024v-1024h-62v967h-512v-967h-61v967h-512v-967h-62v967h-233v57h233v133q0 137 61.5 215t170.5 78q111 0 162.5 -77.5t23.5 -194.5h-66q22 98 -12 154.5t-112 56.5q-81 0 -123.5 -61t-42.5 -171v-133h512v90q0 336 313 336q93 0 159 -45.5t88.5 -113t0.5 -134.5
h-66q30 102 -29 167t-153 65q-123 0 -187.5 -65t-64.5 -210v-90h574z" />
    <glyph glyph-name="f_f_l" unicode="ffl" horiz-adv-x="1681" 
d="M307 0v967h-233v57h233v133q0 137 61.5 215t170.5 78q111 0 162.5 -77.5t23.5 -194.5h-66q22 98 -12 154.5t-112 56.5q-81 0 -123.5 -61t-42.5 -171v-133h512v133q0 137 61.5 215t169.5 78q111 0 162.5 -77.5t23.5 -194.5h-65q22 98 -12.5 154.5t-112.5 56.5
q-81 0 -123.5 -61t-42.5 -171v-133h346v-57h-346v-967h-61v967h-512v-967h-62zM1456 0v1434h62v-1434h-62z" />
    <glyph glyph-name="f_t.liga" unicode="ft" horiz-adv-x="1337" 
d="M307 0v967h-233v57h233v133q0 137 61.5 215t170.5 78q111 0 162.5 -77.5t23.5 -194.5h-66q22 98 -12 154.5t-112 56.5q-81 0 -123.5 -61t-42.5 -171v-133h512v264h61v-264h293v-57h-293v-742q0 -29 3 -52.5t12 -48t24.5 -40.5t41.5 -26.5t62 -10.5q71 0 123 37v-64
q-49 -34 -131 -34q-196 0 -196 239v742h-512v-967h-62z" />
    <glyph glyph-name="t_t.liga" unicode="tt" horiz-adv-x="1302" 
d="M907 967v-742q0 -37 5.5 -65.5t20 -55.5t44.5 -42t74 -15q71 0 123 37v-64q-49 -34 -132 -34q-196 0 -196 239v742h-512v-742q0 -29 3 -52.5t12 -48t24.5 -40.5t41.5 -26.5t62 -10.5q71 0 123 37v-64q-49 -34 -131 -34q-197 0 -197 239v742h-180v57h180v264h62v-264h512
v264h61v-264h293v-57h-293z" />
    <glyph glyph-name=".notdef" horiz-adv-x="1144" 
d="M215 0h715v1434h-715v-1434zM276 61v1311h592v-1311h-592z" />
    <glyph glyph-name=".null" 
 />
    <glyph glyph-name="nonmarkingreturn" horiz-adv-x="682" 
 />
    <glyph glyph-name="space" unicode=" " horiz-adv-x="552" 
 />
    <glyph glyph-name="exclam" unicode="!" horiz-adv-x="471" 
d="M215 328l-20 1106h81l-20 -1106h-41zM236 -16q-26 0 -44 17.5t-18 43.5t18 43.5t44 17.5t43.5 -17.5t17.5 -43.5t-17.5 -43.5t-43.5 -17.5z" />
    <glyph glyph-name="quotedbl" unicode="&#x22;" horiz-adv-x="790" 
d="M215 958l-10 476h61l-10 -476h-41zM535 958l-11 476h62l-11 -476h-40z" />
    <glyph glyph-name="numbersign" unicode="#" horiz-adv-x="1157" 
d="M1106 909h-252l-55 -399h250v-55h-258l-62 -455h-61l61 455h-383l-61 -455h-62l62 455h-234v55h242l55 399h-242v56h250l64 469h61l-63 -469h383l63 469h62l-64 -469h244v-56zM737 510l56 399h-383l-56 -399h383z" />
    <glyph glyph-name="dollar" unicode="$" horiz-adv-x="1347" 
d="M1214 387q0 -182 -136 -289.5t-363 -113.5v-209h-62v209q-253 11 -392.5 145t-127.5 356h66q-7 -205 117.5 -318t336.5 -122v653q-64 11 -105 19t-97.5 23t-92.5 31.5t-76 43t-63 58t-38 76t-15 98.5q0 176 135.5 286.5t351.5 116.5v127h62v-127q236 -12 365 -150
t94 -342h-66q29 183 -82 300t-311 128v-632q65 -11 106.5 -19.5t100 -24.5t95 -33t78 -45t65 -61t39 -80t15.5 -104zM231 1053q0 -50 15 -90t46.5 -68.5t66 -49t88 -36t97.5 -25t109 -20.5v625q-183 -6 -302.5 -99.5t-119.5 -236.5zM715 45q197 6 315.5 96.5t118.5 239.5
q0 46 -13 84t-33 65.5t-54.5 51t-67.5 38.5t-82 28.5t-88 21.5t-96 18v-643z" />
    <glyph glyph-name="percent" unicode="%" horiz-adv-x="1847" 
d="M461 -66l880 1524h72l-881 -1524h-71zM461 676q-155 0 -241.5 104.5t-86.5 259.5q0 101 36.5 182.5t112 132t179.5 50.5q106 0 181.5 -51t110.5 -132t35 -182t-35 -182t-110.5 -131.5t-181.5 -50.5zM461 733q126 0 194 85.5t68 221.5t-68 222t-194 86t-195 -86t-69 -222
t69 -221.5t195 -85.5zM1386 -12q-104 0 -179.5 50.5t-111.5 131.5t-36 182t36 182t111.5 132t179.5 51q106 0 181.5 -51t111 -132t35.5 -182q0 -156 -85.5 -260t-242.5 -104zM1386 45q126 0 194.5 85.5t68.5 221.5t-68.5 221.5t-194.5 85.5t-195 -85.5t-69 -221.5t69 -221.5
t195 -85.5z" />
    <glyph glyph-name="ampersand" unicode="&#x26;" horiz-adv-x="1359" 
d="M1288 0h-102q-86 64 -193 154q-83 -83 -195 -126.5t-237 -43.5q-189 0 -313.5 96t-124.5 260q0 59 18.5 112.5t47 94t74 81t88 69.5t100.5 63q-132 220 -132 375q0 141 99.5 228t236.5 87q129 0 210 -76.5t81 -193.5q0 -41 -11.5 -79t-29.5 -69t-48 -62t-59 -55t-71 -52
t-75.5 -47.5t-81.5 -47.5q-27 -15 -40 -23q165 -256 461 -514q86 117 100 283t-47 352h60q48 -141 52 -268.5t-28 -224.5t-96 -176q119 -101 256 -197zM385 1135q0 -147 119 -344q11 6 32 19q164 94 226 147q119 102 119 221q0 92 -61.5 151.5t-168.5 59.5
q-118 0 -192 -68.5t-74 -185.5zM573 45q242 0 379 143q-305 269 -471 527q-67 -41 -114 -76.5t-90.5 -81.5t-66 -100.5t-22.5 -116.5q0 -132 101.5 -213.5t283.5 -81.5z" />
    <glyph glyph-name="quotesingle" unicode="'" horiz-adv-x="471" 
d="M215 958l-10 476h61l-10 -476h-41z" />
    <glyph glyph-name="parenleft" unicode="(" horiz-adv-x="673" 
d="M446 -270q-131 192 -206.5 419t-75.5 445q0 228 75 456t207 425h62q-125 -199 -198.5 -427.5t-73.5 -453.5q0 -216 73.5 -442.5t198.5 -421.5h-62z" />
    <glyph glyph-name="parenright" unicode=")" horiz-adv-x="673" 
d="M227 -270h-61q125 195 198.5 421.5t73.5 442.5q0 225 -73.5 453.5t-198.5 427.5h61q132 -197 207.5 -425t75.5 -456q0 -218 -76 -445t-207 -419z" />
    <glyph glyph-name="asterisk" unicode="*" horiz-adv-x="884" 
d="M500 1137q22 -85 66.5 -138t127.5 -106l-43 -45q-85 53 -135.5 118.5t-75.5 166.5q-25 -101 -75.5 -166.5t-135.5 -118.5l-43 45q83 54 128 106.5t67 135.5q-160 14 -279 71l21 51q48 -22 124 -40.5t146 -24.5q17 96 17 258h61q0 -167 16 -258q72 5 149.5 23t123.5 42
l22 -51q-44 -24 -125.5 -43.5t-156.5 -25.5z" />
    <glyph glyph-name="plus" unicode="+" horiz-adv-x="1323" 
d="M631 123v485h-467v58h467v483h61v-483h467v-58h-467v-485h-61z" />
    <glyph glyph-name="comma" unicode="," horiz-adv-x="452" 
d="M205 127q52 0 83 -48.5t31 -123.5q0 -86 -43.5 -149t-125.5 -93v56q116 42 116 184q0 58 -18 88q-16 -37 -53 -37q-27 0 -44.5 16.5t-17.5 42.5q0 28 20.5 46t51.5 18z" />
    <glyph glyph-name="hyphen" unicode="-" horiz-adv-x="581" 
d="M61 510v57h459v-57h-459z" />
    <glyph glyph-name="period" unicode="." horiz-adv-x="389" 
d="M195 -16q-26 0 -44 17.5t-18 43.5t18 43.5t44 17.5t43.5 -17.5t17.5 -43.5t-17.5 -43.5t-43.5 -17.5z" />
    <glyph glyph-name="slash" unicode="/" horiz-adv-x="747" 
d="M102 -37l480 1532h63l-479 -1532h-64z" />
    <glyph glyph-name="zero" unicode="0" horiz-adv-x="1372" 
d="M686 -16q-262 0 -407.5 199t-145.5 534t145.5 534t407.5 199t407.5 -199t145.5 -534t-145.5 -534t-407.5 -199zM686 45q153 0 264 84.5t167.5 235.5t56.5 352t-56.5 352t-167.5 235.5t-264 84.5t-263.5 -84.5t-167 -235.5t-56.5 -352t56.5 -352t167 -235.5t263.5 -84.5z
" />
    <glyph glyph-name="one" unicode="1" horiz-adv-x="811" 
d="M532 1434h64v-1434h-61v1268q-65 -164 -193 -283.5t-301 -183.5v67q179 61 310 214t181 352z" />
    <glyph glyph-name="two" unicode="2" horiz-adv-x="1259" 
d="M248 57h909v-57h-1024v61q210 97 372 196.5t287.5 213t192 241t66.5 263.5q0 188 -116 301t-294 113q-189 0 -303.5 -122t-114.5 -315q0 -197 146 -387h-76q-61 85 -98 175.5t-37 211.5q0 223 132.5 360.5t350.5 137.5q210 0 342.5 -129.5t132.5 -345.5
q0 -111 -40.5 -216t-113.5 -197.5t-182.5 -181.5t-239.5 -167t-292 -156z" />
    <glyph glyph-name="three" unicode="3" horiz-adv-x="1302" 
d="M803 766q172 -34 269 -133.5t97 -243.5q0 -122 -68.5 -215t-185.5 -141.5t-264 -48.5q-259 0 -402.5 144.5t-109.5 377.5h66q-32 -209 92.5 -335t353.5 -126q199 0 323 95.5t124 250.5q0 158 -124 252t-335 94h-141v58h141q182 0 289.5 84.5t107.5 218.5
q0 133 -109.5 212t-283.5 79q-212 0 -319 -112.5t-64 -279.5h-65q-33 127 15.5 231t164 163t272.5 59q202 0 329.5 -96t127.5 -254q0 -122 -79.5 -211t-221.5 -123z" />
    <glyph glyph-name="four" unicode="4" horiz-adv-x="1202" 
d="M1161 399v-57h-282v-342h-62v342h-776v57q264 209 467.5 479t308.5 556h62v-1035h282zM817 1282q-105 -245 -282.5 -473t-401.5 -410h684v883z" />
    <glyph glyph-name="five" unicode="5" horiz-adv-x="1257" 
d="M629 1004q99 0 181.5 -28t140 -76.5t97 -114t58 -139t18.5 -152.5q0 -82 -20 -157.5t-61 -139.5t-100 -111.5t-141 -74.5t-179 -27q-162 0 -282 71t-172.5 190t-29.5 261h66q-23 -127 25 -233.5t152 -167t239 -60.5q191 0 314.5 124t123.5 320q0 88 -26.5 167.5
t-78 144.5t-137 103t-194.5 38q-124 0 -231 -48t-183 -130l-53 33q43 122 68.5 290.5t25.5 346.5h799v-58h-740q-7 -306 -67 -510q73 67 173.5 102.5t213.5 35.5z" />
    <glyph glyph-name="six" unicode="6" horiz-adv-x="1290" 
d="M682 899q215 0 345 -126t130 -327q0 -202 -132.5 -332t-342.5 -130q-257 0 -403 202t-146 537q0 219 64 382t189.5 254t299.5 91q144 0 250.5 -59.5t151 -163t14.5 -226.5h-66q41 163 -61.5 275.5t-288.5 112.5q-230 0 -358.5 -182t-128.5 -484q0 -123 22 -242
q12 191 135.5 304.5t325.5 113.5zM682 45q179 0 294.5 111.5t115.5 287.5q0 174 -113 284t-297 110q-183 0 -296.5 -109.5t-113.5 -279.5q0 -109 48.5 -200.5t143.5 -147.5t218 -56z" />
    <glyph glyph-name="seven" unicode="7" horiz-adv-x="1093" 
d="M61 1434h951v-58q-100 -106 -180.5 -225t-158 -283.5t-133.5 -384.5t-85 -483h-72q52 451 201 812.5t344 563.5h-867v58z" />
    <glyph glyph-name="eight" unicode="8" horiz-adv-x="1236" 
d="M809 784q138 -44 216.5 -148t78.5 -239q0 -182 -134.5 -297.5t-351.5 -115.5q-223 0 -354 120t-131 293q0 132 80 237.5t219 149.5q-114 37 -178 119.5t-64 194.5q0 156 118.5 254t312.5 98q192 0 310 -98t118 -254q0 -113 -62.5 -195t-177.5 -119zM256 1102
q0 -128 100.5 -207.5t266.5 -79.5q164 0 262 79.5t98 205.5q0 128 -99 208.5t-263 80.5q-163 0 -264 -79.5t-101 -207.5zM621 45q187 0 302 100.5t115 251.5q0 152 -114.5 254.5t-302.5 102.5t-305 -104t-117 -253q0 -150 117.5 -251t304.5 -101z" />
    <glyph glyph-name="nine" unicode="9" horiz-adv-x="1290" 
d="M608 1450q257 0 403 -202t146 -537q0 -219 -64 -382t-189.5 -254t-299.5 -91q-144 0 -250.5 59.5t-151 162.5t-14.5 226h66q-41 -163 61.5 -275t288.5 -112q154 0 265 84.5t167 234t56 347.5q0 117 -23 239q-9 -189 -133.5 -302t-327.5 -113q-215 0 -345 125.5
t-130 326.5q0 202 132.5 332.5t342.5 130.5zM608 596q183 0 296.5 109.5t113.5 279.5q0 109 -48.5 200.5t-143.5 147.5t-218 56q-179 0 -294 -112t-115 -288q0 -174 112.5 -283.5t296.5 -109.5z" />
    <glyph glyph-name="colon" unicode=":" horiz-adv-x="389" 
d="M195 979q26 0 43.5 -17.5t17.5 -43.5t-17.5 -44t-43.5 -18t-44 18t-18 44t18 43.5t44 17.5zM195 -16q-26 0 -44 17.5t-18 43.5t18 43.5t44 17.5t43.5 -17.5t17.5 -43.5t-17.5 -43.5t-43.5 -17.5z" />
    <glyph glyph-name="semicolon" unicode=";" horiz-adv-x="452" 
d="M195 856q-26 0 -44 18t-18 44t18 43.5t44 17.5t43.5 -17.5t17.5 -43.5t-17.5 -44t-43.5 -18zM205 127q52 0 83 -48.5t31 -123.5q0 -86 -43.5 -149t-125.5 -93v56q116 42 116 184q0 58 -18 88q-16 -37 -53 -37q-27 0 -44.5 16.5t-17.5 42.5q0 28 20.5 46t51.5 18z" />
    <glyph glyph-name="less" unicode="&#x3c;" horiz-adv-x="1323" 
d="M1200 987v-72l-1003 -403l1003 -440v-72l-1083 483v62z" />
    <glyph glyph-name="equal" unicode="=" horiz-adv-x="1323" 
d="M164 827v58h995v-58h-995zM164 391v58h995v-58h-995z" />
    <glyph glyph-name="greater" unicode="&#x3e;" horiz-adv-x="1323" 
d="M123 987l1083 -442v-62l-1083 -483v72l1003 440l-1003 403v72z" />
    <glyph glyph-name="question" unicode="?" horiz-adv-x="999" 
d="M494 287q-137 0 -220.5 63.5t-83.5 165.5q0 55 26.5 102t70.5 80t99.5 65.5t114 58t114 58.5t99.5 66.5t70.5 81.5t26.5 105q0 105 -82.5 180.5t-218.5 75.5q-139 0 -230.5 -81t-91.5 -206q0 -95 60 -205h-66q-59 98 -59 205q0 149 109 248.5t278 99.5q162 0 264.5 -91.5
t102.5 -223.5q0 -63 -26.5 -116.5t-70.5 -91.5t-99.5 -73.5t-114 -62.5t-114 -58t-99.5 -60.5t-70.5 -70t-26.5 -86.5q0 -74 64 -121t178 -47q140 0 288 98v-67q-129 -92 -292 -92zM500 -16q-26 0 -44 17.5t-18 43.5t18 43.5t44 17.5t43.5 -17.5t17.5 -43.5t-17.5 -43.5
t-43.5 -17.5z" />
    <glyph glyph-name="at" unicode="@" horiz-adv-x="1830" 
d="M930 1450q168 0 314 -58.5t250 -160t164 -246t60 -311.5q0 -137 -41 -246h-63q39 115 39 244q0 146 -52.5 277t-145.5 228.5t-229.5 154.5t-295.5 57q-160 0 -297.5 -58t-232 -158.5t-148 -237t-53.5 -290.5q0 -145 48 -274t135 -226.5t219.5 -154t291.5 -56.5
q235 0 382.5 114t147.5 294q0 116 -67 205q-41 -187 -172.5 -303.5t-319.5 -116.5q-162 0 -267 86.5t-105 218.5q0 146 130 241t336 95q205 0 353 -96v37q0 203 -110 316.5t-294 113.5q-168 0 -254 -90.5t-49 -227.5h-61q-27 107 13 194.5t133 136t220 48.5
q214 0 338.5 -138t124.5 -364q0 -23 -4 -73q121 -115 121 -285q0 -204 -168.5 -335.5t-429.5 -131.5q-170 0 -313.5 61t-240.5 165.5t-150.5 246t-53.5 301.5q0 165 58 312t161 255.5t253 172t325 63.5zM864 188q169 0 289 115.5t150 298.5q-127 105 -334 105
q-183 0 -297.5 -78.5t-114.5 -194.5q0 -101 84.5 -173.5t222.5 -72.5z" />
    <glyph glyph-name="A" unicode="A" horiz-adv-x="1318" 
d="M1198 0l-172 436h-733l-172 -436h-70l574 1434h69l574 -1434h-70zM315 494h689l-345 872z" />
    <glyph glyph-name="B" unicode="B" horiz-adv-x="1447" 
d="M999 778q156 -34 239 -132t83 -251q0 -190 -130 -292.5t-372 -102.5h-604v1434h604q191 0 294.5 -89t103.5 -253q0 -120 -56 -200t-162 -114zM1151 1092q0 138 -86 211t-246 73h-543v-573h551q155 0 239.5 76t84.5 213zM819 57q210 0 323 86.5t113 251.5t-112 257.5
t-316 92.5h-551v-688h543z" />
    <glyph glyph-name="C" unicode="C" horiz-adv-x="1536" 
d="M819 -16q-199 0 -355.5 93.5t-243.5 262t-87 383.5q0 160 50.5 296t139.5 230.5t213.5 147.5t268.5 53q138 0 253 -46t189 -126t107.5 -191t15.5 -237h-65q30 240 -111.5 389.5t-388.5 149.5q-175 0 -312.5 -83t-215.5 -235.5t-78 -347.5q0 -299 173.5 -488.5
t448.5 -189.5q118 0 214.5 38t162 105t107 150t61.5 182h68q-20 -112 -67.5 -207t-122 -169.5t-183.5 -117t-242 -42.5z" />
    <glyph glyph-name="D" unicode="D" horiz-adv-x="1441" 
d="M655 1434q198 0 351 -88t238 -251.5t85 -377.5q0 -321 -183.5 -519t-486.5 -198h-444v1434h440zM659 57q272 0 438.5 182t166.5 480q0 296 -166 476.5t-436 180.5h-386v-1319h383z" />
    <glyph glyph-name="E" unicode="E" horiz-adv-x="1280" 
d="M276 57h871v-57h-932v1434h911v-58h-850v-588h742v-57h-742v-674z" />
    <glyph glyph-name="F" unicode="F" horiz-adv-x="1218" 
d="M1126 1376h-850v-581h742v-58h-742v-737h-61v1434h911v-58z" />
    <glyph glyph-name="G" unicode="G" horiz-adv-x="1529" 
d="M1479 709v-58h-418q132 -26 202 -104t70 -201q0 -166 -129 -264t-358 -98q-172 0 -309.5 57t-224.5 157t-133 232t-46 287q0 152 45 284.5t129.5 233t215.5 158t292 57.5q256 0 399.5 -136t108.5 -356h-68q22 137 -30 234t-157.5 143.5t-252.5 46.5q-150 0 -269 -51.5
t-194 -142.5t-114 -211t-39 -260q0 -200 76 -351t223 -236t348 -85q203 0 312.5 83.5t109.5 217.5q0 141 -122 223t-331 82v58h664z" />
    <glyph glyph-name="H" unicode="H" horiz-adv-x="1536" 
d="M1260 1434h61v-1434h-61v737h-984v-737h-61v1434h61v-639h984v639z" />
    <glyph glyph-name="I" unicode="I" horiz-adv-x="491" 
d="M215 0v1434h61v-1434h-61z" />
    <glyph glyph-name="J" unicode="J" horiz-adv-x="897" 
d="M377 -16q-78 0 -140.5 23.5t-102.5 64.5t-63.5 96.5t-23.5 120.5t16 137h62q-44 -160 22.5 -270.5t229.5 -110.5q67 0 119 22.5t84.5 59t54 87t29.5 102.5t8 110v1008h61v-1008q0 -62 -8.5 -119t-33 -118t-62.5 -104.5t-103 -72t-149 -28.5z" />
    <glyph glyph-name="K" unicode="K" horiz-adv-x="1320" 
d="M1192 0l-610 805l-306 -283v-522h-61v1434h61v-832l893 832h88l-632 -588l645 -846h-78z" />
    <glyph glyph-name="L" unicode="L" horiz-adv-x="1239" 
d="M276 57h871v-57h-932v1434h61v-1377z" />
    <glyph glyph-name="M" unicode="M" horiz-adv-x="1777" 
d="M1460 1434h103v-1434h-62v1368l-579 -1368h-72l-574 1368v-1368h-61v1434h102l570 -1356z" />
    <glyph glyph-name="N" unicode="N" horiz-adv-x="1503" 
d="M1227 1434h61v-1434h-102l-910 1386v-1386h-61v1434h102l910 -1389v1389z" />
    <glyph glyph-name="O" unicode="O" horiz-adv-x="1624" 
d="M813 -16q-196 0 -351.5 93.5t-242 261.5t-86.5 380q0 211 86.5 378t242 260t351.5 93t351 -93t241 -260t86 -378q0 -212 -86 -380t-241 -261.5t-351 -93.5zM813 45q176 0 315.5 86t218 240t78.5 348q0 193 -78.5 346t-218 238.5t-315.5 85.5q-177 0 -317 -85.5
t-218.5 -238.5t-78.5 -346q0 -194 78.5 -348t218.5 -240t317 -86z" />
    <glyph glyph-name="P" unicode="P" horiz-adv-x="1318" 
d="M784 1434q443 0 443 -387q0 -394 -443 -394h-508v-653h-61v1434h569zM784 711q375 0 375 336q0 329 -375 329h-508v-665h508z" />
    <glyph glyph-name="Q" unicode="Q" horiz-adv-x="1624" 
d="M1491 739q0 -150 -51 -281t-135 -227t-200 -172t-239 -123.5t-258 -74.5q444 -28 822 -101v-57q-246 49 -565.5 79t-594.5 30v61q186 0 381 46t359 138q-95 -28 -197 -28q-138 0 -262.5 51.5t-217 143t-146.5 225.5t-54 290q0 151 51 283t140 226t215.5 148t273.5 54
t273.5 -54t215 -148t139 -226t50.5 -283zM199 739q0 -143 49 -265t132 -205.5t195.5 -131t237.5 -47.5t236.5 47.5t194.5 131t132 205.5t49 265q0 137 -46 257.5t-126 207t-194.5 136t-245.5 49.5q-132 0 -246.5 -49.5t-195 -136t-126.5 -207t-46 -257.5z" />
    <glyph glyph-name="R" unicode="R" horiz-adv-x="1415" 
d="M967 725q65 -21 116 -61t84 -97.5t55.5 -119t34.5 -142t17.5 -149t7.5 -156.5h-61q-3 83 -8.5 146.5t-17 139t-29 131t-46 110.5t-66.5 89.5t-92.5 56t-121.5 21.5h-564v-694h-61v1434h627q197 0 306 -94t109 -257q0 -135 -75 -229t-215 -129zM276 752h480
q209 0 322.5 83t113.5 240q0 142 -91.5 221.5t-260.5 79.5h-564v-624z" />
    <glyph glyph-name="S" unicode="S" horiz-adv-x="1347" 
d="M690 -16q-268 0 -418.5 135.5t-138.5 365.5h66q-7 -214 128 -327t363 -113q207 0 333 91t126 245q0 76 -33.5 131t-90.5 86t-131 52t-155.5 34.5t-162.5 27.5t-155 37.5t-131 58.5t-90.5 95.5t-33.5 143.5q0 180 143 291.5t367 111.5q125 0 227 -37.5t167.5 -102.5
t93.5 -156t10 -196h-66q30 192 -92.5 311.5t-339.5 119.5q-192 0 -318.5 -94t-126.5 -242q0 -73 33.5 -124.5t90.5 -81t131 -49t155 -33t162.5 -28t155.5 -39t131 -61.5t90.5 -100.5t33.5 -149.5q0 -187 -143.5 -295t-380.5 -108z" />
    <glyph glyph-name="T" unicode="T" horiz-adv-x="1280" 
d="M1198 1434v-58h-524v-1376h-62v1376h-530v58h1116z" />
    <glyph glyph-name="U" unicode="U" horiz-adv-x="1466" 
d="M733 -14q-269 0 -398.5 160t-129.5 491v797h61v-797q0 -302 114.5 -448t352.5 -146t352.5 146t114.5 448v797h62v-797q0 -331 -130 -491t-399 -160z" />
    <glyph glyph-name="V" unicode="V" horiz-adv-x="1300" 
d="M1178 1434h71l-563 -1434h-72l-563 1434h72l528 -1358z" />
    <glyph glyph-name="W" unicode="W" horiz-adv-x="1968" 
d="M1853 1434h64l-451 -1434h-73l-410 1341l-408 -1341h-73l-451 1434h64l422 -1344l413 1344h68l412 -1346z" />
    <glyph glyph-name="X" unicode="X" horiz-adv-x="1335" 
d="M1284 0h-82l-534 711l-535 -711h-82l576 764l-504 670h82l463 -615l462 615h82l-503 -670z" />
    <glyph glyph-name="Y" unicode="Y" horiz-adv-x="1216" 
d="M1165 1434l-522 -813v-621h-61v621l-531 813h72l489 -758l482 758h71z" />
    <glyph glyph-name="Z" unicode="Z" horiz-adv-x="1290" 
d="M188 57h990v-57h-1065v61l970 1315h-950v58h1024v-62z" />
    <glyph glyph-name="bracketleft" unicode="[" horiz-adv-x="677" 
d="M205 -270v1745h381v-58h-320v-1630h320v-57h-381z" />
    <glyph glyph-name="backslash" unicode="\" horiz-adv-x="747" 
d="M582 -37l-480 1532h64l479 -1532h-63z" />
    <glyph glyph-name="bracketright" unicode="]" horiz-adv-x="677" 
d="M494 -270h-381v57h319v1630h-319v58h381v-1745z" />
    <glyph glyph-name="asciicircum" unicode="^" horiz-adv-x="755" 
d="M643 891h-68l-196 463l-199 -463h-67l233 543h64z" />
    <glyph glyph-name="underscore" unicode="_" horiz-adv-x="1126" 
d="M51 -410v58h1024v-58h-1024z" />
    <glyph glyph-name="grave" unicode="`" horiz-adv-x="350" 
d="M215 1159l-133 275h70l116 -275h-53z" />
    <glyph glyph-name="a" unicode="a" horiz-adv-x="1081" 
d="M547 1040q391 0 391 -475v-565h-61v252q-55 -124 -164.5 -196t-263.5 -72q-161 0 -259 77t-98 213q0 155 124.5 247.5t326.5 92.5q172 0 334 -61v12q0 69 -8 125.5t-30.5 111.5t-59 93t-96.5 61t-140 23q-162 0 -250 -86t-55 -234h-66q-38 166 70 273.5t305 107.5z
M453 45q130 0 227.5 60t146.5 159.5t50 222.5q-151 66 -330 66q-175 0 -282 -75t-107 -202q0 -108 81 -169.5t214 -61.5z" />
    <glyph glyph-name="b" unicode="b" horiz-adv-x="1183" 
d="M627 1040q209 0 337 -145t128 -383t-128 -383t-337 -145q-143 0 -249.5 70t-162.5 196v-250h-61v1434h61v-660q56 126 162.5 196t249.5 70zM618 45q184 0 296 128t112 339t-111 339t-294 128q-186 0 -299 -128t-113 -339q0 -212 113 -339.5t296 -127.5z" />
    <glyph glyph-name="c" unicode="c" horiz-adv-x="1155" 
d="M580 -16q-220 0 -354 146.5t-134 385.5q0 236 134 380t354 144q213 0 335 -131t97 -331h-66q20 184 -83 292.5t-283 108.5q-191 0 -306.5 -127t-115.5 -336q0 -212 116 -341.5t306 -129.5q154 0 263 88.5t142 245.5h68q-35 -179 -160 -287t-313 -108z" />
    <glyph glyph-name="d" unicode="d" horiz-adv-x="1183" 
d="M969 1434h61v-1434h-61v256q-55 -129 -161 -200.5t-249 -71.5q-207 0 -337 144t-130 384q0 237 129.5 382.5t339.5 145.5q143 0 249 -71.5t159 -200.5v666zM563 45q186 0 299 128t113 339t-113 339t-299 128q-183 0 -294 -128t-111 -339t111 -339t294 -128z" />
    <glyph glyph-name="e" unicode="e" horiz-adv-x="1122" 
d="M958 297h72q-57 -146 -179.5 -229.5t-281.5 -83.5q-211 0 -344 145.5t-133 384.5q0 238 134 382t349 144q83 0 155.5 -23t126 -63t92 -95.5t56 -120t15 -138t-28.5 -147.5h-831q19 -186 130.5 -297t280.5 -111q129 0 232.5 67t154.5 185zM578 979q-188 0 -304 -127.5
t-116 -337.5v-4h786q28 123 -8 230.5t-131 173t-227 65.5z" />
    <glyph glyph-name="f" unicode="f" horiz-adv-x="741" 
d="M725 1178h-66q22 98 -12 154.5t-112 56.5q-81 0 -123.5 -61t-42.5 -171v-133h346v-57h-346v-967h-62v967h-233v57h233v133q0 137 61.5 215t170.5 78q111 0 162.5 -77.5t23.5 -194.5z" />
    <glyph glyph-name="g" unicode="g" horiz-adv-x="1128" 
d="M578 193q117 0 215 -34t160.5 -105t62.5 -167q0 -138 -122 -225.5t-314 -87.5q-201 0 -330 100.5t-148 268.5h66q11 -139 123 -223.5t289 -84.5q164 0 267 70.5t103 181.5q0 110 -105 177t-274 67q-160 0 -317 -53v72q343 60 534 229q-111 -78 -264 -78
q-178 0 -294.5 102t-116.5 267t118.5 267.5t311.5 102.5q225 0 344 -135q39 8 56.5 50.5t11.5 96.5t-31 97h61q39 -88 21.5 -176t-80.5 -119q47 -80 47 -184q0 -152 -105 -276.5t-293 -200.5h3zM178 670q0 -138 100.5 -223t264.5 -85t264 85t100 223q0 137 -99.5 223
t-264.5 86q-164 0 -264.5 -85.5t-100.5 -223.5z" />
    <glyph glyph-name="h" unicode="h" horiz-adv-x="1110" 
d="M627 1040q340 0 340 -424v-616h-62v616q0 363 -280 363q-183 0 -296.5 -138.5t-113.5 -365.5v-475h-61v1434h61v-695q47 141 156.5 221t255.5 80z" />
    <glyph glyph-name="i" unicode="i" horiz-adv-x="389" 
d="M195 1221q-26 0 -44 17.5t-18 43.5t18 43.5t44 17.5t43.5 -17.5t17.5 -43.5t-17.5 -43.5t-43.5 -17.5zM164 0v1024h61v-1024h-61z" />
    <glyph glyph-name="j" unicode="j" horiz-adv-x="458" 
d="M266 1221q-26 0 -43.5 17.5t-17.5 43.5t17.5 43.5t43.5 17.5t44 -17.5t18 -43.5t-18 -43.5t-44 -17.5zM127 -426q-67 0 -127 35v65q64 -39 125 -39q31 0 53 12t32.5 27t16 39.5t6 37t0.5 32.5v1241h62v-1223q0 -227 -168 -227z" />
    <glyph glyph-name="k" unicode="k" horiz-adv-x="1064" 
d="M580 377q166 -38 279.5 -134t150.5 -243h-66q-43 169 -204 260.5t-390 91.5v58q159 0 277.5 36.5t186 111t67.5 179.5q0 108 -67 175t-189 67q-177 0 -293.5 -140t-116.5 -364v-475h-61v1434h61v-699q49 144 159.5 224.5t254.5 80.5q147 0 232 -83t85 -218
q0 -143 -96.5 -235t-269.5 -127z" />
    <glyph glyph-name="l" unicode="l" horiz-adv-x="389" 
d="M164 0v1434h61v-1434h-61z" />
    <glyph glyph-name="m" unicode="m" horiz-adv-x="1802" 
d="M1294 1040q169 0 267 -116t98 -308v-616h-62v616q0 164 -82 263.5t-219 99.5q-162 0 -261 -135t-99 -350v-494h-62v616q0 168 -80 265.5t-214 97.5q-159 0 -262 -133t-103 -350v-496h-61v1024h61v-254q37 107 134.5 188.5t236.5 81.5q132 0 222 -75t118 -205
q44 131 141.5 205.5t226.5 74.5z" />
    <glyph glyph-name="n" unicode="n" horiz-adv-x="1110" 
d="M627 1040q55 0 101 -12t79 -30.5t59 -47.5t42.5 -56t28.5 -64t17.5 -63t8.5 -61t3.5 -51t0.5 -39v-616h-62v608q0 371 -284 371q-180 0 -293 -137t-113 -367v-475h-61v1024h61v-272q50 135 159 211.5t253 76.5z" />
    <glyph glyph-name="o" unicode="o" horiz-adv-x="1157" 
d="M580 -16q-220 0 -354 145t-134 383t134 383t354 145q218 0 351.5 -145t133.5 -383t-133.5 -383t-351.5 -145zM580 45q189 0 304 128t115 339t-115 339t-304 128q-190 0 -306 -128t-116 -339t116 -339t306 -128z" />
    <glyph glyph-name="p" unicode="p" horiz-adv-x="1183" 
d="M621 1040q212 0 341.5 -145t129.5 -383t-129.5 -383t-341.5 -145q-140 0 -246 69.5t-160 194.5v-658h-61v1434h61v-248q54 125 160 194.5t246 69.5zM618 45q184 0 296 128t112 339t-111 339t-294 128q-186 0 -299 -128t-113 -339q0 -212 113 -339.5t296 -127.5z" />
    <glyph glyph-name="q" unicode="q" horiz-adv-x="1183" 
d="M969 1024h61v-1434h-61v666q-53 -129 -159 -200.5t-247 -71.5q-212 0 -341.5 145t-129.5 383t129.5 383t341.5 145q141 0 247 -71.5t159 -200.5v256zM563 45q186 0 299 128t113 339t-113 339t-299 128q-183 0 -294 -128t-111 -339t111 -339t294 -128z" />
    <glyph glyph-name="r" unicode="r" horiz-adv-x="823" 
d="M532 1040q105 0 172.5 -68t67.5 -175q0 -77 -35 -152h-65q35 75 35 152q0 80 -49 131t-128 51q-132 0 -223.5 -134.5t-91.5 -346.5v-498h-61v1024h61v-238q47 119 131 186.5t186 67.5z" />
    <glyph glyph-name="s" unicode="s" horiz-adv-x="1052" 
d="M543 -16q-214 0 -328 112.5t-100 302.5h65q-14 -163 84 -260.5t279 -97.5q151 0 241 65.5t90 167.5q0 64 -40 106t-104.5 62.5t-142 34.5t-155.5 31t-142.5 42.5t-104.5 78t-40 129.5q0 131 106 206.5t269 75.5q200 0 306 -106.5t77 -271.5h-65q28 140 -62.5 230.5
t-257.5 90.5q-136 0 -221.5 -63t-85.5 -162q0 -57 31.5 -96.5t82.5 -59.5t116.5 -37t134 -26.5t134 -29t116.5 -45t82.5 -74.5t31.5 -116q0 -133 -110 -211.5t-287 -78.5z" />
    <glyph glyph-name="t" unicode="t" horiz-adv-x="729" 
d="M627 967h-293v-742q0 -29 3 -52.5t12 -48t24.5 -40.5t41.5 -26.5t62 -10.5q71 0 123 37v-64q-49 -34 -131 -34q-197 0 -197 239v742h-180v57h180v264h62v-264h293v-57z" />
    <glyph glyph-name="u" unicode="u" horiz-adv-x="1091" 
d="M877 1024h61v-1024h-61v264q-60 -136 -167.5 -208t-238.5 -72q-75 0 -133.5 24.5t-94.5 64.5t-59 96.5t-32 114.5t-9 124v616h62v-616q0 -50 6 -95.5t23.5 -96.5t46 -87t78 -60t114.5 -24q73 0 142 28.5t129 84.5t96.5 152t36.5 218v496z" />
    <glyph glyph-name="v" unicode="v" horiz-adv-x="948" 
d="M860 1024h68l-416 -1024h-82l-410 1024h68l383 -963z" />
    <glyph glyph-name="w" unicode="w" horiz-adv-x="1509" 
d="M1411 1024h68l-330 -1024h-86l-307 944l-295 -944h-86l-344 1024h67l320 -973l303 973h67l318 -973z" />
    <glyph glyph-name="x" unicode="x" horiz-adv-x="960" 
d="M899 0h-82l-336 473l-338 -473h-82l379 528l-354 496h82l313 -440l312 440h81l-354 -496z" />
    <glyph glyph-name="y" unicode="y" horiz-adv-x="952" 
d="M864 1024h68l-408 -1174q-97 -276 -352 -276q-88 0 -152 33v61q65 -33 146 -33q95 0 174.5 54t116.5 166l22 69l-444 1100h71l408 -1008z" />
    <glyph glyph-name="z" unicode="z" horiz-adv-x="1003" 
d="M180 57h742v-57h-820v59l721 908h-680v57h758v-59z" />
    <glyph glyph-name="braceleft" unicode="{" horiz-adv-x="684" 
d="M434 -293q-73 0 -111 38.5t-38 148.5q0 56 15 212.5t15 215.5q0 243 -172 243v62q172 0 172 243q0 60 -15 221t-15 222q0 106 34.5 145t114.5 39q61 0 107 -20v-62q-54 21 -103 21q-52 0 -72 -23.5t-20 -99.5q0 -53 15.5 -201.5t15.5 -222.5q0 -79 -12 -134.5t-36 -86.5
t-47 -46.5t-57 -27.5q34 -12 57 -27.5t47 -46.5t36 -86t12 -133q0 -72 -15.5 -212.5t-15.5 -194.5q0 -74 19.5 -99.5t70.5 -25.5q63 0 105 20v-61q-44 -21 -107 -21z" />
    <glyph glyph-name="bar" unicode="|" horiz-adv-x="716" 
d="M334 -492v2212h49v-2212h-49z" />
    <glyph glyph-name="braceright" unicode="}" horiz-adv-x="684" 
d="M250 -293q-63 0 -107 21v61q42 -20 105 -20q51 0 70.5 25.5t19.5 99.5q0 54 -15.5 194.5t-15.5 212.5q0 78 12 133t36 86t47 46.5t57 27.5q-34 12 -57 27.5t-47 46.5t-36 86.5t-12 134.5q0 74 15.5 222.5t15.5 201.5q0 76 -20 99.5t-72 23.5q-49 0 -103 -21v62
q46 20 107 20q80 0 114.5 -39t34.5 -145q0 -61 -15 -222t-15 -221q0 -243 172 -243v-62q-172 0 -172 -243q0 -59 15 -215.5t15 -212.5q0 -110 -38 -148.5t-111 -38.5z" />
    <glyph glyph-name="asciitilde" unicode="~" horiz-adv-x="1323" 
d="M176 399q-37 119 29 201t194 82q64 0 124 -23.5t107.5 -57t94 -67.5t102 -57.5t113.5 -23.5q97 0 130.5 61.5t10.5 163.5h72q25 -130 -30 -206.5t-185 -76.5q-70 0 -133 23.5t-110.5 57.5t-93 68t-99 57.5t-109.5 23.5q-99 0 -138.5 -65.5t-6.5 -160.5h-72z" />
    <glyph glyph-name="exclamdown" unicode="&#xa1;" horiz-adv-x="471" 
d="M236 1040q26 0 43.5 -17.5t17.5 -43.5t-17.5 -43.5t-43.5 -17.5t-44 17.5t-18 43.5t18 43.5t44 17.5zM215 696h41l20 -1106h-81z" />
    <glyph glyph-name="cent" unicode="&#xa2;" horiz-adv-x="1144" 
d="M1053 584q-33 -172 -152 -280.5t-297 -115.5v-413h-61v415q-204 12 -327.5 157t-123.5 374q0 225 123.5 367.5t327.5 154.5v334h61v-332q203 -9 318 -139.5t90 -323.5h-66q20 178 -76 286t-266 116v-934q144 8 246.5 96t134.5 238h68zM158 721q0 -201 105 -329t280 -140
v930q-175 -12 -280 -137.5t-105 -323.5z" />
    <glyph glyph-name="sterling" unicode="&#xa3;" horiz-adv-x="1202" 
d="M965 45q115 0 196 37v-62q-119 -36 -205 -36q-61 0 -116.5 13.5t-105.5 41.5t-83.5 51t-81.5 62q-39 -79 -111 -123.5t-169 -44.5q-111 0 -169.5 53t-58.5 129q0 80 64 133t164 53q117 0 248 -94q4 40 4 64q0 114 -70 247h-274v58h237q-15 23 -53.5 79t-57 87t-43.5 81.5
t-36 101t-11 105.5q0 166 107 267.5t285 101.5q177 0 283 -106t106 -257q0 -131 -84 -241h-66q84 111 84 239q0 130 -88 217t-235 87q-148 0 -237 -88.5t-89 -225.5q0 -51 11.5 -99t36.5 -96.5t46 -82.5t58 -87.5t55 -82.5h395v-58h-362q67 -127 67 -245q0 -63 -14 -109
q48 -38 65 -51t62 -43t75.5 -41.5t77 -23t93.5 -11.5zM289 45q168 0 229 145q-67 50 -120 75.5t-113 25.5q-71 0 -114.5 -34t-43.5 -91q0 -55 42.5 -88t119.5 -33z" />
    <glyph glyph-name="currency" unicode="&#xa4;" horiz-adv-x="1179" 
d="M1010 684q0 -155 -103 -276l140 -140l-52 -51l-139 139q-118 -94 -266 -94t-266 94l-140 -139l-51 51l139 140q-102 120 -102 276q0 154 102 277l-139 139l51 51l142 -141q115 94 264 94t264 -94l141 141l52 -51l-140 -139q103 -121 103 -277zM231 684
q0 -149 105.5 -254.5t253.5 -105.5t253 105.5t105 254.5q0 148 -105 253t-253 105t-253.5 -105t-105.5 -253z" />
    <glyph glyph-name="yen" unicode="&#xa5;" horiz-adv-x="1216" 
d="M1165 1434l-514 -799h451v-57h-459v-156h459v-57h-459v-365h-61v365h-463v57h463v156h-463v57h452l-520 799h72l489 -758l482 758h71z" />
    <glyph glyph-name="brokenbar" unicode="&#xa6;" horiz-adv-x="716" 
d="M334 846v874h49v-874h-49zM334 -492v875h49v-875h-49z" />
    <glyph glyph-name="section" unicode="&#xa7;" horiz-adv-x="1077" 
d="M815 469q129 -59 129 -193q0 -128 -106 -210t-283 -82q-211 0 -326 119t-94 294h68q-20 -161 76.5 -256.5t271.5 -95.5q149 0 238.5 63t89.5 162q0 64 -40 105t-104.5 60.5t-142.5 32t-155.5 27.5t-142 39.5t-104.5 76t-40 128.5q0 134 122 217q-122 61 -122 193
q0 133 106.5 217t275.5 84q129 0 226 -49.5t140.5 -136.5t21.5 -193h-66q25 142 -63.5 230t-253.5 88q-141 0 -231.5 -64.5t-90.5 -165.5q0 -64 40 -106t104.5 -62t142.5 -33.5t155.5 -29.5t142 -40.5t104.5 -74.5t40 -125q0 -136 -129 -219zM215 748q0 -59 32.5 -98.5
t93.5 -61t122 -34t145.5 -27.5t136.5 -31q134 64 134 184q0 50 -26 86.5t-66.5 56t-99.5 34.5t-114 23t-122.5 21t-114.5 29q-121 -67 -121 -182z" />
    <glyph glyph-name="dieresis" unicode="&#xa8;" horiz-adv-x="638" 
d="M145 1219q-28 0 -45.5 17.5t-17.5 45.5t17.5 46t45.5 18t46 -18t18 -46t-18 -45.5t-46 -17.5zM494 1219q-28 0 -46 17.5t-18 45.5t18 46t46 18t45.5 -18t17.5 -46t-17.5 -45.5t-45.5 -17.5z" />
    <glyph glyph-name="copyright" unicode="&#xa9;" horiz-adv-x="1785" 
d="M893 -127q-167 0 -313.5 60.5t-251.5 165.5t-165.5 251.5t-60.5 313.5q0 166 60.5 312t165.5 250t251.5 164t313.5 60q222 0 403 -102t284 -282.5t103 -401.5q0 -167 -60.5 -313.5t-165 -251.5t-251 -165.5t-313.5 -60.5zM893 -66q205 0 372 95t262 262.5t95 372.5
q0 204 -95 370t-262 260.5t-372 94.5t-372 -94.5t-262 -260.5t-95 -370q0 -205 95 -372.5t262 -262.5t372 -95zM907 102q-232 0 -378 157.5t-146 406.5q0 245 143 400t369 155q217 0 340.5 -134t91.5 -333h-65q26 178 -76.5 290.5t-290.5 112.5q-198 0 -322 -136.5
t-124 -354.5q0 -221 127.5 -360.5t330.5 -139.5q159 0 264.5 93.5t139.5 262.5h67q-34 -197 -159 -308.5t-312 -111.5z" />
    <glyph glyph-name="ordfeminine" unicode="&#xaa;" horiz-adv-x="829" 
d="M408 1450q294 0 294 -360v-426h-51v182q-41 -92 -122.5 -145.5t-194.5 -53.5q-119 0 -192.5 59.5t-73.5 163.5q0 116 93.5 185t244.5 69q128 0 245 -45v11q0 66 -10.5 117t-36 96.5t-76 70.5t-122.5 25q-120 0 -184 -64t-40 -176h-55q-29 126 52.5 208.5t228.5 82.5z
M338 698q142 0 226.5 93.5t86.5 234.5q-113 47 -241 47q-129 0 -208 -55.5t-79 -147.5q0 -81 58.5 -126.5t156.5 -45.5z" />
    <glyph glyph-name="guillemotleft" unicode="&#xab;" horiz-adv-x="985" 
d="M346 162q-81 157 -264 391q183 234 264 391h80q-45 -84 -120 -192t-152 -199q77 -91 152 -199t120 -192h-80zM774 162q-81 157 -264 391q183 234 264 391h80q-45 -84 -120 -192t-152 -199q77 -91 152 -199t120 -192h-80z" />
    <glyph glyph-name="logicalnot" unicode="&#xac;" horiz-adv-x="1323" 
d="M1028 410v290h-795v58h857v-348h-62z" />
    <glyph glyph-name="uni00AD" unicode="&#xad;" horiz-adv-x="786" 
d="M164 510v57h459v-57h-459z" />
    <glyph glyph-name="registered" unicode="&#xae;" horiz-adv-x="1247" 
d="M625 1450q209 0 349 -140t140 -347q0 -211 -140 -351.5t-349 -140.5q-210 0 -351 141t-141 351q0 207 141 347t351 140zM625 518q189 0 315.5 126.5t126.5 318.5q0 189 -126.5 314.5t-315.5 125.5q-191 0 -318 -125.5t-127 -314.5q0 -191 127 -318t318 -127zM721 969
q59 -23 87.5 -88t33.5 -181h-49q-7 131 -44.5 187.5t-107.5 56.5h-166v-244h-49v543h229q15 0 28.5 -1t42.5 -8t49.5 -20t37 -41t16.5 -67q0 -106 -108 -137zM475 989h143q158 0 158 113q0 96 -123 96h-178v-209z" />
    <glyph glyph-name="macron" unicode="&#xaf;" horiz-adv-x="686" 
d="M82 1225v57h522v-57h-522z" />
    <glyph glyph-name="degree" unicode="&#xb0;" horiz-adv-x="765" 
d="M383 848q-125 0 -213 88t-88 213t88 213t213 88t213 -88t88 -213t-88 -213t-213 -88zM383 909q101 0 170.5 70.5t69.5 169.5q0 101 -69.5 170.5t-170.5 69.5q-99 0 -169.5 -69.5t-70.5 -170.5q0 -98 71 -169t169 -71z" />
    <glyph glyph-name="plusminus" unicode="&#xb1;" horiz-adv-x="1323" 
d="M692 891h467v-57h-467v-422h-61v422h-467v57h467v383h61v-383zM164 170v57h995v-57h-995z" />
    <glyph glyph-name="uni00B2" unicode="&#xb2;" horiz-adv-x="731" 
d="M207 836h442v-58h-567v60q121 45 206 88.5t154.5 97.5t103.5 119.5t34 144.5q0 99 -54 157t-149 58q-97 0 -156 -58t-59 -157q0 -112 78 -211h-72q-74 86 -74 211q0 124 77.5 200.5t203.5 76.5t199 -74t73 -197q0 -283 -440 -458z" />
    <glyph glyph-name="uni00B3" unicode="&#xb3;" horiz-adv-x="661" 
d="M457 1196q67 -25 105 -77t38 -120q0 -101 -76.5 -169t-199.5 -68q-135 0 -212.5 83t-56.5 212h62q-20 -101 40.5 -167.5t168.5 -66.5q91 0 148.5 50.5t57.5 125.5q0 74 -55.5 119t-146.5 45h-88v62h88q77 0 124.5 40.5t47.5 102.5q0 63 -49 99t-127 36
q-97 0 -143.5 -51.5t-26.5 -140.5h-68q-21 118 47.5 186t190.5 68q109 0 176 -53.5t67 -139.5q0 -59 -29.5 -105t-82.5 -71z" />
    <glyph glyph-name="acute" unicode="&#xb4;" horiz-adv-x="350" 
d="M82 1159l117 275h69l-133 -275h-53z" />
    <glyph glyph-name="uni00B5" unicode="&#xb5;" horiz-adv-x="1060" 
d="M846 1024h61v-1024h-61v262q-58 -139 -159 -208.5t-222 -69.5q-172 0 -250 147v-541h-61v1434h61v-616q0 -178 65.5 -270.5t184.5 -92.5q53 0 105 17t102.5 55.5t88.5 93.5t61.5 137t23.5 180v496z" />
    <glyph glyph-name="paragraph" unicode="&#xb6;" horiz-adv-x="1075" 
d="M463 -268v1050q-137 0 -233.5 94.5t-96.5 229.5q0 137 96.5 232.5t233.5 95.5h397v-1702h-61v1644h-275v-1644h-61z" />
    <glyph glyph-name="periodcentered" unicode="&#xb7;" horiz-adv-x="389" 
d="M195 451q-26 0 -44 17.5t-18 43.5t18 43.5t44 17.5t43.5 -17.5t17.5 -43.5t-17.5 -43.5t-43.5 -17.5z" />
    <glyph glyph-name="cedilla" unicode="&#xb8;" horiz-adv-x="587" 
d="M297 -68q99 0 154 -48.5t55 -127.5q0 -82 -59 -132t-156 -50q-109 0 -167.5 63t-35.5 154h59q-21 -70 21 -116t123 -46q69 0 112 35t43 92t-43 91t-114 34q-57 0 -107 -24l-24 53q60 25 101.5 60t41.5 67h57q0 -60 -61 -105z" />
    <glyph glyph-name="uni00B9" unicode="&#xb9;" horiz-adv-x="524" 
d="M317 1548h64v-770h-62v645q-75 -175 -278 -268v76q99 42 173.5 128.5t102.5 188.5z" />
    <glyph glyph-name="ordmasculine" unicode="&#xba;" horiz-adv-x="909" 
d="M455 647q-163 0 -264 110.5t-101 291.5t101 291t264 110t263.5 -110t100.5 -291t-100.5 -291.5t-263.5 -110.5zM455 698q138 0 223.5 96.5t85.5 254.5t-85.5 254t-223.5 96q-139 0 -224.5 -96t-85.5 -254t86 -254.5t224 -96.5z" />
    <glyph glyph-name="guillemotright" unicode="&#xbb;" horiz-adv-x="985" 
d="M211 162h-80q45 84 120 192t152 199q-77 91 -152 199t-120 192h80q81 -157 264 -391q-183 -234 -264 -391zM639 162h-80q45 84 120 192t152 199q-77 91 -152 199t-120 192h80q81 -157 264 -391q-183 -234 -264 -391z" />
    <glyph glyph-name="onequarter" unicode="&#xbc;" horiz-adv-x="1312" 
d="M1104 1366h82l-989 -1366h-82zM319 1239q-75 -175 -278 -268v76q99 42 173.5 128.5t102.5 188.5h64v-770h-62v645zM1112 252h160v-57h-160v-195h-61v195h-428v43q128 106 245 246.5t193 285.5h51v-518zM719 252h332v387q-135 -217 -332 -387z" />
    <glyph glyph-name="onehalf" unicode="&#xbd;" horiz-adv-x="1486" 
d="M1104 1366h82l-989 -1366h-82zM319 1239q-75 -175 -278 -268v76q99 42 173.5 128.5t102.5 188.5h64v-770h-62v645zM963 57h442v-57h-567v59q120 45 205.5 88.5t154.5 98t103 120t34 144.5q0 99 -53.5 157t-148.5 58q-97 0 -156 -58t-59 -157q0 -113 77 -211h-71
q-74 86 -74 211q0 124 77 200t203 76t199.5 -73.5t73.5 -196.5q0 -284 -440 -459z" />
    <glyph glyph-name="threequarters" unicode="&#xbe;" horiz-adv-x="1429" 
d="M600 815q0 -101 -76.5 -169t-199.5 -68q-135 0 -212.5 82.5t-56.5 211.5h62q-20 -100 40.5 -166.5t168.5 -66.5q91 0 148.5 50.5t57.5 125.5q0 74 -55.5 119t-146.5 45h-88v61h88q77 0 124.5 41t47.5 103q0 63 -49 99t-127 36q-97 0 -143.5 -52t-26.5 -141h-68
q-21 118 47.5 186t190.5 68q109 0 176 -53t67 -139q0 -59 -29.5 -105t-82.5 -71q67 -25 105 -77t38 -120zM1221 1366h82l-990 -1366h-82zM1229 252h160v-57h-160v-195h-62v195h-428v43q129 106 246 246.5t193 285.5h51v-518zM836 252h331v387q-136 -219 -331 -387z" />
    <glyph glyph-name="questiondown" unicode="&#xbf;" horiz-adv-x="999" 
d="M500 1040q26 0 43.5 -17.5t17.5 -43.5t-17.5 -43.5t-43.5 -17.5t-44 17.5t-18 43.5t18 43.5t44 17.5zM506 737q137 0 220 -63.5t83 -165.5q0 -55 -26.5 -102t-70.5 -80t-99.5 -65.5t-114 -58t-114 -58.5t-99.5 -66.5t-70.5 -81.5t-26.5 -105q0 -105 82.5 -180.5
t218.5 -75.5q139 0 230.5 81t91.5 206q0 97 -59 205h65q60 -100 60 -205q0 -149 -109.5 -248.5t-278.5 -99.5q-162 0 -264 91.5t-102 223.5q0 63 26.5 116.5t70 91.5t99.5 73.5t114 62.5t114 58t99.5 60.5t70 70t26.5 86.5q0 74 -63.5 121t-177.5 47q-141 0 -289 -98v67
q129 92 293 92z" />
    <glyph glyph-name="Agrave" unicode="&#xc0;" horiz-adv-x="1318" 
d="M727 1507h-51l-127 193h61zM1198 0l-172 436h-733l-172 -436h-70l574 1434h69l574 -1434h-70zM315 494h689l-345 872z" />
    <glyph glyph-name="Aacute" unicode="&#xc1;" horiz-adv-x="1318" 
d="M786 1700l-127 -193h-57l117 193h67zM1198 0l-172 436h-733l-172 -436h-70l574 1434h69l574 -1434h-70zM315 494h689l-345 872z" />
    <glyph glyph-name="Acircumflex" unicode="&#xc2;" horiz-adv-x="1318" 
d="M653 1655l-180 -148h-82l236 193h49l250 -193h-82zM1198 0l-172 436h-733l-172 -436h-70l574 1434h69l574 -1434h-70zM315 494h689l-345 872z" />
    <glyph glyph-name="Atilde" unicode="&#xc3;" horiz-adv-x="1318" 
d="M461 1509h-53q-23 76 11 125t103 49q40 0 79.5 -19t67 -42t63.5 -42t69 -19q83 0 53 120h55q20 -74 -8.5 -124t-99.5 -50q-39 0 -79 19t-67.5 42.5t-64 42.5t-68.5 19q-49 0 -64 -38.5t3 -82.5zM1198 0l-172 436h-733l-172 -436h-70l574 1434h69l574 -1434h-70zM315 494
h689l-345 872z" />
    <glyph glyph-name="Adieresis" unicode="&#xc4;" horiz-adv-x="1318" 
d="M444 1561q-28 0 -45.5 17.5t-17.5 45.5t17.5 46t45.5 18t46 -18t18 -46t-18 -45.5t-46 -17.5zM874 1561q-28 0 -45.5 17.5t-17.5 45.5t17.5 46t45.5 18t46 -18t18 -46t-18 -45.5t-46 -17.5zM1198 0l-172 436h-733l-172 -436h-70l574 1434h69l574 -1434h-70zM315 494h689
l-345 872z" />
    <glyph glyph-name="Aring" unicode="&#xc5;" horiz-adv-x="1318" 
d="M659 1468q-63 0 -103 38.5t-40 97.5t40 97t103 38t103.5 -38t40.5 -97t-40.5 -97.5t-103.5 -38.5zM659 1686q-37 0 -59 -22.5t-22 -59.5t22 -59.5t59 -22.5t59.5 22.5t22.5 59.5t-22.5 59.5t-59.5 22.5zM1198 0l-172 436h-733l-172 -436h-70l574 1434h69l574 -1434h-70z
M315 494h689l-345 872z" />
    <glyph glyph-name="AE" unicode="&#xc6;" horiz-adv-x="2004" 
d="M1001 57h871v-57h-932v436h-559l-258 -436h-72l860 1434h940v-58h-850v-588h742v-57h-742v-674zM416 494h524v886z" />
    <glyph glyph-name="Ccedilla" unicode="&#xc7;" horiz-adv-x="1536" 
d="M834 -16q-23 -35 -48 -52q99 0 154 -48.5t55 -127.5q0 -82 -59 -132t-156 -50q-109 0 -167 63t-35 154h59q-21 -70 20.5 -116t122.5 -46q69 0 112.5 35t43.5 92t-43.5 91t-114.5 34q-56 0 -106 -24l-25 53q75 29 119 76q-282 19 -457.5 222.5t-175.5 514.5
q0 160 50.5 296t139.5 230.5t213.5 147.5t268.5 53q138 0 253 -46t189 -126t107.5 -191t15.5 -237h-65q30 240 -111.5 389.5t-388.5 149.5q-175 0 -312.5 -83t-215.5 -235.5t-78 -347.5q0 -299 173.5 -488.5t448.5 -189.5q118 0 214.5 38t162 105t107 150t61.5 182h68
q-20 -111 -67 -204.5t-119.5 -168t-178.5 -118t-235 -45.5z" />
    <glyph glyph-name="Egrave" unicode="&#xc8;" horiz-adv-x="1280" 
d="M743 1507h-51l-127 193h62zM276 57h871v-57h-932v1434h911v-58h-850v-588h742v-57h-742v-674z" />
    <glyph glyph-name="Eacute" unicode="&#xc9;" horiz-adv-x="1280" 
d="M803 1700l-127 -193h-58l117 193h68zM276 57h871v-57h-932v1434h911v-58h-850v-588h742v-57h-742v-674z" />
    <glyph glyph-name="Ecircumflex" unicode="&#xca;" horiz-adv-x="1280" 
d="M670 1655l-181 -148h-81l235 193h49l250 -193h-82zM276 57h871v-57h-932v1434h911v-58h-850v-588h742v-57h-742v-674z" />
    <glyph glyph-name="Edieresis" unicode="&#xcb;" horiz-adv-x="1280" 
d="M461 1561q-28 0 -46 17.5t-18 45.5t18 46t46 18t45.5 -18t17.5 -46t-17.5 -45.5t-45.5 -17.5zM891 1561q-28 0 -46 17.5t-18 45.5t18 46t46 18t45.5 -18t17.5 -46t-17.5 -45.5t-45.5 -17.5zM276 57h871v-57h-932v1434h911v-58h-850v-588h742v-57h-742v-674z" />
    <glyph glyph-name="Igrave" unicode="&#xcc;" horiz-adv-x="491" 
d="M262 1507l-127 193h62l116 -193h-51zM215 0v1434h61v-1434h-61z" />
    <glyph glyph-name="Iacute" unicode="&#xcd;" horiz-adv-x="491" 
d="M188 1507l117 193h68l-127 -193h-58zM215 0v1434h61v-1434h-61z" />
    <glyph glyph-name="Icircumflex" unicode="&#xce;" horiz-adv-x="491" 
d="M262 1700l250 -193h-82l-190 148l-181 -148h-82l236 193h49zM215 0v1434h61v-1434h-61z" />
    <glyph glyph-name="Idieresis" unicode="&#xcf;" horiz-adv-x="491" 
d="M113 1561q-28 0 -46 17.5t-18 45.5t18 46t46 18t45.5 -18t17.5 -46t-17.5 -45.5t-45.5 -17.5zM379 1561q-28 0 -46 17.5t-18 45.5t18 46t46 18t45.5 -18t17.5 -46t-17.5 -45.5t-45.5 -17.5zM215 0v1434h61v-1434h-61z" />
    <glyph glyph-name="Eth" unicode="&#xd0;" horiz-adv-x="1482" 
d="M696 1434q198 0 351 -88t238 -251.5t85 -377.5q0 -321 -183.5 -519t-486.5 -198h-444v690h-135v53h135v691h440zM700 57q272 0 438.5 182t166.5 480q0 296 -166.5 476.5t-436.5 180.5h-385v-633h340v-53h-340v-633h383z" />
    <glyph glyph-name="Ntilde" unicode="&#xd1;" horiz-adv-x="1503" 
d="M573 1509h-53q-23 76 11.5 125t103.5 49q40 0 79.5 -19t66.5 -42t63 -42t69 -19q84 0 54 120h55q20 -73 -9 -123.5t-100 -50.5q-39 0 -79 19t-67.5 42.5t-63.5 42.5t-68 19q-49 0 -64.5 -38.5t2.5 -82.5zM1227 1434h61v-1434h-102l-910 1386v-1386h-61v1434h102
l910 -1389v1389z" />
    <glyph glyph-name="Ograve" unicode="&#xd2;" horiz-adv-x="1624" 
d="M829 1507l-127 193h62l117 -193h-52zM813 -16q-196 0 -351.5 93.5t-242 261.5t-86.5 380q0 211 86.5 378t242 260t351.5 93t351 -93t241 -260t86 -378q0 -212 -86 -380t-241 -261.5t-351 -93.5zM813 45q176 0 315.5 86t218 240t78.5 348q0 193 -78.5 346t-218 238.5
t-315.5 85.5q-177 0 -317 -85.5t-218.5 -238.5t-78.5 -346q0 -194 78.5 -348t218.5 -240t317 -86z" />
    <glyph glyph-name="Oacute" unicode="&#xd3;" horiz-adv-x="1624" 
d="M756 1507l116 193h68l-127 -193h-57zM813 -16q-196 0 -351.5 93.5t-242 261.5t-86.5 380q0 211 86.5 378t242 260t351.5 93t351 -93t241 -260t86 -378q0 -212 -86 -380t-241 -261.5t-351 -93.5zM813 45q176 0 315.5 86t218 240t78.5 348q0 193 -78.5 346t-218 238.5
t-315.5 85.5q-177 0 -317 -85.5t-218.5 -238.5t-78.5 -346q0 -194 78.5 -348t218.5 -240t317 -86z" />
    <glyph glyph-name="Ocircumflex" unicode="&#xd4;" horiz-adv-x="1624" 
d="M807 1655l-180 -148h-82l235 193h49l250 -193h-82zM813 1450q196 0 351 -93t241 -260t86 -378q0 -212 -86 -380t-241 -261.5t-351 -93.5t-351.5 93.5t-242 261.5t-86.5 380q0 211 86.5 378t242 260t351.5 93zM813 45q176 0 315.5 86t218 240t78.5 348q0 193 -78.5 346
t-218 238.5t-315.5 85.5q-177 0 -317 -85.5t-218.5 -238.5t-78.5 -346q0 -194 78.5 -348t218.5 -240t317 -86z" />
    <glyph glyph-name="Otilde" unicode="&#xd5;" horiz-adv-x="1624" 
d="M561 1509q-23 76 11.5 125t103.5 49q40 0 79.5 -19t66.5 -42t63 -42t69 -19q84 0 54 120h55q20 -73 -9 -123.5t-100 -50.5q-39 0 -79 19t-67.5 42.5t-63.5 42.5t-68 19q-49 0 -64.5 -38.5t2.5 -82.5h-53zM813 -16q-196 0 -351.5 93.5t-242 261.5t-86.5 380
q0 211 86.5 378t242 260t351.5 93t351 -93t241 -260t86 -378q0 -212 -86 -380t-241 -261.5t-351 -93.5zM813 45q176 0 315.5 86t218 240t78.5 348q0 193 -78.5 346t-218 238.5t-315.5 85.5q-177 0 -317 -85.5t-218.5 -238.5t-78.5 -346q0 -194 78.5 -348t218.5 -240t317 -86
z" />
    <glyph glyph-name="Odieresis" unicode="&#xd6;" horiz-adv-x="1624" 
d="M598 1561q-28 0 -45.5 17.5t-17.5 45.5t17.5 46t45.5 18t46 -18t18 -46t-18 -45.5t-46 -17.5zM1028 1561q-28 0 -45.5 17.5t-17.5 45.5t17.5 46t45.5 18t46 -18t18 -46t-18 -45.5t-46 -17.5zM813 -16q-196 0 -351.5 93.5t-242 261.5t-86.5 380q0 211 86.5 378t242 260
t351.5 93t351 -93t241 -260t86 -378q0 -212 -86 -380t-241 -261.5t-351 -93.5zM813 45q176 0 315.5 86t218 240t78.5 348q0 193 -78.5 346t-218 238.5t-315.5 85.5q-177 0 -317 -85.5t-218.5 -238.5t-78.5 -346q0 -194 78.5 -348t218.5 -240t317 -86z" />
    <glyph glyph-name="multiply" unicode="&#xd7;" horiz-adv-x="1323" 
d="M1135 221l-43 -43l-430 430l-431 -430l-43 43l430 430l-401 402l43 43l402 -402l401 402l43 -43l-401 -402z" />
    <glyph glyph-name="Oslash" unicode="&#xd8;" horiz-adv-x="1624" 
d="M1290 1255q96 -98 148.5 -235.5t52.5 -300.5q0 -212 -86 -380t-241 -261.5t-351 -93.5q-266 0 -451 168l-133 -160l-45 33l140 165q-92 98 -141.5 233.5t-49.5 295.5q0 211 86.5 378t242 260t351.5 93q253 0 436 -156l125 148l45 -33zM199 719q0 -288 168 -477l841 1001
q-165 146 -395 146q-177 0 -317 -85.5t-218.5 -238.5t-78.5 -346zM813 45q176 0 315.5 86t218 240t78.5 348q0 298 -176 487l-843 -1005q166 -156 407 -156z" />
    <glyph glyph-name="Ugrave" unicode="&#xd9;" horiz-adv-x="1466" 
d="M750 1507l-127 193h61l117 -193h-51zM733 -14q-269 0 -398.5 160t-129.5 491v797h61v-797q0 -302 114.5 -448t352.5 -146t352.5 146t114.5 448v797h62v-797q0 -331 -130 -491t-399 -160z" />
    <glyph glyph-name="Uacute" unicode="&#xda;" horiz-adv-x="1466" 
d="M676 1507l117 193h67l-127 -193h-57zM733 -14q-269 0 -398.5 160t-129.5 491v797h61v-797q0 -302 114.5 -448t352.5 -146t352.5 146t114.5 448v797h62v-797q0 -331 -130 -491t-399 -160z" />
    <glyph glyph-name="Ucircumflex" unicode="&#xdb;" horiz-adv-x="1466" 
d="M727 1655l-180 -148h-82l235 193h50l249 -193h-81zM1200 1434h62v-797q0 -331 -130 -491t-399 -160t-398.5 160t-129.5 491v797h61v-797q0 -302 114.5 -448t352.5 -146t352.5 146t114.5 448v797z" />
    <glyph glyph-name="Udieresis" unicode="&#xdc;" horiz-adv-x="1466" 
d="M518 1561q-28 0 -45.5 17.5t-17.5 45.5t17.5 46t45.5 18t46 -18t18 -46t-18 -45.5t-46 -17.5zM948 1561q-28 0 -45.5 17.5t-17.5 45.5t17.5 46t45.5 18t46 -18t18 -46t-18 -45.5t-46 -17.5zM733 -14q-269 0 -398.5 160t-129.5 491v797h61v-797q0 -302 114.5 -448
t352.5 -146t352.5 146t114.5 448v797h62v-797q0 -331 -130 -491t-399 -160z" />
    <glyph glyph-name="Yacute" unicode="&#xdd;" horiz-adv-x="1216" 
d="M735 1700l-127 -193h-57l117 193h67zM1165 1434l-522 -813v-621h-61v621l-531 813h72l489 -758l482 758h71z" />
    <glyph glyph-name="Thorn" unicode="&#xde;" horiz-adv-x="1359" 
d="M784 1126q212 0 327.5 -98t115.5 -276t-115 -271.5t-328 -93.5h-508v-387h-61v1434h61v-308h508zM784 444q181 0 278 79t97 229t-98 233.5t-277 83.5h-508v-625h508z" />
    <glyph glyph-name="germandbls" unicode="&#xdf;" horiz-adv-x="1232" 
d="M674 766q203 -31 324.5 -148.5t121.5 -285.5q0 -153 -98.5 -250.5t-259.5 -97.5q-172 0 -270.5 115.5t-73.5 285.5h57q-20 -148 64.5 -246t226.5 -98q129 0 209 81t80 212q0 180 -146 289.5t-397 109.5v55q192 0 290.5 80.5t98.5 221.5q0 133 -86.5 214.5t-245.5 81.5
q-70 0 -126.5 -18.5t-92.5 -46.5t-62.5 -71t-40 -81t-21.5 -88t-9.5 -82t-1.5 -71v-928h-61v928q0 30 1 56.5t5.5 67.5t12.5 75.5t23.5 76.5t36 75t52.5 66t71.5 54.5t94 35t118.5 13.5q185 0 291.5 -100t106.5 -256q0 -130 -77 -215t-216 -111z" />
    <glyph glyph-name="agrave" unicode="&#xe0;" horiz-adv-x="1081" 
d="M604 1159h-53l-133 275h69zM547 1040q391 0 391 -475v-565h-61v252q-55 -124 -164.5 -196t-263.5 -72q-161 0 -259 77t-98 213q0 155 124.5 247.5t326.5 92.5q172 0 334 -61v12q0 69 -8 125.5t-30.5 111.5t-59 93t-96.5 61t-140 23q-162 0 -250 -86t-55 -234h-66
q-38 166 70 273.5t305 107.5zM453 45q130 0 227.5 60t146.5 159.5t50 222.5q-151 66 -330 66q-175 0 -282 -75t-107 -202q0 -108 81 -169.5t214 -61.5z" />
    <glyph glyph-name="aacute" unicode="&#xe1;" horiz-adv-x="1081" 
d="M649 1434l-133 -275h-53l117 275h69zM547 1040q391 0 391 -475v-565h-61v252q-55 -124 -164.5 -196t-263.5 -72q-161 0 -259 77t-98 213q0 155 124.5 247.5t326.5 92.5q172 0 334 -61v12q0 69 -8 125.5t-30.5 111.5t-59 93t-96.5 61t-140 23q-162 0 -250 -86t-55 -234
h-66q-38 166 70 273.5t305 107.5zM453 45q130 0 227.5 60t146.5 159.5t50 222.5q-151 66 -330 66q-175 0 -282 -75t-107 -202q0 -108 81 -169.5t214 -61.5z" />
    <glyph glyph-name="acircumflex" unicode="&#xe2;" horiz-adv-x="1081" 
d="M537 1376l-150 -217h-72l195 275h49l209 -275h-72zM547 1040q391 0 391 -475v-565h-61v252q-55 -124 -164.5 -196t-263.5 -72q-161 0 -259 77t-98 213q0 155 124.5 247.5t326.5 92.5q172 0 334 -61v12q0 69 -8 125.5t-30.5 111.5t-59 93t-96.5 61t-140 23
q-162 0 -250 -86t-55 -234h-66q-38 166 70 273.5t305 107.5zM453 45q130 0 227.5 60t146.5 159.5t50 222.5q-151 66 -330 66q-175 0 -282 -75t-107 -202q0 -108 81 -169.5t214 -61.5z" />
    <glyph glyph-name="atilde" unicode="&#xe3;" horiz-adv-x="1081" 
d="M336 1196h-55q-24 80 12 133t108 53q41 0 82 -20t70 -44.5t67 -44.5t72 -20q49 0 62 39.5t-4 89.5h57q21 -79 -8.5 -132.5t-106.5 -53.5q-41 0 -83 20t-71 44.5t-66.5 44.5t-70.5 20q-51 0 -68 -41.5t3 -87.5zM547 1040q391 0 391 -475v-565h-61v252
q-55 -124 -164.5 -196t-263.5 -72q-161 0 -259 77t-98 213q0 155 124.5 247.5t326.5 92.5q172 0 334 -61v12q0 69 -8 125.5t-30.5 111.5t-59 93t-96.5 61t-140 23q-162 0 -250 -86t-55 -234h-66q-38 166 70 273.5t305 107.5zM453 45q130 0 227.5 60t146.5 159.5t50 222.5
q-151 66 -330 66q-175 0 -282 -75t-107 -202q0 -108 81 -169.5t214 -61.5z" />
    <glyph glyph-name="adieresis" unicode="&#xe4;" horiz-adv-x="1081" 
d="M369 1219q-28 0 -46 17.5t-18 45.5t18 46t46 18t45.5 -18t17.5 -46t-17.5 -45.5t-45.5 -17.5zM717 1219q-28 0 -46 17.5t-18 45.5t18 46t46 18t45.5 -18t17.5 -46t-17.5 -45.5t-45.5 -17.5zM547 1040q391 0 391 -475v-565h-61v252q-55 -124 -164.5 -196t-263.5 -72
q-161 0 -259 77t-98 213q0 155 124.5 247.5t326.5 92.5q172 0 334 -61v12q0 69 -8 125.5t-30.5 111.5t-59 93t-96.5 61t-140 23q-162 0 -250 -86t-55 -234h-66q-38 166 70 273.5t305 107.5zM453 45q130 0 227.5 60t146.5 159.5t50 222.5q-151 66 -330 66q-175 0 -282 -75
t-107 -202q0 -108 81 -169.5t214 -61.5z" />
    <glyph glyph-name="aring" unicode="&#xe5;" horiz-adv-x="1081" 
d="M543 1161q-61 0 -102.5 39t-41.5 98t41.5 98.5t102.5 39.5t102 -39.5t41 -98.5t-41 -98t-102 -39zM543 1380q-37 0 -59.5 -22.5t-22.5 -59.5t22.5 -59t59.5 -22t59.5 22t22.5 59t-22.5 59.5t-59.5 22.5zM547 1040q391 0 391 -475v-565h-61v252q-55 -124 -164.5 -196
t-263.5 -72q-161 0 -259 77t-98 213q0 155 124.5 247.5t326.5 92.5q172 0 334 -61v12q0 69 -8 125.5t-30.5 111.5t-59 93t-96.5 61t-140 23q-162 0 -250 -86t-55 -234h-66q-38 166 70 273.5t305 107.5zM453 45q130 0 227.5 60t146.5 159.5t50 222.5q-151 66 -330 66
q-175 0 -282 -75t-107 -202q0 -108 81 -169.5t214 -61.5z" />
    <glyph glyph-name="ae" unicode="&#xe6;" horiz-adv-x="1906" 
d="M1733 297h71q-57 -146 -178 -229.5t-278 -83.5q-159 0 -276.5 87t-164.5 240q-46 -148 -164 -237.5t-294 -89.5q-161 0 -259 77t-98 213q0 155 124.5 247.5t326.5 92.5q172 0 334 -61v12q0 69 -8 125.5t-30.5 111.5t-59 93t-96.5 61t-140 23q-162 0 -250 -86t-55 -234
h-66q-38 165 69.5 273t301.5 108q305 0 377 -290q54 137 168 213.5t266 76.5q82 0 154 -23t125 -63t91 -95.5t55.5 -120t14.5 -138t-29 -147.5h-823q17 -186 128.5 -297t279.5 -111q128 0 231 67t152 185zM1356 979q-187 0 -301.5 -127.5t-114.5 -337.5v-4h778
q28 123 -7.5 230.5t-129.5 173t-225 65.5zM453 45q130 0 227.5 60t146.5 159.5t50 222.5q-151 66 -330 66q-175 0 -282 -75t-107 -202q0 -108 81 -169.5t214 -61.5z" />
    <glyph glyph-name="ccedilla" unicode="&#xe7;" horiz-adv-x="1155" 
d="M596 -16q-24 -36 -47 -52q99 0 154 -48.5t55 -127.5q0 -82 -59 -132t-156 -50q-109 0 -167.5 63t-35.5 154h59q-21 -70 21 -116t123 -46q69 0 112 35t43 92t-43 91t-114 34q-57 0 -107 -24l-24 53q73 28 118 76q-199 19 -317.5 162t-118.5 368q0 236 134 380t354 144
q213 0 335 -131t97 -331h-66q20 184 -83 292.5t-283 108.5q-191 0 -306.5 -127t-115.5 -336q0 -212 116 -341.5t306 -129.5q154 0 263 88.5t142 245.5h68q-34 -175 -155 -283t-302 -112z" />
    <glyph glyph-name="egrave" unicode="&#xe8;" horiz-adv-x="1122" 
d="M623 1159h-54l-133 275h70zM958 297h72q-57 -146 -179.5 -229.5t-281.5 -83.5q-211 0 -344 145.5t-133 384.5q0 238 134 382t349 144q83 0 155.5 -23t126 -63t92 -95.5t56 -120t15 -138t-28.5 -147.5h-831q19 -186 130.5 -297t280.5 -111q129 0 232.5 67t154.5 185z
M578 979q-188 0 -304 -127.5t-116 -337.5v-4h786q28 123 -8 230.5t-131 173t-227 65.5z" />
    <glyph glyph-name="eacute" unicode="&#xe9;" horiz-adv-x="1122" 
d="M668 1434l-133 -275h-54l117 275h70zM958 297h72q-57 -146 -179.5 -229.5t-281.5 -83.5q-211 0 -344 145.5t-133 384.5q0 238 134 382t349 144q83 0 155.5 -23t126 -63t92 -95.5t56 -120t15 -138t-28.5 -147.5h-831q19 -186 130.5 -297t280.5 -111q129 0 232.5 67
t154.5 185zM578 979q-188 0 -304 -127.5t-116 -337.5v-4h786q28 123 -8 230.5t-131 173t-227 65.5z" />
    <glyph glyph-name="ecircumflex" unicode="&#xea;" horiz-adv-x="1122" 
d="M555 1376l-149 -217h-72l194 275h50l208 -275h-71zM958 297h72q-57 -146 -179.5 -229.5t-281.5 -83.5q-211 0 -344 145.5t-133 384.5q0 238 134 382t349 144q83 0 155.5 -23t126 -63t92 -95.5t56 -120t15 -138t-28.5 -147.5h-831q19 -186 130.5 -297t280.5 -111
q129 0 232.5 67t154.5 185zM578 979q-188 0 -304 -127.5t-116 -337.5v-4h786q28 123 -8 230.5t-131 173t-227 65.5z" />
    <glyph glyph-name="edieresis" unicode="&#xeb;" horiz-adv-x="1122" 
d="M387 1219q-28 0 -45.5 17.5t-17.5 45.5t17.5 46t45.5 18t46 -18t18 -46t-18 -45.5t-46 -17.5zM735 1219q-28 0 -45.5 17.5t-17.5 45.5t17.5 46t45.5 18t46 -18t18 -46t-18 -45.5t-46 -17.5zM958 297h72q-57 -146 -179.5 -229.5t-281.5 -83.5q-211 0 -344 145.5
t-133 384.5q0 238 134 382t349 144q83 0 155.5 -23t126 -63t92 -95.5t56 -120t15 -138t-28.5 -147.5h-831q19 -186 130.5 -297t280.5 -111q129 0 232.5 67t154.5 185zM578 979q-188 0 -304 -127.5t-116 -337.5v-4h786q28 123 -8 230.5t-131 173t-227 65.5z" />
    <glyph glyph-name="igrave" unicode="&#xec;" horiz-adv-x="389" 
d="M203 1159l-133 275h69l117 -275h-53zM164 0v1024h61v-1024h-61z" />
    <glyph glyph-name="iacute" unicode="&#xed;" horiz-adv-x="389" 
d="M115 1159l116 275h70l-133 -275h-53zM164 0v1024h61v-1024h-61z" />
    <glyph glyph-name="icircumflex" unicode="&#xee;" horiz-adv-x="389" 
d="M211 1434l209 -275h-72l-160 217l-149 -217h-72l195 275h49zM164 0v1024h61v-1024h-61z" />
    <glyph glyph-name="idieresis" unicode="&#xef;" horiz-adv-x="389" 
d="M61 1221q-26 0 -43.5 17.5t-17.5 43.5t17.5 43.5t43.5 17.5t44 -17.5t18 -43.5t-18 -43.5t-44 -17.5zM328 1221q-26 0 -44 17.5t-18 43.5t18 43.5t44 17.5t43.5 -17.5t17.5 -43.5t-17.5 -43.5t-43.5 -17.5zM164 0v1024h61v-1024h-61z" />
    <glyph glyph-name="eth" unicode="&#xf0;" horiz-adv-x="1126" 
d="M684 1260q350 -276 350 -672q0 -168 -55.5 -303.5t-167 -218t-260.5 -82.5q-200 0 -329.5 139.5t-129.5 363.5q0 222 128.5 357t336.5 135q157 0 267 -77.5t153 -213.5q-41 297 -346 545l-320 -154l-26 47l297 144q-122 90 -273 164h101q105 -55 225 -138l244 119l26 -49
zM553 45q94 0 172.5 40t129.5 106t79.5 150t28.5 173q0 182 -110 293t-290 111q-183 0 -294 -118t-111 -313q0 -196 111.5 -319t283.5 -123z" />
    <glyph glyph-name="ntilde" unicode="&#xf1;" horiz-adv-x="1110" 
d="M328 1196h-56q-24 80 12.5 133t108.5 53q41 0 82 -20t70 -44.5t67 -44.5t72 -20q49 0 61.5 39.5t-4.5 89.5h58q21 -79 -8.5 -132.5t-106.5 -53.5q-41 0 -83 20t-71 44.5t-66.5 44.5t-70.5 20q-51 0 -68 -41.5t3 -87.5zM627 1040q55 0 101 -12t79 -30.5t59 -47.5t42.5 -56
t28.5 -64t17.5 -63t8.5 -61t3.5 -51t0.5 -39v-616h-62v608q0 371 -284 371q-180 0 -293 -137t-113 -367v-475h-61v1024h61v-272q50 135 159 211.5t253 76.5z" />
    <glyph glyph-name="ograve" unicode="&#xf2;" horiz-adv-x="1157" 
d="M588 1159l-133 275h69l117 -275h-53zM580 -16q-220 0 -354 145t-134 383t134 383t354 145q218 0 351.5 -145t133.5 -383t-133.5 -383t-351.5 -145zM580 45q189 0 304 128t115 339t-115 339t-304 128q-190 0 -306 -128t-116 -339t116 -339t306 -128z" />
    <glyph glyph-name="oacute" unicode="&#xf3;" horiz-adv-x="1157" 
d="M500 1159l116 275h70l-133 -275h-53zM580 -16q-220 0 -354 145t-134 383t134 383t354 145q218 0 351.5 -145t133.5 -383t-133.5 -383t-351.5 -145zM580 45q189 0 304 128t115 339t-115 339t-304 128q-190 0 -306 -128t-116 -339t116 -339t306 -128z" />
    <glyph glyph-name="ocircumflex" unicode="&#xf4;" horiz-adv-x="1157" 
d="M573 1376l-149 -217h-72l195 275h49l209 -275h-72zM580 1040q218 0 351.5 -145t133.5 -383t-133.5 -383t-351.5 -145q-220 0 -354 145t-134 383t134 383t354 145zM580 45q189 0 304 128t115 339t-115 339t-304 128q-190 0 -306 -128t-116 -339t116 -339t306 -128z" />
    <glyph glyph-name="otilde" unicode="&#xf5;" horiz-adv-x="1157" 
d="M317 1196q-24 80 12.5 133t108.5 53q41 0 82 -20t70 -44.5t67 -44.5t72 -20q49 0 61.5 39.5t-4.5 89.5h58q21 -79 -8.5 -132.5t-106.5 -53.5q-41 0 -83 20t-71 44.5t-66.5 44.5t-70.5 20q-51 0 -68 -41.5t3 -87.5h-56zM580 -16q-220 0 -354 145t-134 383t134 383t354 145
q218 0 351.5 -145t133.5 -383t-133.5 -383t-351.5 -145zM580 45q189 0 304 128t115 339t-115 339t-304 128q-190 0 -306 -128t-116 -339t116 -339t306 -128z" />
    <glyph glyph-name="odieresis" unicode="&#xf6;" horiz-adv-x="1157" 
d="M406 1219q-28 0 -46 17.5t-18 45.5t18 46t46 18t45.5 -18t17.5 -46t-17.5 -45.5t-45.5 -17.5zM754 1219q-28 0 -46 17.5t-18 45.5t18 46t46 18t45.5 -18t17.5 -46t-17.5 -45.5t-45.5 -17.5zM580 -16q-220 0 -354 145t-134 383t134 383t354 145q218 0 351.5 -145
t133.5 -383t-133.5 -383t-351.5 -145zM580 45q189 0 304 128t115 339t-115 339t-304 128q-190 0 -306 -128t-116 -339t116 -339t306 -128z" />
    <glyph glyph-name="divide" unicode="&#xf7;" horiz-adv-x="1323" 
d="M662 1012q-26 0 -44 17.5t-18 43.5t18 44t44 18t43.5 -18t17.5 -44t-17.5 -43.5t-43.5 -17.5zM164 608v58h995v-58h-995zM662 158q-26 0 -44 17.5t-18 43.5t18 44t44 18t43.5 -18t17.5 -44t-17.5 -43.5t-43.5 -17.5z" />
    <glyph glyph-name="oslash" unicode="&#xf8;" horiz-adv-x="1157" 
d="M934 893q131 -143 131 -381t-133.5 -383t-351.5 -145q-188 0 -318 108l-84 -100l-45 33l90 106q-131 143 -131 381t134 383t354 145q188 0 315 -108l84 100l45 -33zM158 512q0 -203 108 -330l586 701q-110 96 -272 96q-190 0 -306 -128t-116 -339zM580 45q189 0 304 128
t115 339q0 203 -108 330l-586 -699q109 -98 275 -98z" />
    <glyph glyph-name="ugrave" unicode="&#xf9;" horiz-adv-x="1091" 
d="M602 1159h-53l-133 275h69zM877 1024h61v-1024h-61v264q-60 -136 -167.5 -208t-238.5 -72q-75 0 -133.5 24.5t-94.5 64.5t-59 96.5t-32 114.5t-9 124v616h62v-616q0 -50 6 -95.5t23.5 -96.5t46 -87t78 -60t114.5 -24q73 0 142 28.5t129 84.5t96.5 152t36.5 218v496z" />
    <glyph glyph-name="uacute" unicode="&#xfa;" horiz-adv-x="1091" 
d="M647 1434l-133 -275h-53l117 275h69zM877 1024h61v-1024h-61v264q-60 -136 -167.5 -208t-238.5 -72q-75 0 -133.5 24.5t-94.5 64.5t-59 96.5t-32 114.5t-9 124v616h62v-616q0 -50 6 -95.5t23.5 -96.5t46 -87t78 -60t114.5 -24q73 0 142 28.5t129 84.5t96.5 152t36.5 218
v496z" />
    <glyph glyph-name="ucircumflex" unicode="&#xfb;" horiz-adv-x="1091" 
d="M535 1376l-150 -217h-72l195 275h49l209 -275h-72zM877 1024h61v-1024h-61v264q-60 -136 -167.5 -208t-238.5 -72q-75 0 -133.5 24.5t-94.5 64.5t-59 96.5t-32 114.5t-9 124v616h62v-616q0 -50 6 -95.5t23.5 -96.5t46 -87t78 -60t114.5 -24q73 0 142 28.5t129 84.5
t96.5 152t36.5 218v496z" />
    <glyph glyph-name="udieresis" unicode="&#xfc;" horiz-adv-x="1091" 
d="M367 1219q-28 0 -46 17.5t-18 45.5t18 46t46 18t45.5 -18t17.5 -46t-17.5 -45.5t-45.5 -17.5zM715 1219q-28 0 -46 17.5t-18 45.5t18 46t46 18t45.5 -18t17.5 -46t-17.5 -45.5t-45.5 -17.5zM877 1024h61v-1024h-61v264q-60 -136 -167.5 -208t-238.5 -72
q-75 0 -133.5 24.5t-94.5 64.5t-59 96.5t-32 114.5t-9 124v616h62v-616q0 -50 6 -95.5t23.5 -96.5t46 -87t78 -60t114.5 -24q73 0 142 28.5t129 84.5t96.5 152t36.5 218v496z" />
    <glyph glyph-name="yacute" unicode="&#xfd;" horiz-adv-x="952" 
d="M584 1434l-133 -275h-54l117 275h70zM864 1024h68l-408 -1174q-97 -276 -352 -276q-88 0 -152 33v61q65 -33 146 -33q95 0 174.5 54t116.5 166l22 69l-444 1100h71l408 -1008z" />
    <glyph glyph-name="thorn" unicode="&#xfe;" horiz-adv-x="1183" 
d="M621 1040q212 0 341.5 -145t129.5 -383t-129.5 -383t-341.5 -145q-140 0 -246 69.5t-160 194.5v-658h-61v1844h61v-658q54 125 160 194.5t246 69.5zM618 45q184 0 296 128t112 339t-111 339t-294 128q-186 0 -299 -128t-113 -339q0 -212 113 -339.5t296 -127.5z" />
    <glyph glyph-name="ydieresis" unicode="&#xff;" horiz-adv-x="952" 
d="M303 1219q-28 0 -45.5 17.5t-17.5 45.5t17.5 46t45.5 18t46 -18t18 -46t-18 -45.5t-46 -17.5zM651 1219q-28 0 -45.5 17.5t-17.5 45.5t17.5 46t45.5 18t46 -18t18 -46t-18 -45.5t-46 -17.5zM864 1024h68l-408 -1174q-97 -276 -352 -276q-88 0 -152 33v61q65 -33 146 -33
q95 0 174.5 54t116.5 166l22 69l-444 1100h71l408 -1008z" />
    <glyph glyph-name="Amacron" unicode="&#x100;" horiz-adv-x="1318" 
d="M930 1614v-58h-543v58h543zM1198 0l-172 436h-733l-172 -436h-70l574 1434h69l574 -1434h-70zM315 494h689l-345 872z" />
    <glyph glyph-name="amacron" unicode="&#x101;" horiz-adv-x="1081" 
d="M803 1282v-57h-522v57h522zM547 1040q391 0 391 -475v-565h-61v252q-55 -124 -164.5 -196t-263.5 -72q-161 0 -259 77t-98 213q0 155 124.5 247.5t326.5 92.5q172 0 334 -61v12q0 69 -8 125.5t-30.5 111.5t-59 93t-96.5 61t-140 23q-162 0 -250 -86t-55 -234h-66
q-38 166 70 273.5t305 107.5zM453 45q130 0 227.5 60t146.5 159.5t50 222.5q-151 66 -330 66q-175 0 -282 -75t-107 -202q0 -108 81 -169.5t214 -61.5z" />
    <glyph glyph-name="Abreve" unicode="&#x102;" horiz-adv-x="1318" 
d="M659 1499q-109 0 -184.5 53t-75.5 148h56q0 -65 51.5 -105.5t152.5 -40.5t151 40.5t50 105.5h58q0 -95 -74.5 -148t-184.5 -53zM1198 0l-172 436h-733l-172 -436h-70l574 1434h69l574 -1434h-70zM315 494h689l-345 872z" />
    <glyph glyph-name="abreve" unicode="&#x103;" horiz-adv-x="1081" 
d="M545 1188q-114 0 -192.5 64.5t-78.5 181.5h62q0 -88 52.5 -138.5t156.5 -50.5t154.5 50.5t50.5 138.5h61q0 -118 -76 -182t-190 -64zM547 1040q391 0 391 -475v-565h-61v252q-55 -124 -164.5 -196t-263.5 -72q-161 0 -259 77t-98 213q0 155 124.5 247.5t326.5 92.5
q172 0 334 -61v12q0 69 -8 125.5t-30.5 111.5t-59 93t-96.5 61t-140 23q-162 0 -250 -86t-55 -234h-66q-38 166 70 273.5t305 107.5zM453 45q130 0 227.5 60t146.5 159.5t50 222.5q-151 66 -330 66q-175 0 -282 -75t-107 -202q0 -108 81 -169.5t214 -61.5z" />
    <glyph glyph-name="Aogonek" unicode="&#x104;" horiz-adv-x="1318" 
d="M1225 0q-113 -31 -177.5 -101.5t-64.5 -142.5q0 -54 36.5 -89.5t94.5 -35.5q60 0 111 35v-61q-40 -31 -115 -31q-85 0 -135.5 50t-50.5 124q0 89 70.5 164.5t191.5 116.5l-160 407h-733l-172 -436h-70l574 1434h69l574 -1434h-43zM315 494h689l-345 872z" />
    <glyph glyph-name="aogonek" unicode="&#x105;" horiz-adv-x="1081" 
d="M547 1040q391 0 391 -475v-565q-113 -31 -177.5 -101.5t-64.5 -142.5q0 -54 36.5 -89.5t94.5 -35.5q60 0 111 35v-61q-40 -31 -115 -31q-85 0 -135.5 50t-50.5 124q0 84 64.5 156.5t175.5 115.5v232q-55 -124 -164.5 -196t-263.5 -72q-161 0 -259 77t-98 213
q0 155 124.5 247.5t326.5 92.5q172 0 334 -61v12q0 69 -8 125.5t-30.5 111.5t-59 93t-96.5 61t-140 23q-162 0 -250 -86t-55 -234h-66q-38 166 70 273.5t305 107.5zM453 45q130 0 227.5 60t146.5 159.5t50 222.5q-151 66 -330 66q-175 0 -282 -75t-107 -202
q0 -108 81 -169.5t214 -61.5z" />
    <glyph glyph-name="Cacute" unicode="&#x106;" horiz-adv-x="1536" 
d="M748 1507l116 193h68l-127 -193h-57zM819 -16q-199 0 -355.5 93.5t-243.5 262t-87 383.5q0 160 50.5 296t139.5 230.5t213.5 147.5t268.5 53q138 0 253 -46t189 -126t107.5 -191t15.5 -237h-65q30 240 -111.5 389.5t-388.5 149.5q-175 0 -312.5 -83t-215.5 -235.5
t-78 -347.5q0 -299 173.5 -488.5t448.5 -189.5q118 0 214.5 38t162 105t107 150t61.5 182h68q-20 -112 -67.5 -207t-122 -169.5t-183.5 -117t-242 -42.5z" />
    <glyph glyph-name="cacute" unicode="&#x107;" horiz-adv-x="1155" 
d="M500 1159l116 275h70l-133 -275h-53zM580 -16q-220 0 -354 146.5t-134 385.5q0 236 134 380t354 144q213 0 335 -131t97 -331h-66q20 184 -83 292.5t-283 108.5q-191 0 -306.5 -127t-115.5 -336q0 -212 116 -341.5t306 -129.5q154 0 263 88.5t142 245.5h68
q-35 -179 -160 -287t-313 -108z" />
    <glyph glyph-name="Cdotaccent" unicode="&#x10a;" horiz-adv-x="1536" 
d="M805 1563q-26 0 -44 17.5t-18 43.5t18 44t44 18t43.5 -18t17.5 -44t-17.5 -43.5t-43.5 -17.5zM819 -16q-199 0 -355.5 93.5t-243.5 262t-87 383.5q0 160 50.5 296t139.5 230.5t213.5 147.5t268.5 53q138 0 253 -46t189 -126t107.5 -191t15.5 -237h-65
q30 240 -111.5 389.5t-388.5 149.5q-175 0 -312.5 -83t-215.5 -235.5t-78 -347.5q0 -299 173.5 -488.5t448.5 -189.5q118 0 214.5 38t162 105t107 150t61.5 182h68q-20 -112 -67.5 -207t-122 -169.5t-183.5 -117t-242 -42.5z" />
    <glyph glyph-name="cdotaccent" unicode="&#x10b;" horiz-adv-x="1155" 
d="M580 1221q-26 0 -44 17.5t-18 43.5t18 43.5t44 17.5t43.5 -17.5t17.5 -43.5t-17.5 -43.5t-43.5 -17.5zM580 -16q-220 0 -354 146.5t-134 385.5q0 236 134 380t354 144q213 0 335 -131t97 -331h-66q20 184 -83 292.5t-283 108.5q-191 0 -306.5 -127t-115.5 -336
q0 -212 116 -341.5t306 -129.5q154 0 263 88.5t142 245.5h68q-35 -179 -160 -287t-313 -108z" />
    <glyph glyph-name="Ccaron" unicode="&#x10c;" horiz-adv-x="1536" 
d="M821 1507h-49l-231 193h75l183 -150l192 150h76zM1366 520h68q-20 -112 -67.5 -207t-122 -169.5t-183.5 -117t-242 -42.5q-199 0 -355.5 93.5t-243.5 262t-87 383.5q0 160 50.5 296t139.5 230.5t213.5 147.5t268.5 53q138 0 253 -46t189 -126t107.5 -191t15.5 -237h-65
q30 240 -111.5 389.5t-388.5 149.5q-175 0 -312.5 -83t-215.5 -235.5t-78 -347.5q0 -299 173.5 -488.5t448.5 -189.5q118 0 214.5 38t162 105t107 150t61.5 182z" />
    <glyph glyph-name="ccaron" unicode="&#x10d;" horiz-adv-x="1155" 
d="M598 1159h-49l-195 275h72l147 -220l162 220h72zM985 379h68q-35 -179 -160 -287t-313 -108q-220 0 -354 146.5t-134 385.5q0 236 134 380t354 144q213 0 335 -131t97 -331h-66q20 184 -83 292.5t-283 108.5q-191 0 -306.5 -127t-115.5 -336q0 -212 116 -341.5
t306 -129.5q154 0 263 88.5t142 245.5z" />
    <glyph glyph-name="Dcaron" unicode="&#x10e;" horiz-adv-x="1441" 
d="M748 1507h-50l-231 193h76l182 -150l193 150h75zM655 1434q198 0 351 -88t238 -251.5t85 -377.5q0 -321 -183.5 -519t-486.5 -198h-444v1434h440zM659 57q272 0 438.5 182t166.5 480q0 296 -166 476.5t-436 180.5h-386v-1319h383z" />
    <glyph glyph-name="dcaron" unicode="&#x10f;" horiz-adv-x="1183" 
d="M969 768v666h61v-1434h-61v256q-55 -129 -161 -200.5t-249 -71.5q-207 0 -337 144t-130 384q0 237 129.5 382.5t339.5 145.5q143 0 249 -71.5t159 -200.5zM1133 1434h73l-45 -373h-49zM563 45q186 0 299 128t113 339t-113 339t-299 128q-183 0 -294 -128t-111 -339
t111 -339t294 -128z" />
    <glyph glyph-name="Dcroat" unicode="&#x110;" horiz-adv-x="1482" 
d="M696 1434q198 0 351 -88t238 -251.5t85 -377.5q0 -321 -183.5 -519t-486.5 -198h-444v690h-135v53h135v691h440zM700 57q272 0 438.5 182t166.5 480q0 296 -166.5 476.5t-436.5 180.5h-385v-633h340v-53h-340v-633h383z" />
    <glyph glyph-name="dcroat" unicode="&#x111;" horiz-adv-x="1204" 
d="M1149 1255v-53h-119v-1202h-61v256q-55 -129 -161 -200.5t-249 -71.5q-207 0 -337 144t-130 384q0 237 129.5 382.5t339.5 145.5q143 0 249 -71.5t159 -200.5v434h-312v53h312v179h61v-179h119zM563 45q186 0 299 128t113 339t-113 339t-299 128q-183 0 -294 -128
t-111 -339t111 -339t294 -128z" />
    <glyph glyph-name="Emacron" unicode="&#x112;" horiz-adv-x="1280" 
d="M946 1614v-58h-543v58h543zM276 57h871v-57h-932v1434h911v-58h-850v-588h742v-57h-742v-674z" />
    <glyph glyph-name="emacron" unicode="&#x113;" horiz-adv-x="1122" 
d="M821 1282v-57h-522v57h522zM958 297h72q-57 -146 -179.5 -229.5t-281.5 -83.5q-211 0 -344 145.5t-133 384.5q0 238 134 382t349 144q83 0 155.5 -23t126 -63t92 -95.5t56 -120t15 -138t-28.5 -147.5h-831q19 -186 130.5 -297t280.5 -111q129 0 232.5 67t154.5 185z
M578 979q-188 0 -304 -127.5t-116 -337.5v-4h786q28 123 -8 230.5t-131 173t-227 65.5z" />
    <glyph glyph-name="Ebreve" unicode="&#x114;" horiz-adv-x="1280" 
d="M676 1499q-109 0 -184.5 53t-75.5 148h55q0 -65 52 -105.5t153 -40.5t151 40.5t50 105.5h57q0 -96 -74 -148.5t-184 -52.5zM276 57h871v-57h-932v1434h911v-58h-850v-588h742v-57h-742v-674z" />
    <glyph glyph-name="ebreve" unicode="&#x115;" horiz-adv-x="1122" 
d="M563 1188q-114 0 -192 64.5t-78 181.5h61q0 -88 52.5 -138.5t156.5 -50.5t154.5 50.5t50.5 138.5h61q0 -118 -76 -182t-190 -64zM958 297h72q-57 -146 -179.5 -229.5t-281.5 -83.5q-211 0 -344 145.5t-133 384.5q0 238 134 382t349 144q83 0 155.5 -23t126 -63t92 -95.5
t56 -120t15 -138t-28.5 -147.5h-831q19 -186 130.5 -297t280.5 -111q129 0 232.5 67t154.5 185zM578 979q-188 0 -304 -127.5t-116 -337.5v-4h786q28 123 -8 230.5t-131 173t-227 65.5z" />
    <glyph glyph-name="Edotaccent" unicode="&#x116;" horiz-adv-x="1280" 
d="M676 1563q-26 0 -44 17.5t-18 43.5t18 44t44 18t43.5 -18t17.5 -44t-17.5 -43.5t-43.5 -17.5zM276 57h871v-57h-932v1434h911v-58h-850v-588h742v-57h-742v-674z" />
    <glyph glyph-name="edotaccent" unicode="&#x117;" horiz-adv-x="1122" 
d="M561 1221q-26 0 -43.5 17.5t-17.5 43.5t17.5 43.5t43.5 17.5t44 -17.5t18 -43.5t-18 -43.5t-44 -17.5zM958 297h72q-57 -146 -179.5 -229.5t-281.5 -83.5q-211 0 -344 145.5t-133 384.5q0 238 134 382t349 144q83 0 155.5 -23t126 -63t92 -95.5t56 -120t15 -138
t-28.5 -147.5h-831q19 -186 130.5 -297t280.5 -111q129 0 232.5 67t154.5 185zM578 979q-188 0 -304 -127.5t-116 -337.5v-4h786q28 123 -8 230.5t-131 173t-227 65.5z" />
    <glyph glyph-name="Eogonek" unicode="&#x118;" horiz-adv-x="1280" 
d="M276 57h871v-57q-113 -31 -177.5 -101.5t-64.5 -142.5q0 -54 36.5 -89.5t94.5 -35.5q60 0 111 35v-61q-40 -31 -115 -31q-85 0 -135.5 50t-50.5 124q0 75 51.5 141.5t142.5 110.5h-825v1434h911v-58h-850v-588h742v-57h-742v-674z" />
    <glyph glyph-name="eogonek" unicode="&#x119;" horiz-adv-x="1122" 
d="M727 -236q0 -52 24 -85t60.5 -42t78.5 -2t79 29v-61q-45 -29 -115 -29q-85 0 -135.5 50.5t-50.5 135.5q0 31 8.5 61.5t17.5 51.5t33 53t35 45t44.5 49.5t41.5 45.5q-124 -82 -279 -82q-211 0 -344 145.5t-133 384.5q0 238 134 382t349 144q83 0 155.5 -23t126 -63
t92 -95.5t56 -120t15 -138t-28.5 -147.5h-831q19 -186 130.5 -297t280.5 -111q129 0 232.5 67t154.5 185h72q-18 -58 -56.5 -118.5t-79 -109.5t-79.5 -98t-63.5 -102t-24.5 -105zM578 979q-188 0 -304 -127.5t-116 -337.5v-4h786q28 123 -8 230.5t-131 173t-227 65.5z" />
    <glyph glyph-name="Ecaron" unicode="&#x11a;" horiz-adv-x="1280" 
d="M692 1507h-49l-231 193h75l183 -150l192 150h76zM276 57h871v-57h-932v1434h911v-58h-850v-588h742v-57h-742v-674z" />
    <glyph glyph-name="ecaron" unicode="&#x11b;" horiz-adv-x="1122" 
d="M580 1159h-50l-194 275h72l147 -220l162 220h71zM958 297h72q-57 -146 -179.5 -229.5t-281.5 -83.5q-211 0 -344 145.5t-133 384.5q0 238 134 382t349 144q83 0 155.5 -23t126 -63t92 -95.5t56 -120t15 -138t-28.5 -147.5h-831q19 -186 130.5 -297t280.5 -111
q129 0 232.5 67t154.5 185zM578 979q-188 0 -304 -127.5t-116 -337.5v-4h786q28 123 -8 230.5t-131 173t-227 65.5z" />
    <glyph glyph-name="Gcircumflex" unicode="&#x11c;" horiz-adv-x="1529" 
d="M811 1655l-180 -148h-82l235 193h50l249 -193h-82zM1479 709v-58h-418q132 -26 202 -104t70 -201q0 -166 -129 -264t-358 -98q-172 0 -309.5 57t-224.5 157t-133 232t-46 287q0 152 45 284.5t129.5 233t215.5 158t292 57.5q256 0 399.5 -136t108.5 -356h-68
q22 137 -30 234t-157.5 143.5t-252.5 46.5q-150 0 -269 -51.5t-194 -142.5t-114 -211t-39 -260q0 -200 76 -351t223 -236t348 -85q203 0 312.5 83.5t109.5 217.5q0 141 -122 223t-331 82v58h664z" />
    <glyph glyph-name="gcircumflex" unicode="&#x11d;" horiz-adv-x="1128" 
d="M537 1376l-150 -217h-72l195 275h49l209 -275h-72zM578 193q117 0 215 -34t160.5 -105t62.5 -167q0 -138 -122 -225.5t-314 -87.5q-201 0 -330 100.5t-148 268.5h66q11 -139 123 -223.5t289 -84.5q164 0 267 70.5t103 181.5q0 110 -105 177t-274 67q-160 0 -317 -53v72
q343 60 534 229q-111 -78 -264 -78q-178 0 -294.5 102t-116.5 267t118.5 267.5t311.5 102.5q225 0 344 -135q39 8 56.5 50.5t11.5 96.5t-31 97h61q39 -88 21.5 -176t-80.5 -119q47 -80 47 -184q0 -152 -105 -276.5t-293 -200.5h3zM178 670q0 -138 100.5 -223t264.5 -85
t264 85t100 223q0 137 -99.5 223t-264.5 86q-164 0 -264.5 -85.5t-100.5 -223.5z" />
    <glyph glyph-name="Gbreve" unicode="&#x11e;" horiz-adv-x="1529" 
d="M817 1499q-109 0 -184.5 53t-75.5 148h55q0 -65 52 -105.5t153 -40.5t151 40.5t50 105.5h57q0 -96 -74 -148.5t-184 -52.5zM1479 709v-58h-418q132 -26 202 -104t70 -201q0 -166 -129 -264t-358 -98q-172 0 -309.5 57t-224.5 157t-133 232t-46 287q0 152 45 284.5
t129.5 233t215.5 158t292 57.5q256 0 399.5 -136t108.5 -356h-68q22 137 -30 234t-157.5 143.5t-252.5 46.5q-150 0 -269 -51.5t-194 -142.5t-114 -211t-39 -260q0 -200 76 -351t223 -236t348 -85q203 0 312.5 83.5t109.5 217.5q0 141 -122 223t-331 82v58h664z" />
    <glyph glyph-name="gbreve" unicode="&#x11f;" horiz-adv-x="1128" 
d="M545 1188q-114 0 -192.5 64.5t-78.5 181.5h62q0 -88 52.5 -138.5t156.5 -50.5t154.5 50.5t50.5 138.5h61q0 -118 -76 -182t-190 -64zM578 193q117 0 215 -34t160.5 -105t62.5 -167q0 -138 -122 -225.5t-314 -87.5q-201 0 -330 100.5t-148 268.5h66q11 -139 123 -223.5
t289 -84.5q164 0 267 70.5t103 181.5q0 110 -105 177t-274 67q-160 0 -317 -53v72q343 60 534 229q-111 -78 -264 -78q-178 0 -294.5 102t-116.5 267t118.5 267.5t311.5 102.5q225 0 344 -135q39 8 56.5 50.5t11.5 96.5t-31 97h61q39 -88 21.5 -176t-80.5 -119
q47 -80 47 -184q0 -152 -105 -276.5t-293 -200.5h3zM178 670q0 -138 100.5 -223t264.5 -85t264 85t100 223q0 137 -99.5 223t-264.5 86q-164 0 -264.5 -85.5t-100.5 -223.5z" />
    <glyph glyph-name="Gdotaccent" unicode="&#x120;" horiz-adv-x="1529" 
d="M817 1563q-26 0 -43.5 17.5t-17.5 43.5t17.5 44t43.5 18t44 -18t18 -44t-18 -43.5t-44 -17.5zM1479 709v-58h-418q132 -26 202 -104t70 -201q0 -166 -129 -264t-358 -98q-172 0 -309.5 57t-224.5 157t-133 232t-46 287q0 152 45 284.5t129.5 233t215.5 158t292 57.5
q256 0 399.5 -136t108.5 -356h-68q22 137 -30 234t-157.5 143.5t-252.5 46.5q-150 0 -269 -51.5t-194 -142.5t-114 -211t-39 -260q0 -200 76 -351t223 -236t348 -85q203 0 312.5 83.5t109.5 217.5q0 141 -122 223t-331 82v58h664z" />
    <glyph glyph-name="gdotaccent" unicode="&#x121;" horiz-adv-x="1128" 
d="M543 1221q-26 0 -44 17.5t-18 43.5t18 43.5t44 17.5t43.5 -17.5t17.5 -43.5t-17.5 -43.5t-43.5 -17.5zM578 193q117 0 215 -34t160.5 -105t62.5 -167q0 -138 -122 -225.5t-314 -87.5q-201 0 -330 100.5t-148 268.5h66q11 -139 123 -223.5t289 -84.5q164 0 267 70.5
t103 181.5q0 110 -105 177t-274 67q-160 0 -317 -53v72q343 60 534 229q-111 -78 -264 -78q-178 0 -294.5 102t-116.5 267t118.5 267.5t311.5 102.5q225 0 344 -135q39 8 56.5 50.5t11.5 96.5t-31 97h61q39 -88 21.5 -176t-80.5 -119q47 -80 47 -184q0 -152 -105 -276.5
t-293 -200.5h3zM178 670q0 -138 100.5 -223t264.5 -85t264 85t100 223q0 137 -99.5 223t-264.5 86q-164 0 -264.5 -85.5t-100.5 -223.5z" />
    <glyph glyph-name="uni0122" unicode="&#x122;" horiz-adv-x="1529" 
d="M1479 709v-58h-418q132 -26 202 -104t70 -201q0 -166 -129 -264t-358 -98q-172 0 -309.5 57t-224.5 157t-133 232t-46 287q0 152 45 284.5t129.5 233t215.5 158t292 57.5q256 0 399.5 -136t108.5 -356h-68q22 137 -30 234t-157.5 143.5t-252.5 46.5q-150 0 -269 -51.5
t-194 -142.5t-114 -211t-39 -260q0 -200 76 -351t223 -236t348 -85q203 0 312.5 83.5t109.5 217.5q0 141 -122 223t-331 82v58h664zM852 -123q47 0 74.5 -38t27.5 -103q0 -81 -42.5 -121.5t-116.5 -40.5v45q106 0 106 111q0 33 -8 49q-16 -29 -53 -29q-28 0 -45 17t-17 45
q0 29 19 47t55 18z" />
    <glyph glyph-name="uni0123" unicode="&#x123;" horiz-adv-x="1128" 
d="M541 1151q-47 0 -75 38t-28 103q0 81 42.5 121.5t117.5 40.5v-45q-106 0 -106 -111q0 -33 8 -49q16 29 53 29q28 0 44.5 -16.5t16.5 -44.5q0 -29 -19 -47.5t-54 -18.5zM578 193q117 0 215 -34t160.5 -105t62.5 -167q0 -138 -122 -225.5t-314 -87.5q-201 0 -330 100.5
t-148 268.5h66q11 -139 123 -223.5t289 -84.5q164 0 267 70.5t103 181.5q0 110 -105 177t-274 67q-160 0 -317 -53v72q343 60 534 229q-111 -78 -264 -78q-178 0 -294.5 102t-116.5 267t118.5 267.5t311.5 102.5q225 0 344 -135q39 8 56.5 50.5t11.5 96.5t-31 97h61
q39 -88 21.5 -176t-80.5 -119q47 -80 47 -184q0 -152 -105 -276.5t-293 -200.5h3zM178 670q0 -138 100.5 -223t264.5 -85t264 85t100 223q0 137 -99.5 223t-264.5 86q-164 0 -264.5 -85.5t-100.5 -223.5z" />
    <glyph glyph-name="Hcircumflex" unicode="&#x124;" horiz-adv-x="1536" 
d="M762 1655l-180 -148h-82l235 193h49l250 -193h-82zM1260 1434h61v-1434h-61v737h-984v-737h-61v1434h61v-639h984v639z" />
    <glyph glyph-name="hcircumflex" unicode="&#x125;" horiz-adv-x="1110" 
d="M367 1507l-191 148l-180 -148h-82l236 193h49l250 -193h-82zM627 1040q340 0 340 -424v-616h-62v616q0 363 -280 363q-183 0 -296.5 -138.5t-113.5 -365.5v-475h-61v1434h61v-695q47 141 156.5 221t255.5 80z" />
    <glyph glyph-name="Hbar" unicode="&#x126;" horiz-adv-x="1576" 
d="M1452 1153v-53h-111v-1100h-61v737h-983v-737h-61v1100h-111v53h111v281h61v-281h983v281h61v-281h111zM1280 795v305h-983v-305h983z" />
    <glyph glyph-name="hbar" unicode="&#x127;" horiz-adv-x="1130" 
d="M647 1040q340 0 340 -424v-616h-61v616q0 363 -281 363q-183 0 -296 -138.5t-113 -365.5v-475h-62v1202h-113v53h113v179h62v-179h317v-53h-317v-463q47 141 156 221t255 80z" />
    <glyph glyph-name="Itilde" unicode="&#x128;" horiz-adv-x="491" 
d="M-6 1509q-23 76 11.5 125t103.5 49q40 0 79.5 -19t66.5 -42t63 -42t69 -19q83 0 53 120h56q20 -73 -9 -123.5t-100 -50.5q-39 0 -79 19t-67.5 42.5t-63.5 42.5t-68 19q-49 0 -64.5 -38.5t2.5 -82.5h-53zM215 0v1434h61v-1434h-61z" />
    <glyph glyph-name="itilde" unicode="&#x129;" horiz-adv-x="389" 
d="M-47 1196q-24 80 12.5 133t108.5 53q35 0 70.5 -20t60 -44.5t57 -44.5t62.5 -20q49 0 61.5 39.5t-4.5 89.5h57q21 -79 -8.5 -132.5t-105.5 -53.5q-36 0 -72 20t-60.5 44.5t-57 44.5t-60.5 20q-51 0 -68.5 -41.5t2.5 -87.5h-55zM164 0v1024h61v-1024h-61z" />
    <glyph glyph-name="Imacron" unicode="&#x12a;" horiz-adv-x="491" 
d="M-27 1556v58h543v-58h-543zM215 0v1434h61v-1434h-61z" />
    <glyph glyph-name="imacron" unicode="&#x12b;" horiz-adv-x="389" 
d="M4 1223v57h379v-57h-379zM164 0v1024h61v-1024h-61z" />
    <glyph glyph-name="Iogonek" unicode="&#x12e;" horiz-adv-x="491" 
d="M266 -369q58 0 109 35v-61q-40 -31 -111 -31q-87 0 -138.5 56.5t-51.5 140.5q0 136 141 252v1411h61v-1434q-66 -45 -104.5 -105t-38.5 -120q0 -63 36.5 -103.5t96.5 -40.5z" />
    <glyph glyph-name="iogonek" unicode="&#x12f;" horiz-adv-x="389" 
d="M195 1221q-26 0 -44 17.5t-18 43.5t18 43.5t44 17.5t43.5 -17.5t17.5 -43.5t-17.5 -43.5t-43.5 -17.5zM215 -369q58 0 109 35v-61q-40 -31 -111 -31q-87 0 -138.5 56.5t-51.5 140.5q0 136 141 252v1001h61v-1024q-66 -45 -104.5 -105t-38.5 -120q0 -63 36.5 -103.5
t96.5 -40.5z" />
    <glyph glyph-name="Idotaccent" unicode="&#x130;" horiz-adv-x="491" 
d="M246 1563q-26 0 -44 17.5t-18 43.5t18 44t44 18t43.5 -18t17.5 -44t-17.5 -43.5t-43.5 -17.5zM215 0v1434h61v-1434h-61z" />
    <glyph glyph-name="dotlessi" unicode="&#x131;" horiz-adv-x="389" 
d="M164 0v1024h61v-1024h-61z" />
    <glyph glyph-name="IJ" unicode="&#x132;" horiz-adv-x="999" 
d="M479 -16q-78 0 -140.5 23.5t-102 64.5t-63 96.5t-23.5 120.5t16 137h61q-44 -160 22.5 -270.5t229.5 -110.5q67 0 119 22.5t84.5 59t54 87t29.5 102.5t8 110v1008h62v-1008q0 -62 -8.5 -119t-33 -118t-63 -105t-103.5 -72t-149 -28zM164 575v859h61v-859h-61z" />
    <glyph glyph-name="ij" unicode="&#x133;" horiz-adv-x="847" 
d="M195 1221q-26 0 -44 17.5t-18 43.5t18 43.5t44 17.5t43.5 -17.5t17.5 -43.5t-17.5 -43.5t-43.5 -17.5zM655 1221q-26 0 -43.5 17.5t-17.5 43.5t17.5 43.5t43.5 17.5t44 -17.5t18 -43.5t-18 -43.5t-44 -17.5zM164 0v1024h61v-1024h-61zM516 -426q-67 0 -127 35v65
q64 -39 125 -39q31 0 53 12t32.5 27t16.5 39t6.5 37t0.5 33v1241h61v-1223q0 -227 -168 -227z" />
    <glyph glyph-name="Jcircumflex" unicode="&#x134;" horiz-adv-x="897" 
d="M719 1700l250 -193h-82l-191 148l-180 -148h-82l236 193h49zM672 426v1008h61v-1008q0 -62 -8.5 -119t-33 -118t-62.5 -104.5t-103 -72t-149 -28.5q-78 0 -140.5 23.5t-102.5 64.5t-63.5 96.5t-23.5 120.5t16 137h62q-44 -160 22.5 -270.5t229.5 -110.5q67 0 119 22.5
t84.5 59t54 87t29.5 102.5t8 110z" />
    <glyph glyph-name="jcircumflex" unicode="&#x135;" horiz-adv-x="458" 
d="M283 1434l209 -275h-72l-160 217l-149 -217h-72l194 275h50zM233 -217v1241h62v-1223q0 -227 -168 -227q-67 0 -127 35v65q64 -39 125 -39q31 0 53 12t32.5 27t16 39.5t6 37t0.5 32.5z" />
    <glyph glyph-name="uni0136" unicode="&#x136;" horiz-adv-x="1320" 
d="M625 846l645 -846h-78l-610 805l-306 -283v-522h-61v1434h61v-832l893 832h88zM670 -123q47 0 74.5 -38t27.5 -103q0 -81 -42.5 -121.5t-117.5 -40.5v45q107 0 107 111q0 33 -8 49q-16 -29 -54 -29q-28 0 -44.5 17t-16.5 45q0 29 19 47t55 18z" />
    <glyph glyph-name="uni0137" unicode="&#x137;" horiz-adv-x="1064" 
d="M580 377q166 -38 279.5 -134t150.5 -243h-66q-43 169 -204 260.5t-390 91.5v58q159 0 277.5 36.5t186 111t67.5 179.5q0 108 -67 175t-189 67q-177 0 -293.5 -140t-116.5 -364v-475h-61v1434h61v-699q49 144 159.5 224.5t254.5 80.5q147 0 232 -83t85 -218
q0 -143 -96.5 -235t-269.5 -127zM530 -123q47 0 75 -38t28 -103q0 -81 -42.5 -121.5t-117.5 -40.5v45q107 0 107 111q0 31 -9 49q-16 -29 -53 -29q-28 0 -44.5 17t-16.5 45q0 29 19 47t54 18z" />
    <glyph glyph-name="kgreenlandic" unicode="&#x138;" horiz-adv-x="1036" 
d="M903 0l-426 565l-262 -272v-293h-61v1024h61v-647l625 647h82l-406 -418l459 -606h-72z" />
    <glyph glyph-name="Lacute" unicode="&#x139;" horiz-adv-x="1239" 
d="M373 1700l-127 -193h-58l117 193h68zM276 57h871v-57h-932v1434h61v-1377z" />
    <glyph glyph-name="lacute" unicode="&#x13a;" horiz-adv-x="389" 
d="M115 1569l116 274h70l-133 -274h-53zM164 0v1434h61v-1434h-61z" />
    <glyph glyph-name="uni013B" unicode="&#x13b;" horiz-adv-x="1239" 
d="M276 57h871v-57h-932v1434h61v-1377zM606 -123q47 0 75 -38t28 -103q0 -81 -42.5 -121.5t-117.5 -40.5v45q106 0 106 111q0 33 -8 49q-16 -29 -53 -29q-28 0 -45 17t-17 45q0 29 19 47t55 18z" />
    <glyph glyph-name="uni013C" unicode="&#x13c;" horiz-adv-x="389" 
d="M225 1434v-1434h-61v1434h61zM201 -123q47 0 74.5 -38t27.5 -103q0 -81 -42.5 -121.5t-117.5 -40.5v45q107 0 107 111q0 33 -8 49q-16 -29 -54 -29q-28 0 -44.5 17t-16.5 45q0 29 19 47t55 18z" />
    <glyph glyph-name="Lcaron" unicode="&#x13d;" horiz-adv-x="1239" 
d="M276 57h871v-57h-932v1434h61v-1377zM653 1434l-45 -373h-49l21 373h73z" />
    <glyph glyph-name="lcaron" unicode="&#x13e;" horiz-adv-x="389" 
d="M164 0v1434h61v-1434h-61zM307 1061l21 373h73l-45 -373h-49z" />
    <glyph glyph-name="Ldot" unicode="&#x13f;" horiz-adv-x="1239" 
d="M276 57h871v-57h-932v1434h61v-1377zM881 690q-26 0 -44 18t-18 44t18 43.5t44 17.5t43.5 -17.5t17.5 -43.5t-17.5 -44t-43.5 -18z" />
    <glyph glyph-name="ldot" unicode="&#x140;" horiz-adv-x="491" 
d="M164 0v1434h61v-1434h-61zM440 625q-26 0 -43.5 17.5t-17.5 43.5t17.5 44t43.5 18t44 -18t18 -44t-18 -43.5t-44 -17.5z" />
    <glyph glyph-name="Lslash" unicode="&#x141;" horiz-adv-x="1280" 
d="M317 57h871v-57h-932v664l-178 -101v62l178 100v709h61v-680l424 233v-61l-424 -234v-635z" />
    <glyph glyph-name="lslash" unicode="&#x142;" horiz-adv-x="471" 
d="M459 944v-67l-193 -185v-692h-61v639l-172 -166v68l172 166v727h61v-674z" />
    <glyph glyph-name="Nacute" unicode="&#x143;" horiz-adv-x="1503" 
d="M899 1700l-127 -193h-57l116 193h68zM1227 1434h61v-1434h-102l-910 1386v-1386h-61v1434h102l910 -1389v1389z" />
    <glyph glyph-name="nacute" unicode="&#x144;" horiz-adv-x="1110" 
d="M641 1434l-133 -275h-53l116 275h70zM627 1040q55 0 101 -12t79 -30.5t59 -47.5t42.5 -56t28.5 -64t17.5 -63t8.5 -61t3.5 -51t0.5 -39v-616h-62v608q0 371 -284 371q-180 0 -293 -137t-113 -367v-475h-61v1024h61v-272q50 135 159 211.5t253 76.5z" />
    <glyph glyph-name="uni0145" unicode="&#x145;" horiz-adv-x="1503" 
d="M1227 1434h61v-1434h-102l-910 1386v-1386h-61v1434h102l910 -1389v1389zM772 -123q47 0 74.5 -38t27.5 -103q0 -81 -42.5 -121.5t-116.5 -40.5v45q106 0 106 111q0 33 -8 49q-16 -29 -53 -29q-28 0 -45 17t-17 45q0 29 19 47t55 18z" />
    <glyph glyph-name="uni0146" unicode="&#x146;" horiz-adv-x="1110" 
d="M627 1040q55 0 101 -12t79 -30.5t59 -47.5t42.5 -56t28.5 -64t17.5 -63t8.5 -61t3.5 -51t0.5 -39v-616h-62v608q0 371 -284 371q-180 0 -293 -137t-113 -367v-475h-61v1024h61v-272q50 135 159 211.5t253 76.5zM571 -123q47 0 75 -38t28 -103q0 -81 -42.5 -121.5
t-117.5 -40.5v45q107 0 107 111q0 31 -9 49q-16 -29 -53 -29q-28 0 -44.5 17t-16.5 45q0 29 19 47t54 18z" />
    <glyph glyph-name="Ncaron" unicode="&#x147;" horiz-adv-x="1503" 
d="M788 1507h-49l-231 193h76l182 -150l192 150h76zM1227 1434h61v-1434h-102l-910 1386v-1386h-61v1434h102l910 -1389v1389z" />
    <glyph glyph-name="ncaron" unicode="&#x148;" horiz-adv-x="1110" 
d="M553 1159h-49l-195 275h72l147 -220l162 220h72zM627 1040q55 0 101 -12t79 -30.5t59 -47.5t42.5 -56t28.5 -64t17.5 -63t8.5 -61t3.5 -51t0.5 -39v-616h-62v608q0 371 -284 371q-180 0 -293 -137t-113 -367v-475h-61v1024h61v-272q50 135 159 211.5t253 76.5z" />
    <glyph glyph-name="Eng" unicode="&#x14a;" horiz-adv-x="1441" 
d="M788 1450q240 0 380.5 -196.5t140.5 -522.5q0 -345 -127 -546t-346 -201q-174 0 -246.5 123.5t-24.5 318.5h62q-24 -75 -21.5 -144t25.5 -121.5t76 -84t129 -31.5q130 0 222.5 86t138.5 239.5t46 360.5q0 298 -122 478t-333 180q-145 0 -262 -86.5t-183.5 -242
t-66.5 -349.5v-711h-61v1434h61v-402q63 196 198 307t314 111z" />
    <glyph glyph-name="eng" unicode="&#x14b;" horiz-adv-x="1110" 
d="M627 1040q55 0 101 -12t79 -30.5t59 -47.5t42.5 -56t28.5 -64t17.5 -63t8.5 -61t3.5 -51t0.5 -39v-835q0 -98 -45 -152.5t-123 -54.5q-67 0 -127 35v65q64 -39 125 -39q31 0 53 12t32.5 27t16 39.5t6 37t0.5 32.5v825q0 371 -284 371q-180 0 -293 -137t-113 -367v-475
h-61v1024h61v-272q50 135 159 211.5t253 76.5z" />
    <glyph glyph-name="Omacron" unicode="&#x14c;" horiz-adv-x="1624" 
d="M541 1556v58h542v-58h-542zM813 -16q-196 0 -351.5 93.5t-242 261.5t-86.5 380q0 211 86.5 378t242 260t351.5 93t351 -93t241 -260t86 -378q0 -212 -86 -380t-241 -261.5t-351 -93.5zM813 45q176 0 315.5 86t218 240t78.5 348q0 193 -78.5 346t-218 238.5t-315.5 85.5
q-177 0 -317 -85.5t-218.5 -238.5t-78.5 -346q0 -194 78.5 -348t218.5 -240t317 -86z" />
    <glyph glyph-name="omacron" unicode="&#x14d;" horiz-adv-x="1157" 
d="M317 1225v57h523v-57h-523zM580 -16q-220 0 -354 145t-134 383t134 383t354 145q218 0 351.5 -145t133.5 -383t-133.5 -383t-351.5 -145zM580 45q189 0 304 128t115 339t-115 339t-304 128q-190 0 -306 -128t-116 -339t116 -339t306 -128z" />
    <glyph glyph-name="Obreve" unicode="&#x14e;" horiz-adv-x="1624" 
d="M813 1499q-109 0 -184.5 53t-75.5 148h55q0 -65 52 -105.5t153 -40.5t151 40.5t50 105.5h57q0 -96 -74 -148.5t-184 -52.5zM813 -16q-196 0 -351.5 93.5t-242 261.5t-86.5 380q0 211 86.5 378t242 260t351.5 93t351 -93t241 -260t86 -378q0 -212 -86 -380t-241 -261.5
t-351 -93.5zM813 45q176 0 315.5 86t218 240t78.5 348q0 193 -78.5 346t-218 238.5t-315.5 85.5q-177 0 -317 -85.5t-218.5 -238.5t-78.5 -346q0 -194 78.5 -348t218.5 -240t317 -86z" />
    <glyph glyph-name="obreve" unicode="&#x14f;" horiz-adv-x="1157" 
d="M582 1188q-114 0 -192.5 64.5t-78.5 181.5h62q0 -88 52.5 -138.5t156.5 -50.5t154 50.5t50 138.5h62q0 -118 -76 -182t-190 -64zM580 -16q-220 0 -354 145t-134 383t134 383t354 145q218 0 351.5 -145t133.5 -383t-133.5 -383t-351.5 -145zM580 45q189 0 304 128t115 339
t-115 339t-304 128q-190 0 -306 -128t-116 -339t116 -339t306 -128z" />
    <glyph glyph-name="Ohungarumlaut" unicode="&#x150;" horiz-adv-x="1624" 
d="M698 1507l97 193h61l-106 -193h-52zM846 1507l108 193h62l-119 -193h-51zM813 -16q-196 0 -351.5 93.5t-242 261.5t-86.5 380q0 211 86.5 378t242 260t351.5 93t351 -93t241 -260t86 -378q0 -212 -86 -380t-241 -261.5t-351 -93.5zM813 45q176 0 315.5 86t218 240
t78.5 348q0 193 -78.5 346t-218 238.5t-315.5 85.5q-177 0 -317 -85.5t-218.5 -238.5t-78.5 -346q0 -194 78.5 -348t218.5 -240t317 -86z" />
    <glyph glyph-name="ohungarumlaut" unicode="&#x151;" horiz-adv-x="1157" 
d="M436 1159l117 275h61l-127 -275h-51zM594 1159l117 275h61l-127 -275h-51zM580 -16q-220 0 -354 145t-134 383t134 383t354 145q218 0 351.5 -145t133.5 -383t-133.5 -383t-351.5 -145zM580 45q189 0 304 128t115 339t-115 339t-304 128q-190 0 -306 -128t-116 -339
t116 -339t306 -128z" />
    <glyph glyph-name="OE" unicode="&#x152;" horiz-adv-x="2494" 
d="M1491 57h870v-57h-931v397q-79 -191 -242.5 -302t-374.5 -111q-193 0 -348.5 94t-243.5 262t-88 379t88 378t243.5 260t348.5 93q212 0 375 -110.5t242 -301.5v396h911v-58h-850v-588h741v-57h-741v-674zM813 45q131 0 245 49.5t196 137.5t129 214t47 273t-47 272.5
t-129 212.5t-196 136t-245 49q-175 0 -314.5 -83.5t-219.5 -237t-80 -349.5t80 -350.5t219.5 -239t314.5 -84.5z" />
    <glyph glyph-name="oe" unicode="&#x153;" horiz-adv-x="2029" 
d="M1866 297h71q-57 -146 -179 -229.5t-281 -83.5q-158 0 -276 85t-169 234q-51 -150 -169.5 -234.5t-282.5 -84.5q-220 0 -354 145t-134 383t134 383t354 145q164 0 282.5 -84t169.5 -233q51 150 170 233.5t281 83.5q83 0 155 -23t126 -63t92 -95.5t56 -120t15 -138
t-29 -147.5h-831q19 -186 131 -297t281 -111q129 0 232.5 67t154.5 185zM580 45q189 0 304 128t115 339t-115 339t-304 128q-190 0 -306 -128t-116 -339t116 -339t306 -128zM1485 979q-188 0 -304 -127.5t-116 -337.5v-4h786q28 123 -8 230.5t-131 173t-227 65.5z" />
    <glyph glyph-name="Racute" unicode="&#x154;" horiz-adv-x="1415" 
d="M846 1700l-127 -193h-57l116 193h68zM967 725q65 -21 116 -61t84 -97.5t55.5 -119t34.5 -142t17.5 -149t7.5 -156.5h-61q-3 83 -8.5 146.5t-17 139t-29 131t-46 110.5t-66.5 89.5t-92.5 56t-121.5 21.5h-564v-694h-61v1434h627q197 0 306 -94t109 -257q0 -135 -75 -229
t-215 -129zM276 752h480q209 0 322.5 83t113.5 240q0 142 -91.5 221.5t-260.5 79.5h-564v-624z" />
    <glyph glyph-name="racute" unicode="&#x155;" horiz-adv-x="823" 
d="M578 1434l-134 -275h-53l117 275h70zM532 1040q105 0 172.5 -68t67.5 -175q0 -77 -35 -152h-65q35 75 35 152q0 80 -49 131t-128 51q-132 0 -223.5 -134.5t-91.5 -346.5v-498h-61v1024h61v-238q47 119 131 186.5t186 67.5z" />
    <glyph glyph-name="uni0156" unicode="&#x156;" horiz-adv-x="1415" 
d="M967 725q65 -21 116 -61t84 -97.5t55.5 -119t34.5 -142t17.5 -149t7.5 -156.5h-61q-3 83 -8.5 146.5t-17 139t-29 131t-46 110.5t-66.5 89.5t-92.5 56t-121.5 21.5h-564v-694h-61v1434h627q197 0 306 -94t109 -257q0 -135 -75 -229t-215 -129zM276 752h480
q209 0 322.5 83t113.5 240q0 142 -91.5 221.5t-260.5 79.5h-564v-624zM735 -123q47 0 75 -38t28 -103q0 -81 -42.5 -121.5t-117.5 -40.5v45q106 0 106 111q0 33 -8 49q-16 -29 -53 -29q-28 0 -44.5 17t-16.5 45q0 29 19 47t54 18z" />
    <glyph glyph-name="uni0157" unicode="&#x157;" horiz-adv-x="823" 
d="M532 1040q105 0 172.5 -68t67.5 -175q0 -77 -35 -152h-65q35 75 35 152q0 80 -49 131t-128 51q-132 0 -223.5 -134.5t-91.5 -346.5v-498h-61v1024h61v-238q47 119 131 186.5t186 67.5zM193 -123q47 0 74.5 -38t27.5 -103q0 -81 -42.5 -121.5t-117.5 -40.5v45
q107 0 107 111q0 31 -9 49q-16 -29 -53 -29q-28 0 -44.5 17t-16.5 45q0 29 19 47t55 18z" />
    <glyph glyph-name="Rcaron" unicode="&#x158;" horiz-adv-x="1415" 
d="M735 1507h-49l-231 193h75l183 -150l192 150h76zM967 725q65 -21 116 -61t84 -97.5t55.5 -119t34.5 -142t17.5 -149t7.5 -156.5h-61q-3 83 -8.5 146.5t-17 139t-29 131t-46 110.5t-66.5 89.5t-92.5 56t-121.5 21.5h-564v-694h-61v1434h627q197 0 306 -94t109 -257
q0 -135 -75 -229t-215 -129zM276 752h480q209 0 322.5 83t113.5 240q0 142 -91.5 221.5t-260.5 79.5h-564v-624z" />
    <glyph glyph-name="rcaron" unicode="&#x159;" horiz-adv-x="823" 
d="M489 1159h-49l-194 275h71l148 -220l162 220h71zM532 1040q105 0 172.5 -68t67.5 -175q0 -77 -35 -152h-65q35 75 35 152q0 80 -49 131t-128 51q-132 0 -223.5 -134.5t-91.5 -346.5v-498h-61v1024h61v-238q47 119 131 186.5t186 67.5z" />
    <glyph glyph-name="Sacute" unicode="&#x15a;" horiz-adv-x="1347" 
d="M616 1507l117 193h68l-127 -193h-58zM690 -16q-268 0 -418.5 135.5t-138.5 365.5h66q-7 -214 128 -327t363 -113q207 0 333 91t126 245q0 76 -33.5 131t-90.5 86t-131 52t-155.5 34.5t-162.5 27.5t-155 37.5t-131 58.5t-90.5 95.5t-33.5 143.5q0 180 143 291.5t367 111.5
q125 0 227 -37.5t167.5 -102.5t93.5 -156t10 -196h-66q30 192 -92.5 311.5t-339.5 119.5q-192 0 -318.5 -94t-126.5 -242q0 -73 33.5 -124.5t90.5 -81t131 -49t155 -33t162.5 -28t155.5 -39t131 -61.5t90.5 -100.5t33.5 -149.5q0 -187 -143.5 -295t-380.5 -108z" />
    <glyph glyph-name="sacute" unicode="&#x15b;" horiz-adv-x="1052" 
d="M465 1159l117 275h69l-133 -275h-53zM543 -16q-214 0 -328 112.5t-100 302.5h65q-14 -163 84 -260.5t279 -97.5q151 0 241 65.5t90 167.5q0 64 -40 106t-104.5 62.5t-142 34.5t-155.5 31t-142.5 42.5t-104.5 78t-40 129.5q0 131 106 206.5t269 75.5q200 0 306 -106.5
t77 -271.5h-65q28 140 -62.5 230.5t-257.5 90.5q-136 0 -221.5 -63t-85.5 -162q0 -57 31.5 -96.5t82.5 -59.5t116.5 -37t134 -26.5t134 -29t116.5 -45t82.5 -74.5t31.5 -116q0 -133 -110 -211.5t-287 -78.5z" />
    <glyph glyph-name="Scedilla" unicode="&#x15e;" horiz-adv-x="1347" 
d="M690 -16q-24 -36 -47 -52q99 0 154 -48.5t55 -127.5q0 -82 -59 -132t-156 -50q-109 0 -167.5 63t-35.5 154h60q-21 -70 20.5 -116t122.5 -46q69 0 112.5 35t43.5 92t-43.5 91t-114.5 34q-57 0 -107 -24l-24 53q75 29 119 76q-238 17 -369 150.5t-121 348.5h66
q-7 -214 128 -327t363 -113q207 0 333 91t126 245q0 76 -33.5 131t-90.5 86t-131 52t-155.5 34.5t-162.5 27.5t-155 37.5t-131 58.5t-90.5 95.5t-33.5 143.5q0 180 143 291.5t367 111.5q125 0 227 -37.5t167.5 -102.5t93.5 -156t10 -196h-66q30 192 -92.5 311.5
t-339.5 119.5q-192 0 -318.5 -94t-126.5 -242q0 -73 33.5 -124.5t90.5 -81t131 -49t155 -33t162.5 -28t155.5 -39t131 -61.5t90.5 -100.5t33.5 -149.5q0 -187 -143.5 -295t-380.5 -108z" />
    <glyph glyph-name="scedilla" unicode="&#x15f;" horiz-adv-x="1052" 
d="M559 -16q-24 -36 -47 -52q99 0 154 -48.5t55 -127.5q0 -82 -59 -132t-156 -50q-109 0 -167.5 63t-35.5 154h59q-21 -70 21 -116t123 -46q69 0 112.5 35t43.5 92t-43.5 91t-114.5 34q-58 0 -107 -24l-24 53q75 29 119 76q-190 13 -289.5 123.5t-87.5 289.5h65
q-14 -163 84 -260.5t279 -97.5q151 0 241 65.5t90 167.5q0 64 -40 106t-104.5 62.5t-142 34.5t-155.5 31t-142.5 42.5t-104.5 78t-40 129.5q0 131 106 206.5t269 75.5q200 0 306 -106.5t77 -271.5h-65q28 140 -62.5 230.5t-257.5 90.5q-136 0 -221.5 -63t-85.5 -162
q0 -57 31.5 -96.5t82.5 -59.5t116.5 -37t134 -26.5t134 -29t116.5 -45t82.5 -74.5t31.5 -116q0 -130 -105 -208.5t-276 -81.5z" />
    <glyph glyph-name="Scaron" unicode="&#x160;" horiz-adv-x="1347" 
d="M690 1507h-49l-231 193h75l183 -150l192 150h76zM231 1053q0 -73 33.5 -124.5t90.5 -81t131 -49t155 -33t162.5 -28t155.5 -39t131 -61.5t90.5 -100.5t33.5 -149.5q0 -187 -143.5 -295t-380.5 -108q-268 0 -418.5 135.5t-138.5 365.5h66q-7 -214 128 -327t363 -113
q207 0 333 91t126 245q0 76 -33.5 131t-90.5 86t-131 52t-155.5 34.5t-162.5 27.5t-155 37.5t-131 58.5t-90.5 95.5t-33.5 143.5q0 180 143 291.5t367 111.5q125 0 227 -37.5t167.5 -102.5t93.5 -156t10 -196h-66q30 192 -92.5 311.5t-339.5 119.5q-192 0 -318.5 -94
t-126.5 -242z" />
    <glyph glyph-name="scaron" unicode="&#x161;" horiz-adv-x="1052" 
d="M563 1159h-49l-195 275h72l148 -220l161 220h72zM211 758q0 -57 31.5 -96.5t82.5 -59.5t116.5 -37t134 -26.5t134 -29t116.5 -45t82.5 -74.5t31.5 -116q0 -133 -110 -211.5t-287 -78.5q-214 0 -328 112.5t-100 302.5h65q-14 -163 84 -260.5t279 -97.5q151 0 241 65.5
t90 167.5q0 64 -40 106t-104.5 62.5t-142 34.5t-155.5 31t-142.5 42.5t-104.5 78t-40 129.5q0 131 106 206.5t269 75.5q200 0 306 -106.5t77 -271.5h-65q28 140 -62.5 230.5t-257.5 90.5q-136 0 -221.5 -63t-85.5 -162z" />
    <glyph glyph-name="uni0162" unicode="&#x162;" horiz-adv-x="1280" 
d="M664 0q-13 -41 -54 -68q99 0 154 -48.5t55 -127.5q0 -82 -59 -132t-156 -50q-109 0 -167.5 63t-35.5 154h60q-21 -70 20.5 -116t122.5 -46q69 0 112.5 35t43.5 92t-43.5 91t-114.5 34q-56 0 -106 -24l-25 53q53 21 92.5 52t48.5 61v1353h-530v58h1116v-58h-524v-1376h-10
z" />
    <glyph glyph-name="uni0163" unicode="&#x163;" horiz-adv-x="729" 
d="M449 -68q99 0 153.5 -48.5t54.5 -127.5q0 -82 -59 -132t-156 -50q-109 0 -167 63t-35 154h59q-21 -70 20.5 -116t122.5 -46q69 0 112.5 35t43.5 92t-43.5 91t-114.5 34q-56 0 -106 -24l-25 53q78 32 121 78q-158 22 -158 237v742h-180v57h180v264h62v-264h293v-57h-293
v-742q0 -29 3 -52.5t12 -48t24.5 -40.5t41.5 -26.5t62 -10.5q71 0 123 37v-64q-46 -29 -104 -32q-15 -31 -47 -56z" />
    <glyph glyph-name="Tcaron" unicode="&#x164;" horiz-adv-x="1280" 
d="M657 1507h-49l-231 193h76l182 -150l192 150h76zM1198 1434v-58h-524v-1376h-62v1376h-530v58h1116z" />
    <glyph glyph-name="tcaron" unicode="&#x165;" horiz-adv-x="729" 
d="M551 1434l-45 -373h-49l20 373h74zM627 967h-293v-742q0 -29 3 -52.5t12 -48t24.5 -40.5t41.5 -26.5t62 -10.5q71 0 123 37v-64q-49 -34 -131 -34q-197 0 -197 239v742h-180v57h180v264h62v-264h293v-57z" />
    <glyph glyph-name="Tbar" unicode="&#x166;" horiz-adv-x="1280" 
d="M1198 1376h-524v-633h235v-53h-235v-690h-62v690h-239v53h239v633h-530v58h1116v-58z" />
    <glyph glyph-name="tbar" unicode="&#x167;" horiz-adv-x="729" 
d="M627 967h-293v-326h268v-53h-268v-363q0 -29 3 -52.5t12 -48t24.5 -40.5t41.5 -26.5t62 -10.5q71 0 123 37v-64q-49 -34 -131 -34q-197 0 -197 239v363h-161v53h161v326h-180v57h180v264h62v-264h293v-57z" />
    <glyph glyph-name="Utilde" unicode="&#x168;" horiz-adv-x="1466" 
d="M481 1509q-23 76 11.5 125t103.5 49q40 0 79.5 -19t66.5 -42t63 -42t69 -19q84 0 54 120h55q20 -73 -9 -123.5t-100 -50.5q-39 0 -79 19t-67.5 42.5t-63.5 42.5t-68 19q-49 0 -64 -38.5t3 -82.5h-54zM733 -14q-269 0 -398.5 160t-129.5 491v797h61v-797
q0 -302 114.5 -448t352.5 -146t352.5 146t114.5 448v797h62v-797q0 -331 -130 -491t-399 -160z" />
    <glyph glyph-name="utilde" unicode="&#x169;" horiz-adv-x="1091" 
d="M334 1196h-55q-24 80 12 133t108 53q41 0 82 -20t70 -44.5t67 -44.5t72 -20q49 0 62 39.5t-4 89.5h57q21 -79 -8.5 -132.5t-106.5 -53.5q-41 0 -83 20t-71 44.5t-66.5 44.5t-70.5 20q-51 0 -68 -41.5t3 -87.5zM877 1024h61v-1024h-61v264q-60 -136 -167.5 -208
t-238.5 -72q-75 0 -133.5 24.5t-94.5 64.5t-59 96.5t-32 114.5t-9 124v616h62v-616q0 -50 6 -95.5t23.5 -96.5t46 -87t78 -60t114.5 -24q73 0 142 28.5t129 84.5t96.5 152t36.5 218v496z" />
    <glyph glyph-name="Umacron" unicode="&#x16a;" horiz-adv-x="1466" 
d="M461 1556v58h543v-58h-543zM733 -14q-269 0 -398.5 160t-129.5 491v797h61v-797q0 -302 114.5 -448t352.5 -146t352.5 146t114.5 448v797h62v-797q0 -331 -130 -491t-399 -160z" />
    <glyph glyph-name="umacron" unicode="&#x16b;" horiz-adv-x="1091" 
d="M801 1282v-57h-522v57h522zM877 1024h61v-1024h-61v264q-60 -136 -167.5 -208t-238.5 -72q-75 0 -133.5 24.5t-94.5 64.5t-59 96.5t-32 114.5t-9 124v616h62v-616q0 -50 6 -95.5t23.5 -96.5t46 -87t78 -60t114.5 -24q73 0 142 28.5t129 84.5t96.5 152t36.5 218v496z" />
    <glyph glyph-name="Ubreve" unicode="&#x16c;" horiz-adv-x="1466" 
d="M733 1499q-109 0 -184.5 53t-75.5 148h55q0 -65 52 -105.5t153 -40.5t151 40.5t50 105.5h57q0 -96 -74 -148.5t-184 -52.5zM733 -14q-269 0 -398.5 160t-129.5 491v797h61v-797q0 -302 114.5 -448t352.5 -146t352.5 146t114.5 448v797h62v-797q0 -331 -130 -491
t-399 -160z" />
    <glyph glyph-name="ubreve" unicode="&#x16d;" horiz-adv-x="1091" 
d="M543 1188q-114 0 -192.5 64.5t-78.5 181.5h62q0 -88 52.5 -138.5t156.5 -50.5t154.5 50.5t50.5 138.5h61q0 -118 -76 -182t-190 -64zM877 1024h61v-1024h-61v264q-60 -136 -167.5 -208t-238.5 -72q-75 0 -133.5 24.5t-94.5 64.5t-59 96.5t-32 114.5t-9 124v616h62v-616
q0 -50 6 -95.5t23.5 -96.5t46 -87t78 -60t114.5 -24q73 0 142 28.5t129 84.5t96.5 152t36.5 218v496z" />
    <glyph glyph-name="Uring" unicode="&#x16e;" horiz-adv-x="1466" 
d="M733 1468q-63 0 -103 38.5t-40 97.5t40 97t103 38t103.5 -38t40.5 -97t-40.5 -97.5t-103.5 -38.5zM733 1522q37 0 59.5 22.5t22.5 59.5t-22.5 59.5t-59.5 22.5t-59.5 -22.5t-22.5 -59.5t22.5 -59.5t59.5 -22.5zM733 -14q-269 0 -398.5 160t-129.5 491v797h61v-797
q0 -302 114.5 -448t352.5 -146t352.5 146t114.5 448v797h62v-797q0 -331 -130 -491t-399 -160z" />
    <glyph glyph-name="uring" unicode="&#x16f;" horiz-adv-x="1091" 
d="M541 1161q-61 0 -102.5 39t-41.5 98t41.5 98.5t102.5 39.5t102 -39.5t41 -98.5t-41 -98t-102 -39zM541 1380q-37 0 -59.5 -22.5t-22.5 -59.5t22.5 -59t59.5 -22t59.5 22t22.5 59t-22.5 59.5t-59.5 22.5zM877 1024h61v-1024h-61v264q-60 -136 -167.5 -208t-238.5 -72
q-75 0 -133.5 24.5t-94.5 64.5t-59 96.5t-32 114.5t-9 124v616h62v-616q0 -50 6 -95.5t23.5 -96.5t46 -87t78 -60t114.5 -24q73 0 142 28.5t129 84.5t96.5 152t36.5 218v496z" />
    <glyph glyph-name="Uhungarumlaut" unicode="&#x170;" horiz-adv-x="1466" 
d="M618 1507l97 193h61l-106 -193h-52zM766 1507l108 193h62l-119 -193h-51zM733 -14q-269 0 -398.5 160t-129.5 491v797h61v-797q0 -302 114.5 -448t352.5 -146t352.5 146t114.5 448v797h62v-797q0 -331 -130 -491t-399 -160z" />
    <glyph glyph-name="uhungarumlaut" unicode="&#x171;" horiz-adv-x="1091" 
d="M575 1434l-126 -275h-52l117 275h61zM606 1159h-51l117 275h61zM877 1024h61v-1024h-61v264q-60 -136 -167.5 -208t-238.5 -72q-75 0 -133.5 24.5t-94.5 64.5t-59 96.5t-32 114.5t-9 124v616h62v-616q0 -50 6 -95.5t23.5 -96.5t46 -87t78 -60t114.5 -24q73 0 142 28.5
t129 84.5t96.5 152t36.5 218v496z" />
    <glyph glyph-name="Uogonek" unicode="&#x172;" horiz-adv-x="1466" 
d="M1200 1434h62v-797q0 -282 -93.5 -439.5t-285.5 -197.5q-113 -31 -177.5 -101.5t-64.5 -142.5q0 -54 36.5 -89.5t94.5 -35.5q60 0 111 35v-61q-40 -31 -115 -31q-85 0 -135.5 50t-50.5 124q0 68 44.5 130.5t123.5 107.5h-17q-269 0 -398.5 160t-129.5 491v797h61v-797
q0 -302 114.5 -448t352.5 -146t352.5 146t114.5 448v797z" />
    <glyph glyph-name="uogonek" unicode="&#x173;" horiz-adv-x="1091" 
d="M877 1024h61v-1024h-31q-112 -31 -176.5 -101t-64.5 -143q0 -54 36.5 -89.5t94.5 -35.5q59 0 110 35v-61q-40 -31 -114 -31q-85 0 -136 50t-51 124q0 89 74 166t197 117v233q-60 -136 -167.5 -208t-238.5 -72q-75 0 -133.5 24.5t-94.5 64.5t-59 96.5t-32 114.5t-9 124
v616h62v-616q0 -50 6 -95.5t23.5 -96.5t46 -87t78 -60t114.5 -24q73 0 142 28.5t129 84.5t96.5 152t36.5 218v496z" />
    <glyph glyph-name="Wcircumflex" unicode="&#x174;" horiz-adv-x="1968" 
d="M979 1655l-180 -148h-82l235 193h49l250 -193h-82zM1853 1434h64l-451 -1434h-73l-410 1341l-408 -1341h-73l-451 1434h64l422 -1344l413 1344h68l412 -1346z" />
    <glyph glyph-name="wcircumflex" unicode="&#x175;" horiz-adv-x="1509" 
d="M750 1376l-150 -217h-72l195 275h49l209 -275h-72zM1411 1024h68l-330 -1024h-86l-307 944l-295 -944h-86l-344 1024h67l320 -973l303 973h67l318 -973z" />
    <glyph glyph-name="Ycircumflex" unicode="&#x176;" horiz-adv-x="1216" 
d="M602 1655l-180 -148h-82l235 193h50l249 -193h-81zM1165 1434l-522 -813v-621h-61v621l-531 813h72l489 -758l482 758h71z" />
    <glyph glyph-name="ycircumflex" unicode="&#x177;" horiz-adv-x="952" 
d="M471 1376l-149 -217h-72l194 275h50l208 -275h-71zM864 1024h68l-408 -1174q-97 -276 -352 -276q-88 0 -152 33v61q65 -33 146 -33q95 0 174.5 54t116.5 166l22 69l-444 1100h71l408 -1008z" />
    <glyph glyph-name="Ydieresis" unicode="&#x178;" horiz-adv-x="1216" 
d="M393 1561q-28 0 -45.5 17.5t-17.5 45.5t17.5 46t45.5 18t46 -18t18 -46t-18 -45.5t-46 -17.5zM823 1561q-28 0 -45.5 17.5t-17.5 45.5t17.5 46t45.5 18t46 -18t18 -46t-18 -45.5t-46 -17.5zM1165 1434l-522 -813v-621h-61v621l-531 813h72l489 -758l482 758h71z" />
    <glyph glyph-name="Zacute" unicode="&#x179;" horiz-adv-x="1290" 
d="M772 1700l-127 -193h-57l117 193h67zM188 57h990v-57h-1065v61l970 1315h-950v58h1024v-62z" />
    <glyph glyph-name="zacute" unicode="&#x17a;" horiz-adv-x="1003" 
d="M618 1434l-133 -275h-53l117 275h69zM180 57h742v-57h-820v59l721 908h-680v57h758v-59z" />
    <glyph glyph-name="Zdotaccent" unicode="&#x17b;" horiz-adv-x="1290" 
d="M645 1563q-26 0 -43.5 17.5t-17.5 43.5t17.5 44t43.5 18t44 -18t18 -44t-18 -43.5t-44 -17.5zM188 57h990v-57h-1065v61l970 1315h-950v58h1024v-62z" />
    <glyph glyph-name="zdotaccent" unicode="&#x17c;" horiz-adv-x="1003" 
d="M512 1221q-26 0 -43.5 17.5t-17.5 43.5t17.5 43.5t43.5 17.5t43.5 -17.5t17.5 -43.5t-17.5 -43.5t-43.5 -17.5zM180 57h742v-57h-820v59l721 908h-680v57h758v-59z" />
    <glyph glyph-name="Zcaron" unicode="&#x17d;" horiz-adv-x="1290" 
d="M662 1507h-50l-231 193h76l182 -150l192 150h76zM188 57h990v-57h-1065v61l970 1315h-950v58h1024v-62z" />
    <glyph glyph-name="zcaron" unicode="&#x17e;" horiz-adv-x="1003" 
d="M530 1159h-49l-194 275h71l148 -220l162 220h71zM180 57h742v-57h-820v59l721 908h-680v57h758v-59z" />
    <glyph glyph-name="uni0191" unicode="&#x191;" horiz-adv-x="1163" 
d="M944 1386q-53 0 -94 -17.5t-64 -41t-40 -60.5t-23 -61t-12 -57l-23 -125h406l-9 -57h-405l-205 -1155q-5 -33 -11.5 -58.5t-23 -61.5t-39 -59.5t-61 -41t-88.5 -17.5q-86 0 -178 37l12 61q87 -37 164 -37q36 0 64.5 11.5t44.5 26.5t28 38.5t16.5 40.5t8.5 39l206 1176
h-258l9 57h258l22 131q24 143 94 218t199 75q118 0 215 -62l-12 -61q-91 61 -201 61z" />
    <glyph glyph-name="florin" unicode="&#x192;" horiz-adv-x="1163" 
d="M944 1386q-53 0 -94 -17.5t-64 -41t-40 -60.5t-23 -61t-12 -57l-23 -125h406l-9 -57h-405l-205 -1155q-5 -33 -11.5 -58.5t-23 -61.5t-39 -59.5t-61 -41t-88.5 -17.5q-86 0 -178 37l12 61q87 -37 164 -37q36 0 64.5 11.5t44.5 26.5t28 38.5t16.5 40.5t8.5 39l206 1176
h-258l9 57h258l22 131q24 143 94 218t199 75q118 0 215 -62l-12 -61q-91 61 -201 61z" />
    <glyph glyph-name="Ohorn" unicode="&#x1a0;" horiz-adv-x="1624" 
d="M1212 1325q131 -98 205 -255.5t74 -350.5q0 -212 -86 -380t-241 -261.5t-351 -93.5t-351.5 93.5t-242 261.5t-86.5 380q0 211 86.5 378t242 260t351.5 93q197 0 354 -96q87 53 116.5 115.5t8.5 142.5h56q48 -177 -136 -287zM813 45q176 0 315.5 86t218 240t78.5 348
q0 193 -78.5 346t-218 238.5t-315.5 85.5q-177 0 -317 -85.5t-218.5 -238.5t-78.5 -346q0 -194 78.5 -348t218.5 -240t317 -86z" />
    <glyph glyph-name="ohorn" unicode="&#x1a1;" horiz-adv-x="1167" 
d="M831 975q110 -65 172 -185t62 -278q0 -238 -133.5 -383t-351.5 -145q-220 0 -354 145t-134 383t134 383t354 145q37 0 84.5 -3t81 -6t71 -3.5t61.5 3t45.5 14t31 30t9.5 51.5t-12 76h56q30 -111 -17 -177.5t-160 -49.5zM580 45q189 0 304 128t115 339t-115 339t-304 128
q-190 0 -306 -128t-116 -339t116 -339t306 -128z" />
    <glyph glyph-name="Uhorn" unicode="&#x1af;" horiz-adv-x="1466" 
d="M1362 1612q27 -98 -5 -160t-95 -70v-745q0 -331 -130 -491t-399 -160t-398.5 160t-129.5 491v797h61v-797q0 -302 114.5 -448t352.5 -146t352.5 146t114.5 448v797h31q19 0 36 7.5t33.5 27t18 54.5t-11.5 89h55z" />
    <glyph glyph-name="uhorn" unicode="&#x1b0;" horiz-adv-x="1132" 
d="M1038 1202q27 -98 -5 -159.5t-95 -69.5v-973h-61v264q-60 -136 -167.5 -208t-238.5 -72q-75 0 -133.5 24.5t-94.5 64.5t-59 96.5t-32 114.5t-9 124v616h62v-616q0 -50 6 -95.5t23.5 -96.5t46 -87t78 -60t114.5 -24q73 0 142 28.5t129 84.5t96.5 152t36.5 218v496h30
q19 0 36 7.5t33.5 27t18 54.5t-11.5 89h55z" />
    <glyph glyph-name="uni01CD" unicode="&#x1cd;" horiz-adv-x="1318" 
d="M676 1507h-49l-232 193h76l182 -150l193 150h76zM1198 0l-172 436h-733l-172 -436h-70l574 1434h69l574 -1434h-70zM315 494h689l-345 872z" />
    <glyph glyph-name="uni01CE" unicode="&#x1ce;" horiz-adv-x="1081" 
d="M561 1159h-49l-195 275h72l148 -220l161 220h72zM547 1040q391 0 391 -475v-565h-61v252q-55 -124 -164.5 -196t-263.5 -72q-161 0 -259 77t-98 213q0 155 124.5 247.5t326.5 92.5q172 0 334 -61v12q0 69 -8 125.5t-30.5 111.5t-59 93t-96.5 61t-140 23q-162 0 -250 -86
t-55 -234h-66q-38 166 70 273.5t305 107.5zM453 45q130 0 227.5 60t146.5 159.5t50 222.5q-151 66 -330 66q-175 0 -282 -75t-107 -202q0 -108 81 -169.5t214 -61.5z" />
    <glyph glyph-name="uni01CF" unicode="&#x1cf;" horiz-adv-x="491" 
d="M508 1700l-246 -193h-49l-231 193h75l183 -150l192 150h76zM215 0v1434h61v-1434h-61z" />
    <glyph glyph-name="uni01D0" unicode="&#x1d0;" horiz-adv-x="389" 
d="M420 1434l-209 -275h-49l-195 275h72l147 -220l162 220h72zM164 0v1024h61v-1024h-61z" />
    <glyph glyph-name="uni01D1" unicode="&#x1d1;" horiz-adv-x="1624" 
d="M829 1507h-49l-231 193h76l182 -150l192 150h76zM813 1450q196 0 351 -93t241 -260t86 -378q0 -212 -86 -380t-241 -261.5t-351 -93.5t-351.5 93.5t-242 261.5t-86.5 380q0 211 86.5 378t242 260t351.5 93zM813 45q176 0 315.5 86t218 240t78.5 348q0 193 -78.5 346
t-218 238.5t-315.5 85.5q-177 0 -317 -85.5t-218.5 -238.5t-78.5 -346q0 -194 78.5 -348t218.5 -240t317 -86z" />
    <glyph glyph-name="uni01D2" unicode="&#x1d2;" horiz-adv-x="1157" 
d="M598 1159h-49l-195 275h72l147 -220l162 220h72zM580 1040q218 0 351.5 -145t133.5 -383t-133.5 -383t-351.5 -145q-220 0 -354 145t-134 383t134 383t354 145zM580 45q189 0 304 128t115 339t-115 339t-304 128q-190 0 -306 -128t-116 -339t116 -339t306 -128z" />
    <glyph glyph-name="uni01D3" unicode="&#x1d3;" horiz-adv-x="1466" 
d="M750 1507h-50l-231 193h76l182 -150l193 150h75zM1200 1434h62v-797q0 -331 -130 -491t-399 -160t-398.5 160t-129.5 491v797h61v-797q0 -302 114.5 -448t352.5 -146t352.5 146t114.5 448v797z" />
    <glyph glyph-name="uni01D4" unicode="&#x1d4;" horiz-adv-x="1091" 
d="M559 1159h-49l-195 275h72l148 -220l161 220h72zM877 1024h61v-1024h-61v264q-60 -136 -167.5 -208t-238.5 -72q-75 0 -133.5 24.5t-94.5 64.5t-59 96.5t-32 114.5t-9 124v616h62v-616q0 -50 6 -95.5t23.5 -96.5t46 -87t78 -60t114.5 -24q73 0 142 28.5t129 84.5
t96.5 152t36.5 218v496z" />
    <glyph glyph-name="uni01D5" unicode="&#x1d5;" horiz-adv-x="1466" 
d="M461 1802v58h543v-58h-543zM518 1561q-28 0 -45.5 17.5t-17.5 45.5t17.5 46t45.5 18t46 -18t18 -46t-18 -45.5t-46 -17.5zM948 1561q-28 0 -45.5 17.5t-17.5 45.5t17.5 46t45.5 18t46 -18t18 -46t-18 -45.5t-46 -17.5zM733 -14q-269 0 -398.5 160t-129.5 491v797h61v-797
q0 -302 114.5 -448t352.5 -146t352.5 146t114.5 448v797h62v-797q0 -331 -130 -491t-399 -160z" />
    <glyph glyph-name="uni01D6" unicode="&#x1d6;" horiz-adv-x="1091" 
d="M801 1581v-57h-522v57h522zM303 1282q0 28 18 46t46 18t45.5 -18t17.5 -46t-17.5 -45.5t-45.5 -17.5t-46 17.5t-18 45.5zM651 1282q0 28 18 46t46 18t45.5 -18t17.5 -46t-17.5 -45.5t-45.5 -17.5t-46 17.5t-18 45.5zM877 1024h61v-1024h-61v264q-60 -136 -167.5 -208
t-238.5 -72q-75 0 -133.5 24.5t-94.5 64.5t-59 96.5t-32 114.5t-9 124v616h62v-616q0 -50 6 -95.5t23.5 -96.5t46 -87t78 -60t114.5 -24q73 0 142 28.5t129 84.5t96.5 152t36.5 218v496z" />
    <glyph glyph-name="uni01D7" unicode="&#x1d7;" horiz-adv-x="1466" 
d="M676 1753l117 193h67l-127 -193h-57zM518 1561q-28 0 -45.5 17.5t-17.5 45.5t17.5 46t45.5 18t46 -18t18 -46t-18 -45.5t-46 -17.5zM948 1561q-28 0 -45.5 17.5t-17.5 45.5t17.5 46t45.5 18t46 -18t18 -46t-18 -45.5t-46 -17.5zM733 -14q-269 0 -398.5 160t-129.5 491
v797h61v-797q0 -302 114.5 -448t352.5 -146t352.5 146t114.5 448v797h62v-797q0 -331 -130 -491t-399 -160z" />
    <glyph glyph-name="uni01D8" unicode="&#x1d8;" horiz-adv-x="1091" 
d="M647 1733l-133 -275h-53l117 275h69zM367 1219q-28 0 -46 17.5t-18 45.5t18 46t46 18t45.5 -18t17.5 -46t-17.5 -45.5t-45.5 -17.5zM715 1219q-28 0 -46 17.5t-18 45.5t18 46t46 18t45.5 -18t17.5 -46t-17.5 -45.5t-45.5 -17.5zM877 1024h61v-1024h-61v264
q-60 -136 -167.5 -208t-238.5 -72q-75 0 -133.5 24.5t-94.5 64.5t-59 96.5t-32 114.5t-9 124v616h62v-616q0 -50 6 -95.5t23.5 -96.5t46 -87t78 -60t114.5 -24q73 0 142 28.5t129 84.5t96.5 152t36.5 218v496z" />
    <glyph glyph-name="uni01D9" unicode="&#x1d9;" horiz-adv-x="1466" 
d="M750 1753h-50l-231 193h76l182 -150l193 150h75zM518 1561q-28 0 -45.5 17.5t-17.5 45.5t17.5 46t45.5 18t46 -18t18 -46t-18 -45.5t-46 -17.5zM948 1688q28 0 46 -18t18 -46t-18 -45.5t-46 -17.5t-45.5 17.5t-17.5 45.5t17.5 46t45.5 18zM1200 1434h62v-797
q0 -331 -130 -491t-399 -160t-398.5 160t-129.5 491v797h61v-797q0 -302 114.5 -448t352.5 -146t352.5 146t114.5 448v797z" />
    <glyph glyph-name="uni01DA" unicode="&#x1da;" horiz-adv-x="1091" 
d="M559 1458h-49l-195 275h72l148 -220l161 220h72zM367 1219q-28 0 -46 17.5t-18 45.5t18 46t46 18t45.5 -18t17.5 -46t-17.5 -45.5t-45.5 -17.5zM715 1346q28 0 45.5 -18t17.5 -46t-17.5 -45.5t-45.5 -17.5t-46 17.5t-18 45.5t18 46t46 18zM877 1024h61v-1024h-61v264
q-60 -136 -167.5 -208t-238.5 -72q-75 0 -133.5 24.5t-94.5 64.5t-59 96.5t-32 114.5t-9 124v616h62v-616q0 -50 6 -95.5t23.5 -96.5t46 -87t78 -60t114.5 -24q73 0 142 28.5t129 84.5t96.5 152t36.5 218v496z" />
    <glyph glyph-name="uni01DB" unicode="&#x1db;" horiz-adv-x="1466" 
d="M750 1753l-127 193h61l117 -193h-51zM518 1561q-28 0 -45.5 17.5t-17.5 45.5t17.5 46t45.5 18t46 -18t18 -46t-18 -45.5t-46 -17.5zM948 1561q-28 0 -45.5 17.5t-17.5 45.5t17.5 46t45.5 18t46 -18t18 -46t-18 -45.5t-46 -17.5zM733 -14q-269 0 -398.5 160t-129.5 491
v797h61v-797q0 -302 114.5 -448t352.5 -146t352.5 146t114.5 448v797h62v-797q0 -331 -130 -491t-399 -160z" />
    <glyph glyph-name="uni01DC" unicode="&#x1dc;" horiz-adv-x="1091" 
d="M602 1458h-53l-133 275h69zM367 1219q-28 0 -46 17.5t-18 45.5t18 46t46 18t45.5 -18t17.5 -46t-17.5 -45.5t-45.5 -17.5zM715 1219q-28 0 -46 17.5t-18 45.5t18 46t46 18t45.5 -18t17.5 -46t-17.5 -45.5t-45.5 -17.5zM877 1024h61v-1024h-61v264q-60 -136 -167.5 -208
t-238.5 -72q-75 0 -133.5 24.5t-94.5 64.5t-59 96.5t-32 114.5t-9 124v616h62v-616q0 -50 6 -95.5t23.5 -96.5t46 -87t78 -60t114.5 -24q73 0 142 28.5t129 84.5t96.5 152t36.5 218v496z" />
    <glyph glyph-name="Gcaron" unicode="&#x1e6;" horiz-adv-x="1529" 
d="M834 1507h-50l-231 193h76l182 -150l193 150h75zM1479 709v-58h-418q132 -26 202 -104t70 -201q0 -166 -129 -264t-358 -98q-172 0 -309.5 57t-224.5 157t-133 232t-46 287q0 152 45 284.5t129.5 233t215.5 158t292 57.5q256 0 399.5 -136t108.5 -356h-68q22 137 -30 234
t-157.5 143.5t-252.5 46.5q-150 0 -269 -51.5t-194 -142.5t-114 -211t-39 -260q0 -200 76 -351t223 -236t348 -85q203 0 312.5 83.5t109.5 217.5q0 141 -122 223t-331 82v58h664z" />
    <glyph glyph-name="gcaron" unicode="&#x1e7;" horiz-adv-x="1128" 
d="M561 1159h-49l-195 275h72l148 -220l161 220h72zM578 193q117 0 215 -34t160.5 -105t62.5 -167q0 -138 -122 -225.5t-314 -87.5q-201 0 -330 100.5t-148 268.5h66q11 -139 123 -223.5t289 -84.5q164 0 267 70.5t103 181.5q0 110 -105 177t-274 67q-160 0 -317 -53v72
q343 60 534 229q-111 -78 -264 -78q-178 0 -294.5 102t-116.5 267t118.5 267.5t311.5 102.5q225 0 344 -135q39 8 56.5 50.5t11.5 96.5t-31 97h61q39 -88 21.5 -176t-80.5 -119q47 -80 47 -184q0 -152 -105 -276.5t-293 -200.5h3zM178 670q0 -138 100.5 -223t264.5 -85
t264 85t100 223q0 137 -99.5 223t-264.5 86q-164 0 -264.5 -85.5t-100.5 -223.5z" />
    <glyph glyph-name="uni0218" unicode="&#x218;" horiz-adv-x="1347" 
d="M231 1053q0 -73 33.5 -124.5t90.5 -81t131 -49t155 -33t162.5 -28t155.5 -39t131 -61.5t90.5 -100.5t33.5 -149.5q0 -187 -143.5 -295t-380.5 -108q-268 0 -418.5 135.5t-138.5 365.5h66q-7 -214 128 -327t363 -113q207 0 333 91t126 245q0 76 -33.5 131t-90.5 86
t-131 52t-155.5 34.5t-162.5 27.5t-155 37.5t-131 58.5t-90.5 95.5t-33.5 143.5q0 180 143 291.5t367 111.5q125 0 227 -37.5t167.5 -102.5t93.5 -156t10 -196h-66q30 192 -92.5 311.5t-339.5 119.5q-192 0 -318.5 -94t-126.5 -242zM680 -123q47 0 74.5 -38t27.5 -103
q0 -81 -42.5 -121.5t-116.5 -40.5v45q106 0 106 111q0 33 -8 49q-16 -29 -53 -29q-28 0 -45 17t-17 45q0 29 19 47t55 18z" />
    <glyph glyph-name="uni0219" unicode="&#x219;" horiz-adv-x="1052" 
d="M211 758q0 -57 31.5 -96.5t82.5 -59.5t116.5 -37t134 -26.5t134 -29t116.5 -45t82.5 -74.5t31.5 -116q0 -133 -110 -211.5t-287 -78.5q-214 0 -328 112.5t-100 302.5h65q-14 -163 84 -260.5t279 -97.5q151 0 241 65.5t90 167.5q0 64 -40 106t-104.5 62.5t-142 34.5
t-155.5 31t-142.5 42.5t-104.5 78t-40 129.5q0 131 106 206.5t269 75.5q200 0 306 -106.5t77 -271.5h-65q28 140 -62.5 230.5t-257.5 90.5q-136 0 -221.5 -63t-85.5 -162zM549 -123q47 0 74.5 -38t27.5 -103q0 -81 -42.5 -121.5t-116.5 -40.5v45q106 0 106 111q0 33 -8 49
q-16 -29 -53 -29q-28 0 -45 17t-17 45q0 29 19 47t55 18z" />
    <glyph glyph-name="uni021A" unicode="&#x21a;" horiz-adv-x="1280" 
d="M82 1434h1116v-58h-524v-1376h-62v1376h-530v58zM647 -123q47 0 75 -38t28 -103q0 -81 -42.5 -121.5t-117.5 -40.5v45q106 0 106 111q0 33 -8 49q-16 -29 -53 -29q-28 0 -45 17t-17 45q0 29 19 47t55 18z" />
    <glyph glyph-name="uni021B" unicode="&#x21b;" horiz-adv-x="729" 
d="M627 967h-293v-742q0 -29 3 -52.5t12 -48t24.5 -40.5t41.5 -26.5t62 -10.5q71 0 123 37v-64q-49 -34 -131 -34q-197 0 -197 239v742h-180v57h180v264h62v-264h293v-57zM385 -123q47 0 74.5 -38t27.5 -103q0 -81 -42.5 -121.5t-116.5 -40.5v45q106 0 106 111q0 33 -8 49
q-16 -29 -53 -29q-28 0 -45 17t-17 45q0 29 19 47t55 18z" />
    <glyph glyph-name="uni0237" unicode="&#x237;" horiz-adv-x="458" 
d="M127 -426q-67 0 -127 35v65q64 -39 125 -39q31 0 53 12t32.5 27t16 39.5t6 37t0.5 32.5v1241h62v-1223q0 -227 -168 -227z" />
    <glyph glyph-name="uni0259" unicode="&#x259;" horiz-adv-x="1122" 
d="M553 1040q211 0 344 -145.5t133 -384.5q0 -238 -134 -382t-349 -144q-83 0 -155.5 23t-126 63t-92 95.5t-56 120t-15 138t28.5 147.5h832q-19 186 -131 297t-281 111q-129 0 -232.5 -67t-154.5 -185h-72q57 146 179.5 229.5t281.5 83.5zM545 45q188 0 304 127.5
t116 337.5v4h-787q-28 -123 8.5 -230.5t131.5 -173t227 -65.5z" />
    <glyph glyph-name="circumflex" unicode="&#x2c6;" horiz-adv-x="616" 
d="M535 1159h-72l-160 217l-149 -217h-72l194 275h50z" />
    <glyph glyph-name="caron" unicode="&#x2c7;" horiz-adv-x="616" 
d="M463 1434h72l-209 -275h-50l-194 275h72l147 -220z" />
    <glyph glyph-name="breve" unicode="&#x2d8;" horiz-adv-x="700" 
d="M352 1188q-114 0 -192 64.5t-78 181.5h61q0 -88 52.5 -138.5t156.5 -50.5t154.5 50.5t50.5 138.5h61q0 -118 -76 -182t-190 -64z" />
    <glyph glyph-name="dotaccent" unicode="&#x2d9;" horiz-adv-x="286" 
d="M143 1221q-26 0 -43.5 17.5t-17.5 43.5t17.5 43.5t43.5 17.5t44 -17.5t18 -43.5t-18 -43.5t-44 -17.5z" />
    <glyph glyph-name="ring" unicode="&#x2da;" horiz-adv-x="450" 
d="M225 1161q-61 0 -102 39t-41 98t41 98.5t102 39.5t102.5 -39.5t41.5 -98.5t-41.5 -98t-102.5 -39zM225 1217q37 0 59.5 22t22.5 59t-22.5 59.5t-59.5 22.5t-59.5 -22.5t-22.5 -59.5t22.5 -59t59.5 -22z" />
    <glyph glyph-name="ogonek" unicode="&#x2db;" horiz-adv-x="464" 
d="M268 -426q-85 0 -135.5 50t-50.5 124q0 95 82 175t219 118v-41q-113 -31 -177.5 -101.5t-64.5 -142.5q0 -54 36.5 -89.5t94.5 -35.5q60 0 111 35v-61q-40 -31 -115 -31z" />
    <glyph glyph-name="tilde" unicode="&#x2dc;" horiz-adv-x="706" 
d="M90 1196q-24 80 12.5 133t108.5 53q41 0 82 -20t70 -44.5t67 -44.5t72 -20q49 0 61.5 39.5t-4.5 89.5h57q21 -79 -8.5 -132.5t-105.5 -53.5q-41 0 -83 20t-71 44.5t-66.5 44.5t-70.5 20q-51 0 -68.5 -41.5t2.5 -87.5h-55z" />
    <glyph glyph-name="hungarumlaut" unicode="&#x2dd;" horiz-adv-x="499" 
d="M82 1159l117 275h61l-127 -275h-51zM240 1159l116 275h62l-127 -275h-51z" />
    <glyph glyph-name="gravecomb" unicode="&#x300;" 
d="M-135 1159l-133 275h69l117 -275h-53z" />
    <glyph glyph-name="acutecomb" unicode="&#x301;" 
d="M-268 1159l116 275h70l-133 -275h-53z" />
    <glyph glyph-name="uni0302" unicode="&#x302;" 
d="M-82 1159h-72l-159 217l-150 -217h-72l195 275h49z" />
    <glyph glyph-name="tildecomb" unicode="&#x303;" 
d="M-616 1196q-24 80 12 133t108 53q41 0 82 -20t70 -44.5t67 -44.5t72 -20q49 0 62 39.5t-4 89.5h57q21 -79 -8.5 -132.5t-106.5 -53.5q-41 0 -83 20t-71 44.5t-66.5 44.5t-70.5 20q-51 0 -68 -41.5t3 -87.5h-55z" />
    <glyph glyph-name="uni0304" unicode="&#x304;" 
d="M-604 1225v57h522v-57h-522z" />
    <glyph glyph-name="uni0306" unicode="&#x306;" 
d="M-348 1188q-114 0 -192 64.5t-78 181.5h61q0 -88 52.5 -138.5t156.5 -50.5t154.5 50.5t50.5 138.5h61q0 -118 -76 -182t-190 -64z" />
    <glyph glyph-name="uni0307" unicode="&#x307;" 
d="M-143 1221q-26 0 -44 17.5t-18 43.5t18 43.5t44 17.5t43.5 -17.5t17.5 -43.5t-17.5 -43.5t-43.5 -17.5z" />
    <glyph glyph-name="uni0308" unicode="&#x308;" 
d="M-494 1219q-28 0 -45.5 17.5t-17.5 45.5t17.5 46t45.5 18t46 -18t18 -46t-18 -45.5t-46 -17.5zM-145 1219q-28 0 -46 17.5t-18 45.5t18 46t46 18t45.5 -18t17.5 -46t-17.5 -45.5t-45.5 -17.5z" />
    <glyph glyph-name="hookabovecomb" unicode="&#x309;" 
d="M-264 1116l-19 49q67 10 101.5 40t34.5 75q0 78 -68.5 102.5t-159.5 -2.5v54q75 19 140.5 12t109 -49.5t43.5 -108.5q0 -134 -182 -172z" />
    <glyph glyph-name="uni030A" unicode="&#x30a;" 
d="M-225 1161q-61 0 -102.5 39t-41.5 98t41.5 98.5t102.5 39.5t102 -39.5t41 -98.5t-41 -98t-102 -39zM-225 1217q37 0 59.5 22t22.5 59t-22.5 59.5t-59.5 22.5t-59.5 -22.5t-22.5 -59.5t22.5 -59t59.5 -22z" />
    <glyph glyph-name="uni030B" unicode="&#x30b;" 
d="M-418 1159l117 275h61l-127 -275h-51zM-260 1159l117 275h61l-127 -275h-51z" />
    <glyph glyph-name="uni030C" unicode="&#x30c;" 
d="M-154 1434h72l-209 -275h-49l-195 275h72l148 -220z" />
    <glyph glyph-name="uni0312" unicode="&#x312;" 
d="M-143 1278q28 0 44.5 -16.5t16.5 -44.5q0 -29 -19.5 -47.5t-54.5 -18.5q-47 0 -74.5 38t-27.5 103q0 81 42.5 121.5t117.5 40.5v-45q-107 0 -107 -111q0 -33 8 -49q16 29 54 29z" />
    <glyph glyph-name="uni031B" unicode="&#x31b;" 
d="M-209 973l-16 51q19 0 36 7.5t33 27t17.5 54.5t-11.5 89h56q29 -103 -9 -166t-106 -63z" />
    <glyph glyph-name="dotbelowcomb" unicode="&#x323;" 
d="M-143 -319q-26 0 -44 17.5t-18 43.5t18 43.5t44 17.5t43.5 -17.5t17.5 -43.5t-17.5 -43.5t-43.5 -17.5z" />
    <glyph glyph-name="uni0326" unicode="&#x326;" 
d="M-184 -123q47 0 74.5 -38t27.5 -103q0 -81 -42.5 -121.5t-117.5 -40.5v45q107 0 107 111q0 33 -8 49q-16 -29 -54 -29q-28 0 -44.5 17t-16.5 45q0 29 19 47t55 18z" />
    <glyph glyph-name="uni0327" unicode="&#x327;" 
d="M-291 -68q99 0 154 -48.5t55 -127.5q0 -82 -59 -132t-156 -50q-109 0 -167.5 63t-35.5 154h60q-21 -70 20.5 -116t122.5 -46q69 0 112.5 35t43.5 92t-43.5 91t-114.5 34q-57 0 -107 -24l-24 53q60 25 101.5 60t41.5 67h58q0 -59 -62 -105z" />
    <glyph glyph-name="uni0328" unicode="&#x328;" 
d="M-197 -426q-85 0 -135.5 50t-50.5 124q0 95 82 175t219 118v-41q-113 -31 -177.5 -101.5t-64.5 -142.5q0 -54 36.5 -89.5t94.5 -35.5q60 0 111 35v-61q-40 -31 -115 -31z" />
    <glyph glyph-name="uni0335" unicode="&#x335;" 
d="M-573 1223v53h491v-53h-491z" />
    <glyph glyph-name="uni0337" unicode="&#x337;" 
d="M-303 817l221 211v-67l-221 -211v6l-205 -199v68l205 198v-6z" />
    <glyph glyph-name="uni0338" unicode="&#x338;" 
d="M-928 -8l-45 33l846 1007l45 -33z" />
    <glyph glyph-name="uni03A9" unicode="&#x3a9;" horiz-adv-x="1699" 
d="M1610 743q0 -114 -31.5 -211.5t-80 -166t-122 -129.5t-141 -100t-154.5 -79h498v-57h-594v74q68 30 118 54.5t112 61.5t106 73.5t88.5 88t72 107.5t45 129t17.5 155q0 150 -53 274.5t-144.5 207t-213.5 127.5t-261 45q-187 0 -340 -78t-243 -225t-90 -336
q0 -83 18.5 -158t49 -133.5t76.5 -112t92 -92.5t106 -76t109 -61.5t108 -50.5v-74h-594v57h500q-86 40 -155.5 81.5t-142 105t-121.5 135.5t-80.5 172t-31.5 215q0 162 59 294.5t160.5 218.5t234.5 132.5t283 46.5q214 0 383 -91t263 -254t94 -370z" />
    <glyph glyph-name="uni03BC" unicode="&#x3bc;" horiz-adv-x="1060" 
d="M846 1024h61v-1024h-61v262q-58 -139 -159 -208.5t-222 -69.5q-172 0 -250 147v-541h-61v1434h61v-616q0 -178 65.5 -270.5t184.5 -92.5q53 0 105 17t102.5 55.5t88.5 93.5t61.5 137t23.5 180v496z" />
    <glyph glyph-name="pi" unicode="&#x3c0;" horiz-adv-x="1198" 
d="M1096 1024v-57h-295q0 -209 2.5 -352.5t10.5 -250t18 -167.5t28.5 -97t39.5 -47.5t54 -11.5q67 0 127 37v-62q-59 -32 -137 -32q-46 0 -75 12t-54 51.5t-38.5 103t-23.5 178.5t-13 264.5t-3 373.5h-395q10 -216 -17 -479t-83 -488h-62q56 238 83.5 497t17.5 470h-189v57
h1004z" />
    <glyph glyph-name="Wgrave" unicode="&#x1e80;" horiz-adv-x="1968" 
d="M1053 1507h-52l-127 193h62zM1853 1434h64l-451 -1434h-73l-410 1341l-408 -1341h-73l-451 1434h64l422 -1344l413 1344h68l412 -1346z" />
    <glyph glyph-name="wgrave" unicode="&#x1e81;" horiz-adv-x="1509" 
d="M817 1159h-53l-133 275h69zM1411 1024h68l-330 -1024h-86l-307 944l-295 -944h-86l-344 1024h67l320 -973l303 973h67l318 -973z" />
    <glyph glyph-name="Wacute" unicode="&#x1e82;" horiz-adv-x="1968" 
d="M1112 1700l-127 -193h-57l116 193h68zM1853 1434h64l-451 -1434h-73l-410 1341l-408 -1341h-73l-451 1434h64l422 -1344l413 1344h68l412 -1346z" />
    <glyph glyph-name="wacute" unicode="&#x1e83;" horiz-adv-x="1509" 
d="M862 1434l-133 -275h-53l117 275h69zM1411 1024h68l-330 -1024h-86l-307 944l-295 -944h-86l-344 1024h67l320 -973l303 973h67l318 -973z" />
    <glyph glyph-name="Wdieresis" unicode="&#x1e84;" horiz-adv-x="1968" 
d="M770 1561q-28 0 -45.5 17.5t-17.5 45.5t17.5 46t45.5 18t46 -18t18 -46t-18 -45.5t-46 -17.5zM1200 1561q-28 0 -45.5 17.5t-17.5 45.5t17.5 46t45.5 18t46 -18t18 -46t-18 -45.5t-46 -17.5zM1853 1434h64l-451 -1434h-73l-410 1341l-408 -1341h-73l-451 1434h64
l422 -1344l413 1344h68l412 -1346z" />
    <glyph glyph-name="wdieresis" unicode="&#x1e85;" horiz-adv-x="1509" 
d="M582 1219q-28 0 -46 17.5t-18 45.5t18 46t46 18t45.5 -18t17.5 -46t-17.5 -45.5t-45.5 -17.5zM930 1219q-28 0 -46 17.5t-18 45.5t18 46t46 18t45.5 -18t17.5 -46t-17.5 -45.5t-45.5 -17.5zM1411 1024h68l-330 -1024h-86l-307 944l-295 -944h-86l-344 1024h67l320 -973
l303 973h67l318 -973z" />
    <glyph glyph-name="uni1E9E" unicode="&#x1e9e;" horiz-adv-x="1464" 
d="M795 834q158 -5 279 -57t192 -152t71 -236q0 -183 -120.5 -294t-307.5 -111q-203 0 -319 131t-82 350h59q-15 -99 5 -179.5t67.5 -132.5t117 -80t152.5 -28q155 0 259 91.5t104 252.5q0 190 -148.5 291.5t-406.5 101.5v45l465 549h-906v-1376h-61v1434h1045v-58z" />
    <glyph glyph-name="uni1EA0" unicode="&#x1ea0;" horiz-adv-x="1318" 
d="M1268 0h-70l-172 436h-733l-172 -436h-70l574 1434h69zM315 494h689l-345 872zM659 -197q26 0 44 -17.5t18 -43.5t-18 -43.5t-44 -17.5t-43.5 17.5t-17.5 43.5t17.5 43.5t43.5 17.5z" />
    <glyph glyph-name="uni1EA1" unicode="&#x1ea1;" horiz-adv-x="1081" 
d="M547 1040q391 0 391 -475v-565h-61v252q-55 -124 -164.5 -196t-263.5 -72q-161 0 -259 77t-98 213q0 155 124.5 247.5t326.5 92.5q172 0 334 -61v12q0 69 -8 125.5t-30.5 111.5t-59 93t-96.5 61t-140 23q-162 0 -250 -86t-55 -234h-66q-38 166 70 273.5t305 107.5z
M453 45q130 0 227.5 60t146.5 159.5t50 222.5q-151 66 -330 66q-175 0 -282 -75t-107 -202q0 -108 81 -169.5t214 -61.5zM557 -197q26 0 43.5 -17.5t17.5 -43.5t-17.5 -43.5t-43.5 -17.5t-43.5 17.5t-17.5 43.5t17.5 43.5t43.5 17.5z" />
    <glyph glyph-name="uni1EA2" unicode="&#x1ea2;" horiz-adv-x="1318" 
d="M766 1640q0 94 -211 66v45q116 21 192 -7.5t76 -101.5q0 -51 -44 -88t-122 -49l-12 47q56 7 88.5 31.5t32.5 56.5zM1198 0l-172 436h-733l-172 -436h-70l574 1434h69l574 -1434h-70zM315 494h689l-345 872z" />
    <glyph glyph-name="uni1EA3" unicode="&#x1ea3;" horiz-adv-x="1081" 
d="M653 1280q0 78 -68 102.5t-159 -2.5v54q75 19 140.5 12t109 -49.5t43.5 -108.5q0 -134 -182 -172l-19 49q67 10 101 40t34 75zM547 1040q391 0 391 -475v-565h-61v252q-55 -124 -164.5 -196t-263.5 -72q-161 0 -259 77t-98 213q0 155 124.5 247.5t326.5 92.5
q172 0 334 -61v12q0 69 -8 125.5t-30.5 111.5t-59 93t-96.5 61t-140 23q-162 0 -250 -86t-55 -234h-66q-38 166 70 273.5t305 107.5zM453 45q130 0 227.5 60t146.5 159.5t50 222.5q-151 66 -330 66q-175 0 -282 -75t-107 -202q0 -108 81 -169.5t214 -61.5z" />
    <glyph glyph-name="uni1EA4" unicode="&#x1ea4;" horiz-adv-x="1318" 
d="M1053 1774l-127 -193h-58l117 193h68zM653 1655l-180 -148h-82l236 193h49l250 -193h-82zM1198 0l-172 436h-733l-172 -436h-70l574 1434h69l574 -1434h-70zM315 494h689l-345 872z" />
    <glyph glyph-name="uni1EA5" unicode="&#x1ea5;" horiz-adv-x="1081" 
d="M850 1528l-107 -234h-51l96 234h62zM541 1341l-150 -182h-72l195 234h49l209 -234h-72zM547 1040q391 0 391 -475v-565h-61v252q-55 -124 -164.5 -196t-263.5 -72q-161 0 -259 77t-98 213q0 155 124.5 247.5t326.5 92.5q172 0 334 -61v12q0 69 -8 125.5t-30.5 111.5
t-59 93t-96.5 61t-140 23q-162 0 -250 -86t-55 -234h-66q-38 166 70 273.5t305 107.5zM453 45q130 0 227.5 60t146.5 159.5t50 222.5q-151 66 -330 66q-175 0 -282 -75t-107 -202q0 -108 81 -169.5t214 -61.5z" />
    <glyph glyph-name="uni1EA6" unicode="&#x1ea6;" horiz-adv-x="1318" 
d="M993 1581h-51l-127 193h62zM653 1655l-180 -148h-82l236 193h49l250 -193h-82zM1198 0l-172 436h-733l-172 -436h-70l574 1434h69l574 -1434h-70zM315 494h689l-345 872z" />
    <glyph glyph-name="uni1EA7" unicode="&#x1ea7;" horiz-adv-x="1081" 
d="M807 1294h-51l-107 234h62zM541 1341l-150 -182h-72l195 234h49l209 -234h-72zM547 1040q391 0 391 -475v-565h-61v252q-55 -124 -164.5 -196t-263.5 -72q-161 0 -259 77t-98 213q0 155 124.5 247.5t326.5 92.5q172 0 334 -61v12q0 69 -8 125.5t-30.5 111.5t-59 93
t-96.5 61t-140 23q-162 0 -250 -86t-55 -234h-66q-38 166 70 273.5t305 107.5zM453 45q130 0 227.5 60t146.5 159.5t50 222.5q-151 66 -330 66q-175 0 -282 -75t-107 -202q0 -108 81 -169.5t214 -61.5z" />
    <glyph glyph-name="uni1EA8" unicode="&#x1ea8;" horiz-adv-x="1318" 
d="M1038 1673q0 94 -211 66v45q116 21 192.5 -7.5t76.5 -101.5q0 -51 -44 -88t-122 -49l-12 47q56 7 88 31.5t32 56.5zM653 1655l-180 -148h-82l236 193h49l250 -193h-82zM1198 0l-172 436h-733l-172 -436h-70l574 1434h69l574 -1434h-70zM315 494h689l-345 872z" />
    <glyph glyph-name="uni1EA9" unicode="&#x1ea9;" horiz-adv-x="1081" 
d="M854 1382q0 44 -28 69t-72.5 27t-98.5 -10v50q100 29 178 -6t78 -121q0 -119 -159 -152l-17 45q59 9 89 34.5t30 63.5zM541 1341l-150 -182h-72l195 234h49l209 -234h-72zM547 1040q391 0 391 -475v-565h-61v252q-55 -124 -164.5 -196t-263.5 -72q-161 0 -259 77t-98 213
q0 155 124.5 247.5t326.5 92.5q172 0 334 -61v12q0 69 -8 125.5t-30.5 111.5t-59 93t-96.5 61t-140 23q-162 0 -250 -86t-55 -234h-66q-38 166 70 273.5t305 107.5zM453 45q130 0 227.5 60t146.5 159.5t50 222.5q-151 66 -330 66q-175 0 -282 -75t-107 -202
q0 -108 81 -169.5t214 -61.5z" />
    <glyph glyph-name="uni1EAA" unicode="&#x1eaa;" horiz-adv-x="1318" 
d="M461 1755h-53q-23 76 11 125t103 49q40 0 79.5 -19t67 -42.5t63.5 -42.5t69 -19q84 0 53 121h55q20 -74 -8.5 -124t-99.5 -50q-39 0 -79 19t-67.5 42.5t-64 42.5t-68.5 19q-49 0 -64 -38.5t3 -82.5zM653 1655l-180 -148h-82l236 193h49l250 -193h-82zM1198 0l-172 436
h-733l-172 -436h-70l574 1434h69l574 -1434h-70zM315 494h689l-345 872z" />
    <glyph glyph-name="uni1EAB" unicode="&#x1eab;" horiz-adv-x="1081" 
d="M348 1411h-51q-21 74 12.5 123t100.5 49q38 0 90.5 -30t100.5 -59.5t77 -29.5q46 0 58 37.5t-5 81.5h53q20 -73 -7 -122.5t-99 -49.5q-36 0 -88.5 30t-101.5 59.5t-78 29.5q-47 0 -63.5 -38t1.5 -81zM514 1393h49l209 -234h-72l-159 182l-150 -182h-72zM547 1040
q391 0 391 -475v-565h-61v252q-55 -124 -164.5 -196t-263.5 -72q-161 0 -259 77t-98 213q0 155 124.5 247.5t326.5 92.5q172 0 334 -61v12q0 69 -8 125.5t-30.5 111.5t-59 93t-96.5 61t-140 23q-162 0 -250 -86t-55 -234h-66q-38 166 70 273.5t305 107.5zM453 45
q130 0 227.5 60t146.5 159.5t50 222.5q-151 66 -330 66q-175 0 -282 -75t-107 -202q0 -108 81 -169.5t214 -61.5z" />
    <glyph glyph-name="uni1EAC" unicode="&#x1eac;" horiz-adv-x="1318" 
d="M653 1655l-180 -148h-82l236 193h49l250 -193h-82zM1268 0h-70l-172 436h-733l-172 -436h-70l574 1434h69zM315 494h689l-345 872zM659 -197q26 0 44 -17.5t18 -43.5t-18 -43.5t-44 -17.5t-43.5 17.5t-17.5 43.5t17.5 43.5t43.5 17.5z" />
    <glyph glyph-name="uni1EAD" unicode="&#x1ead;" horiz-adv-x="1081" 
d="M537 1376l-150 -217h-72l195 275h49l209 -275h-72zM547 1040q391 0 391 -475v-565h-61v252q-55 -124 -164.5 -196t-263.5 -72q-161 0 -259 77t-98 213q0 155 124.5 247.5t326.5 92.5q172 0 334 -61v12q0 69 -8 125.5t-30.5 111.5t-59 93t-96.5 61t-140 23
q-162 0 -250 -86t-55 -234h-66q-38 166 70 273.5t305 107.5zM453 45q130 0 227.5 60t146.5 159.5t50 222.5q-151 66 -330 66q-175 0 -282 -75t-107 -202q0 -108 81 -169.5t214 -61.5zM557 -197q26 0 43.5 -17.5t17.5 -43.5t-17.5 -43.5t-43.5 -17.5t-43.5 17.5t-17.5 43.5
t17.5 43.5t43.5 17.5z" />
    <glyph glyph-name="uni1EAE" unicode="&#x1eae;" horiz-adv-x="1318" 
d="M786 1946l-127 -193h-57l117 193h67zM659 1499q-109 0 -184.5 53t-75.5 148h56q0 -65 51.5 -105.5t152.5 -40.5t151 40.5t50 105.5h58q0 -95 -74.5 -148t-184.5 -53zM1198 0l-172 436h-733l-172 -436h-70l574 1434h69l574 -1434h-70zM315 494h689l-345 872z" />
    <glyph glyph-name="uni1EAF" unicode="&#x1eaf;" horiz-adv-x="1081" 
d="M637 1618l-107 -234h-51l96 234h62zM545 1147q-114 0 -192.5 59t-78.5 166h62q0 -78 52.5 -123t156.5 -45t154.5 45t50.5 123h61q0 -108 -76 -166.5t-190 -58.5zM547 1040q391 0 391 -475v-565h-61v252q-55 -124 -164.5 -196t-263.5 -72q-161 0 -259 77t-98 213
q0 155 124.5 247.5t326.5 92.5q172 0 334 -61v12q0 69 -8 125.5t-30.5 111.5t-59 93t-96.5 61t-140 23q-162 0 -250 -86t-55 -234h-66q-38 166 70 273.5t305 107.5zM453 45q130 0 227.5 60t146.5 159.5t50 222.5q-151 66 -330 66q-175 0 -282 -75t-107 -202
q0 -108 81 -169.5t214 -61.5z" />
    <glyph glyph-name="uni1EB0" unicode="&#x1eb0;" horiz-adv-x="1318" 
d="M727 1753h-51l-127 193h61zM659 1499q-109 0 -184.5 53t-75.5 148h56q0 -65 51.5 -105.5t152.5 -40.5t151 40.5t50 105.5h58q0 -95 -74.5 -148t-184.5 -53zM1198 0l-172 436h-733l-172 -436h-70l574 1434h69l574 -1434h-70zM315 494h689l-345 872z" />
    <glyph glyph-name="uni1EB1" unicode="&#x1eb1;" horiz-adv-x="1081" 
d="M594 1384h-51l-107 234h62zM545 1147q-114 0 -192.5 59t-78.5 166h62q0 -78 52.5 -123t156.5 -45t154.5 45t50.5 123h61q0 -108 -76 -166.5t-190 -58.5zM547 1040q391 0 391 -475v-565h-61v252q-55 -124 -164.5 -196t-263.5 -72q-161 0 -259 77t-98 213
q0 155 124.5 247.5t326.5 92.5q172 0 334 -61v12q0 69 -8 125.5t-30.5 111.5t-59 93t-96.5 61t-140 23q-162 0 -250 -86t-55 -234h-66q-38 166 70 273.5t305 107.5zM453 45q130 0 227.5 60t146.5 159.5t50 222.5q-151 66 -330 66q-175 0 -282 -75t-107 -202
q0 -108 81 -169.5t214 -61.5z" />
    <glyph glyph-name="uni1EB2" unicode="&#x1eb2;" horiz-adv-x="1318" 
d="M766 1886q0 94 -211 66v45q116 21 192 -7.5t76 -101.5q0 -51 -44 -88t-122 -49l-12 47q56 7 88.5 31.5t32.5 56.5zM659 1499q-109 0 -184.5 53t-75.5 148h56q0 -65 51.5 -105.5t152.5 -40.5t151 40.5t50 105.5h58q0 -95 -74.5 -148t-184.5 -53zM1198 0l-172 436h-733
l-172 -436h-70l574 1434h69l574 -1434h-70zM315 494h689l-345 872z" />
    <glyph glyph-name="uni1EB3" unicode="&#x1eb3;" horiz-adv-x="1081" 
d="M602 1495q0 60 -55 84t-146 2v49q108 31 184.5 -8t76.5 -123q0 -59 -42 -97t-120 -52l-17 47q119 18 119 98zM545 1147q-114 0 -192.5 59t-78.5 166h62q0 -78 52.5 -123t156.5 -45t154.5 45t50.5 123h61q0 -108 -76 -166.5t-190 -58.5zM547 1040q391 0 391 -475v-565h-61
v252q-55 -124 -164.5 -196t-263.5 -72q-161 0 -259 77t-98 213q0 155 124.5 247.5t326.5 92.5q172 0 334 -61v12q0 69 -8 125.5t-30.5 111.5t-59 93t-96.5 61t-140 23q-162 0 -250 -86t-55 -234h-66q-38 166 70 273.5t305 107.5zM453 45q130 0 227.5 60t146.5 159.5
t50 222.5q-151 66 -330 66q-175 0 -282 -75t-107 -202q0 -108 81 -169.5t214 -61.5z" />
    <glyph glyph-name="uni1EB4" unicode="&#x1eb4;" horiz-adv-x="1318" 
d="M461 1755h-53q-23 76 11 125t103 49q40 0 79.5 -19t67 -42.5t63.5 -42.5t69 -19q84 0 53 121h55q20 -74 -8.5 -124t-99.5 -50q-39 0 -79 19t-67.5 42.5t-64 42.5t-68.5 19q-49 0 -64 -38.5t3 -82.5zM659 1554q101 0 151 40.5t50 105.5h58q0 -95 -74.5 -148t-184.5 -53
q-109 0 -184.5 53t-75.5 148h56q0 -65 51.5 -105.5t152.5 -40.5zM1198 0l-172 436h-733l-172 -436h-70l574 1434h69l574 -1434h-70zM315 494h689l-345 872z" />
    <glyph glyph-name="uni1EB5" unicode="&#x1eb5;" horiz-adv-x="1081" 
d="M348 1446h-51q-21 74 12.5 123t100.5 49q38 0 90.5 -30t100.5 -59.5t77 -29.5q46 0 58 37.5t-5 81.5h53q20 -73 -7 -122.5t-99 -49.5q-36 0 -88.5 30t-101.5 59.5t-78 29.5q-47 0 -63.5 -38t1.5 -81zM545 1147q-114 0 -192.5 59t-78.5 166h62q0 -78 52.5 -123t156.5 -45
t154.5 45t50.5 123h61q0 -108 -76 -166.5t-190 -58.5zM547 1040q391 0 391 -475v-565h-61v252q-55 -124 -164.5 -196t-263.5 -72q-161 0 -259 77t-98 213q0 155 124.5 247.5t326.5 92.5q172 0 334 -61v12q0 69 -8 125.5t-30.5 111.5t-59 93t-96.5 61t-140 23
q-162 0 -250 -86t-55 -234h-66q-38 166 70 273.5t305 107.5zM453 45q130 0 227.5 60t146.5 159.5t50 222.5q-151 66 -330 66q-175 0 -282 -75t-107 -202q0 -108 81 -169.5t214 -61.5z" />
    <glyph glyph-name="uni1EB6" unicode="&#x1eb6;" horiz-adv-x="1318" 
d="M659 1499q-109 0 -184.5 53t-75.5 148h56q0 -65 51.5 -105.5t152.5 -40.5t151 40.5t50 105.5h58q0 -95 -74.5 -148t-184.5 -53zM1268 0h-70l-172 436h-733l-172 -436h-70l574 1434h69zM315 494h689l-345 872zM659 -197q26 0 44 -17.5t18 -43.5t-18 -43.5t-44 -17.5
t-43.5 17.5t-17.5 43.5t17.5 43.5t43.5 17.5z" />
    <glyph glyph-name="uni1EB7" unicode="&#x1eb7;" horiz-adv-x="1081" 
d="M545 1188q-114 0 -192.5 64.5t-78.5 181.5h62q0 -88 52.5 -138.5t156.5 -50.5t154.5 50.5t50.5 138.5h61q0 -118 -76 -182t-190 -64zM547 1040q391 0 391 -475v-565h-61v252q-55 -124 -164.5 -196t-263.5 -72q-161 0 -259 77t-98 213q0 155 124.5 247.5t326.5 92.5
q172 0 334 -61v12q0 69 -8 125.5t-30.5 111.5t-59 93t-96.5 61t-140 23q-162 0 -250 -86t-55 -234h-66q-38 166 70 273.5t305 107.5zM453 45q130 0 227.5 60t146.5 159.5t50 222.5q-151 66 -330 66q-175 0 -282 -75t-107 -202q0 -108 81 -169.5t214 -61.5zM557 -197
q26 0 43.5 -17.5t17.5 -43.5t-17.5 -43.5t-43.5 -17.5t-43.5 17.5t-17.5 43.5t17.5 43.5t43.5 17.5z" />
    <glyph glyph-name="uni1EB8" unicode="&#x1eb8;" horiz-adv-x="1280" 
d="M276 57h871v-57h-932v1434h911v-58h-850v-588h742v-57h-742v-674zM676 -197q26 0 43.5 -17.5t17.5 -43.5t-17.5 -43.5t-43.5 -17.5t-44 17.5t-18 43.5t18 43.5t44 17.5z" />
    <glyph glyph-name="uni1EB9" unicode="&#x1eb9;" horiz-adv-x="1122" 
d="M958 297h72q-57 -146 -179.5 -229.5t-281.5 -83.5q-211 0 -344 145.5t-133 384.5q0 238 134 382t349 144q83 0 155.5 -23t126 -63t92 -95.5t56 -120t15 -138t-28.5 -147.5h-831q19 -186 130.5 -297t280.5 -111q129 0 232.5 67t154.5 185zM578 979q-188 0 -304 -127.5
t-116 -337.5v-4h786q28 123 -8 230.5t-131 173t-227 65.5zM569 -197q26 0 44 -17.5t18 -43.5t-18 -43.5t-44 -17.5t-43.5 17.5t-17.5 43.5t17.5 43.5t43.5 17.5z" />
    <glyph glyph-name="uni1EBA" unicode="&#x1eba;" horiz-adv-x="1280" 
d="M782 1640q0 94 -211 66v45q116 21 192.5 -7.5t76.5 -101.5q0 -51 -44 -88t-122 -49l-12 47q56 7 88 31.5t32 56.5zM276 57h871v-57h-932v1434h911v-58h-850v-588h742v-57h-742v-674z" />
    <glyph glyph-name="uni1EBB" unicode="&#x1ebb;" horiz-adv-x="1122" 
d="M672 1280q0 78 -68.5 102.5t-159.5 -2.5v54q75 19 140.5 12t109 -49.5t43.5 -108.5q0 -134 -182 -172l-18 49q67 10 101 40t34 75zM958 297h72q-57 -146 -179.5 -229.5t-281.5 -83.5q-211 0 -344 145.5t-133 384.5q0 238 134 382t349 144q83 0 155.5 -23t126 -63
t92 -95.5t56 -120t15 -138t-28.5 -147.5h-831q19 -186 130.5 -297t280.5 -111q129 0 232.5 67t154.5 185zM578 979q-188 0 -304 -127.5t-116 -337.5v-4h786q28 123 -8 230.5t-131 173t-227 65.5z" />
    <glyph glyph-name="uni1EBC" unicode="&#x1ebc;" horiz-adv-x="1280" 
d="M477 1509h-53q-23 76 11.5 125t103.5 49q40 0 79.5 -19t66.5 -42t63 -42t69 -19q83 0 53 120h56q20 -73 -9 -123.5t-100 -50.5q-39 0 -79 19t-67.5 42.5t-63.5 42.5t-68 19q-49 0 -64.5 -38.5t2.5 -82.5zM276 57h871v-57h-932v1434h911v-58h-850v-588h742v-57h-742v-674z
" />
    <glyph glyph-name="uni1EBD" unicode="&#x1ebd;" horiz-adv-x="1122" 
d="M354 1196h-55q-24 80 12.5 133t108.5 53q41 0 82 -20t70 -44.5t67 -44.5t72 -20q49 0 61.5 39.5t-4.5 89.5h57q21 -79 -8.5 -132.5t-105.5 -53.5q-41 0 -83 20t-71 44.5t-66.5 44.5t-70.5 20q-51 0 -68.5 -41.5t2.5 -87.5zM958 297h72q-57 -146 -179.5 -229.5
t-281.5 -83.5q-211 0 -344 145.5t-133 384.5q0 238 134 382t349 144q83 0 155.5 -23t126 -63t92 -95.5t56 -120t15 -138t-28.5 -147.5h-831q19 -186 130.5 -297t280.5 -111q129 0 232.5 67t154.5 185zM578 979q-188 0 -304 -127.5t-116 -337.5v-4h786q28 123 -8 230.5
t-131 173t-227 65.5z" />
    <glyph glyph-name="uni1EBE" unicode="&#x1ebe;" horiz-adv-x="1280" 
d="M1069 1774l-127 -193h-57l116 193h68zM670 1655l-181 -148h-81l235 193h49l250 -193h-82zM276 57h871v-57h-932v1434h911v-58h-850v-588h742v-57h-742v-674z" />
    <glyph glyph-name="uni1EBF" unicode="&#x1ebf;" horiz-adv-x="1122" 
d="M868 1528l-106 -234h-51l96 234h61zM559 1341l-149 -182h-72l194 234h50l209 -234h-72zM958 297h72q-57 -146 -179.5 -229.5t-281.5 -83.5q-211 0 -344 145.5t-133 384.5q0 238 134 382t349 144q83 0 155.5 -23t126 -63t92 -95.5t56 -120t15 -138t-28.5 -147.5h-831
q19 -186 130.5 -297t280.5 -111q129 0 232.5 67t154.5 185zM578 979q-188 0 -304 -127.5t-116 -337.5v-4h786q28 123 -8 230.5t-131 173t-227 65.5z" />
    <glyph glyph-name="uni1EC0" unicode="&#x1ec0;" horiz-adv-x="1280" 
d="M1010 1581h-52l-127 193h62zM670 1655l-181 -148h-81l235 193h49l250 -193h-82zM276 57h871v-57h-932v1434h911v-58h-850v-588h742v-57h-742v-674z" />
    <glyph glyph-name="uni1EC1" unicode="&#x1ec1;" horiz-adv-x="1122" 
d="M825 1294h-51l-106 234h61zM559 1341l-149 -182h-72l194 234h50l209 -234h-72zM958 297h72q-57 -146 -179.5 -229.5t-281.5 -83.5q-211 0 -344 145.5t-133 384.5q0 238 134 382t349 144q83 0 155.5 -23t126 -63t92 -95.5t56 -120t15 -138t-28.5 -147.5h-831
q19 -186 130.5 -297t280.5 -111q129 0 232.5 67t154.5 185zM578 979q-188 0 -304 -127.5t-116 -337.5v-4h786q28 123 -8 230.5t-131 173t-227 65.5z" />
    <glyph glyph-name="uni1EC2" unicode="&#x1ec2;" horiz-adv-x="1280" 
d="M1055 1673q0 94 -211 66v45q116 21 192 -7.5t76 -101.5q0 -51 -44 -88t-122 -49l-12 47q56 7 88.5 31.5t32.5 56.5zM670 1655l-181 -148h-81l235 193h49l250 -193h-82zM276 57h871v-57h-932v1434h911v-58h-850v-588h742v-57h-742v-674z" />
    <glyph glyph-name="uni1EC3" unicode="&#x1ec3;" horiz-adv-x="1122" 
d="M872 1382q0 66 -59 87.5t-139 -1.5v50q100 29 178 -6t78 -121q0 -119 -160 -152l-16 45q118 18 118 98zM559 1341l-149 -182h-72l194 234h50l209 -234h-72zM958 297h72q-57 -146 -179.5 -229.5t-281.5 -83.5q-211 0 -344 145.5t-133 384.5q0 238 134 382t349 144
q83 0 155.5 -23t126 -63t92 -95.5t56 -120t15 -138t-28.5 -147.5h-831q19 -186 130.5 -297t280.5 -111q129 0 232.5 67t154.5 185zM578 979q-188 0 -304 -127.5t-116 -337.5v-4h786q28 123 -8 230.5t-131 173t-227 65.5z" />
    <glyph glyph-name="uni1EC4" unicode="&#x1ec4;" horiz-adv-x="1280" 
d="M477 1755h-53q-23 76 11.5 125t103.5 49q40 0 79.5 -19t66.5 -42.5t63 -42.5t69 -19q84 0 53 121h56q20 -73 -9 -123.5t-100 -50.5q-39 0 -79 19t-67.5 42.5t-63.5 42.5t-68 19q-49 0 -64.5 -38.5t2.5 -82.5zM670 1655l-181 -148h-81l235 193h49l250 -193h-82zM276 57
h871v-57h-932v1434h911v-58h-850v-588h742v-57h-742v-674z" />
    <glyph glyph-name="uni1EC5" unicode="&#x1ec5;" horiz-adv-x="1122" 
d="M367 1411h-52q-21 74 12.5 123t100.5 49q38 0 90.5 -30t100.5 -59.5t77 -29.5q46 0 58.5 37.5t-4.5 81.5h53q20 -73 -7.5 -122.5t-99.5 -49.5q-36 0 -88.5 30t-101.5 59.5t-78 29.5q-47 0 -63 -38t2 -81zM532 1393h50l209 -234h-72l-160 182l-149 -182h-72zM958 297h72
q-57 -146 -179.5 -229.5t-281.5 -83.5q-211 0 -344 145.5t-133 384.5q0 238 134 382t349 144q83 0 155.5 -23t126 -63t92 -95.5t56 -120t15 -138t-28.5 -147.5h-831q19 -186 130.5 -297t280.5 -111q129 0 232.5 67t154.5 185zM578 979q-188 0 -304 -127.5t-116 -337.5v-4
h786q28 123 -8 230.5t-131 173t-227 65.5z" />
    <glyph glyph-name="uni1EC6" unicode="&#x1ec6;" horiz-adv-x="1280" 
d="M670 1655l-181 -148h-81l235 193h49l250 -193h-82zM276 57h871v-57h-932v1434h911v-58h-850v-588h742v-57h-742v-674zM676 -197q26 0 43.5 -17.5t17.5 -43.5t-17.5 -43.5t-43.5 -17.5t-44 17.5t-18 43.5t18 43.5t44 17.5z" />
    <glyph glyph-name="uni1EC7" unicode="&#x1ec7;" horiz-adv-x="1122" 
d="M555 1376l-149 -217h-72l194 275h50l208 -275h-71zM958 297h72q-57 -146 -179.5 -229.5t-281.5 -83.5q-211 0 -344 145.5t-133 384.5q0 238 134 382t349 144q83 0 155.5 -23t126 -63t92 -95.5t56 -120t15 -138t-28.5 -147.5h-831q19 -186 130.5 -297t280.5 -111
q129 0 232.5 67t154.5 185zM578 979q-188 0 -304 -127.5t-116 -337.5v-4h786q28 123 -8 230.5t-131 173t-227 65.5zM569 -197q26 0 44 -17.5t18 -43.5t-18 -43.5t-44 -17.5t-43.5 17.5t-17.5 43.5t17.5 43.5t43.5 17.5z" />
    <glyph glyph-name="uni1EC8" unicode="&#x1ec8;" horiz-adv-x="491" 
d="M244 1505l-13 47q56 7 88.5 31.5t32.5 56.5q0 94 -211 66v45q116 21 192.5 -7.5t76.5 -101.5q0 -51 -44 -88t-122 -49zM215 0v1434h61v-1434h-61z" />
    <glyph glyph-name="uni1EC9" unicode="&#x1ec9;" horiz-adv-x="389" 
d="M188 1116l-18 49q67 10 101 40t34 75q0 78 -68 102.5t-159 -2.5v54q75 19 140.5 12t109 -49.5t43.5 -108.5q0 -133 -183 -172zM164 0v1024h61v-1024h-61z" />
    <glyph glyph-name="uni1ECA" unicode="&#x1eca;" horiz-adv-x="491" 
d="M215 0v1434h61v-1434h-61zM246 -319q-26 0 -44 17.5t-18 43.5t18 43.5t44 17.5t43.5 -17.5t17.5 -43.5t-17.5 -43.5t-43.5 -17.5z" />
    <glyph glyph-name="uni1ECB" unicode="&#x1ecb;" horiz-adv-x="389" 
d="M195 1221q-26 0 -44 17.5t-18 43.5t18 43.5t44 17.5t43.5 -17.5t17.5 -43.5t-17.5 -43.5t-43.5 -17.5zM164 0v1024h61v-1024h-61zM195 -319q-26 0 -44 17.5t-18 43.5t18 43.5t44 17.5t43.5 -17.5t17.5 -43.5t-17.5 -43.5t-43.5 -17.5z" />
    <glyph glyph-name="uni1ECC" unicode="&#x1ecc;" horiz-adv-x="1624" 
d="M813 -16q-196 0 -351.5 93.5t-242 261.5t-86.5 380q0 211 86.5 378t242 260t351.5 93t351 -93t241 -260t86 -378q0 -212 -86 -380t-241 -261.5t-351 -93.5zM813 45q176 0 315.5 86t218 240t78.5 348q0 193 -78.5 346t-218 238.5t-315.5 85.5q-177 0 -317 -85.5
t-218.5 -238.5t-78.5 -346q0 -194 78.5 -348t218.5 -240t317 -86zM813 -319q-26 0 -43.5 17.5t-17.5 43.5t17.5 43.5t43.5 17.5t43.5 -17.5t17.5 -43.5t-17.5 -43.5t-43.5 -17.5z" />
    <glyph glyph-name="uni1ECD" unicode="&#x1ecd;" horiz-adv-x="1157" 
d="M580 -16q-220 0 -354 145t-134 383t134 383t354 145q218 0 351.5 -145t133.5 -383t-133.5 -383t-351.5 -145zM580 45q189 0 304 128t115 339t-115 339t-304 128q-190 0 -306 -128t-116 -339t116 -339t306 -128zM580 -319q-26 0 -44 17.5t-18 43.5t18 43.5t44 17.5
t43.5 -17.5t17.5 -43.5t-17.5 -43.5t-43.5 -17.5z" />
    <glyph glyph-name="uni1ECE" unicode="&#x1ece;" horiz-adv-x="1624" 
d="M811 1505l-12 47q56 7 88.5 31.5t32.5 56.5q0 94 -211 66v45q116 21 192 -7.5t76 -101.5q0 -51 -44 -88t-122 -49zM813 -16q-196 0 -351.5 93.5t-242 261.5t-86.5 380q0 211 86.5 378t242 260t351.5 93t351 -93t241 -260t86 -378q0 -212 -86 -380t-241 -261.5t-351 -93.5
zM813 45q176 0 315.5 86t218 240t78.5 348q0 193 -78.5 346t-218 238.5t-315.5 85.5q-177 0 -317 -85.5t-218.5 -238.5t-78.5 -346q0 -194 78.5 -348t218.5 -240t317 -86z" />
    <glyph glyph-name="uni1ECF" unicode="&#x1ecf;" horiz-adv-x="1157" 
d="M573 1116l-18 49q67 10 101 40t34 75q0 78 -68 102.5t-159 -2.5v54q75 19 140.5 12t109 -49.5t43.5 -108.5q0 -133 -183 -172zM580 -16q-220 0 -354 145t-134 383t134 383t354 145q218 0 351.5 -145t133.5 -383t-133.5 -383t-351.5 -145zM580 45q189 0 304 128t115 339
t-115 339t-304 128q-190 0 -306 -128t-116 -339t116 -339t306 -128z" />
    <glyph glyph-name="uni1ED0" unicode="&#x1ed0;" horiz-adv-x="1624" 
d="M1206 1774l-127 -193h-57l117 193h67zM807 1655l-180 -148h-82l235 193h49l250 -193h-82zM813 1450q196 0 351 -93t241 -260t86 -378q0 -212 -86 -380t-241 -261.5t-351 -93.5t-351.5 93.5t-242 261.5t-86.5 380q0 211 86.5 378t242 260t351.5 93zM813 45q176 0 315.5 86
t218 240t78.5 348q0 193 -78.5 346t-218 238.5t-315.5 85.5q-177 0 -317 -85.5t-218.5 -238.5t-78.5 -346q0 -194 78.5 -348t218.5 -240t317 -86z" />
    <glyph glyph-name="uni1ED1" unicode="&#x1ed1;" horiz-adv-x="1157" 
d="M887 1528l-107 -234h-51l96 234h62zM578 1341l-150 -182h-72l195 234h49l209 -234h-72zM580 1040q218 0 351.5 -145t133.5 -383t-133.5 -383t-351.5 -145q-220 0 -354 145t-134 383t134 383t354 145zM580 45q189 0 304 128t115 339t-115 339t-304 128q-190 0 -306 -128
t-116 -339t116 -339t306 -128z" />
    <glyph glyph-name="uni1ED2" unicode="&#x1ed2;" horiz-adv-x="1624" 
d="M1147 1581h-51l-127 193h61zM807 1655l-180 -148h-82l235 193h49l250 -193h-82zM813 1450q196 0 351 -93t241 -260t86 -378q0 -212 -86 -380t-241 -261.5t-351 -93.5t-351.5 93.5t-242 261.5t-86.5 380q0 211 86.5 378t242 260t351.5 93zM813 45q176 0 315.5 86t218 240
t78.5 348q0 193 -78.5 346t-218 238.5t-315.5 85.5q-177 0 -317 -85.5t-218.5 -238.5t-78.5 -346q0 -194 78.5 -348t218.5 -240t317 -86z" />
    <glyph glyph-name="uni1ED3" unicode="&#x1ed3;" horiz-adv-x="1157" 
d="M844 1294h-51l-107 234h62zM578 1341l-150 -182h-72l195 234h49l209 -234h-72zM580 1040q218 0 351.5 -145t133.5 -383t-133.5 -383t-351.5 -145q-220 0 -354 145t-134 383t134 383t354 145zM580 45q189 0 304 128t115 339t-115 339t-304 128q-190 0 -306 -128t-116 -339
t116 -339t306 -128z" />
    <glyph glyph-name="uni1ED4" unicode="&#x1ed4;" horiz-adv-x="1624" 
d="M1192 1673q0 94 -211 66v45q116 21 192 -7.5t76 -101.5q0 -51 -44 -88t-122 -49l-12 47q56 7 88.5 31.5t32.5 56.5zM807 1655l-180 -148h-82l235 193h49l250 -193h-82zM813 1450q196 0 351 -93t241 -260t86 -378q0 -212 -86 -380t-241 -261.5t-351 -93.5t-351.5 93.5
t-242 261.5t-86.5 380q0 211 86.5 378t242 260t351.5 93zM813 45q176 0 315.5 86t218 240t78.5 348q0 193 -78.5 346t-218 238.5t-315.5 85.5q-177 0 -317 -85.5t-218.5 -238.5t-78.5 -346q0 -194 78.5 -348t218.5 -240t317 -86z" />
    <glyph glyph-name="uni1ED5" unicode="&#x1ed5;" horiz-adv-x="1157" 
d="M891 1382q0 44 -28 69t-72.5 27t-98.5 -10v50q100 29 178 -6t78 -121q0 -119 -160 -152l-16 45q59 9 89 34.5t30 63.5zM578 1341l-150 -182h-72l195 234h49l209 -234h-72zM580 1040q218 0 351.5 -145t133.5 -383t-133.5 -383t-351.5 -145q-220 0 -354 145t-134 383
t134 383t354 145zM580 45q189 0 304 128t115 339t-115 339t-304 128q-190 0 -306 -128t-116 -339t116 -339t306 -128z" />
    <glyph glyph-name="uni1ED6" unicode="&#x1ed6;" horiz-adv-x="1624" 
d="M614 1755h-53q-23 76 11.5 125t103.5 49q40 0 79.5 -19t66.5 -42.5t63 -42.5t69 -19q85 0 54 121h55q20 -73 -9 -123.5t-100 -50.5q-39 0 -79 19t-67.5 42.5t-63.5 42.5t-68 19q-49 0 -64.5 -38.5t2.5 -82.5zM807 1655l-180 -148h-82l235 193h49l250 -193h-82zM813 1450
q196 0 351 -93t241 -260t86 -378q0 -212 -86 -380t-241 -261.5t-351 -93.5t-351.5 93.5t-242 261.5t-86.5 380q0 211 86.5 378t242 260t351.5 93zM813 45q176 0 315.5 86t218 240t78.5 348q0 193 -78.5 346t-218 238.5t-315.5 85.5q-177 0 -317 -85.5t-218.5 -238.5
t-78.5 -346q0 -194 78.5 -348t218.5 -240t317 -86z" />
    <glyph glyph-name="uni1ED7" unicode="&#x1ed7;" horiz-adv-x="1157" 
d="M385 1411h-51q-21 74 12 123t100 49q38 0 90.5 -30t101 -59.5t77.5 -29.5q46 0 58 37.5t-5 81.5h53q20 -73 -7 -122.5t-99 -49.5q-36 0 -88.5 30t-102 59.5t-78.5 29.5q-47 0 -63 -38t2 -81zM551 1393h49l209 -234h-72l-159 182l-150 -182h-72zM580 1040
q218 0 351.5 -145t133.5 -383t-133.5 -383t-351.5 -145q-220 0 -354 145t-134 383t134 383t354 145zM580 45q189 0 304 128t115 339t-115 339t-304 128q-190 0 -306 -128t-116 -339t116 -339t306 -128z" />
    <glyph glyph-name="uni1ED8" unicode="&#x1ed8;" horiz-adv-x="1624" 
d="M807 1655l-180 -148h-82l235 193h49l250 -193h-82zM813 1450q196 0 351 -93t241 -260t86 -378q0 -212 -86 -380t-241 -261.5t-351 -93.5t-351.5 93.5t-242 261.5t-86.5 380q0 211 86.5 378t242 260t351.5 93zM813 45q176 0 315.5 86t218 240t78.5 348q0 193 -78.5 346
t-218 238.5t-315.5 85.5q-177 0 -317 -85.5t-218.5 -238.5t-78.5 -346q0 -194 78.5 -348t218.5 -240t317 -86zM813 -197q26 0 43.5 -17.5t17.5 -43.5t-17.5 -43.5t-43.5 -17.5t-43.5 17.5t-17.5 43.5t17.5 43.5t43.5 17.5z" />
    <glyph glyph-name="uni1ED9" unicode="&#x1ed9;" horiz-adv-x="1157" 
d="M573 1376l-149 -217h-72l195 275h49l209 -275h-72zM580 1040q218 0 351.5 -145t133.5 -383t-133.5 -383t-351.5 -145q-220 0 -354 145t-134 383t134 383t354 145zM580 45q189 0 304 128t115 339t-115 339t-304 128q-190 0 -306 -128t-116 -339t116 -339t306 -128z
M580 -197q26 0 43.5 -17.5t17.5 -43.5t-17.5 -43.5t-43.5 -17.5t-44 17.5t-18 43.5t18 43.5t44 17.5z" />
    <glyph glyph-name="uni1EDA" unicode="&#x1eda;" horiz-adv-x="1624" 
d="M940 1700l-127 -193h-57l116 193h68zM1212 1325q131 -98 205 -255.5t74 -350.5q0 -212 -86 -380t-241 -261.5t-351 -93.5t-351.5 93.5t-242 261.5t-86.5 380q0 211 86.5 378t242 260t351.5 93q197 0 354 -96q87 53 116.5 115.5t8.5 142.5h56q48 -177 -136 -287zM813 45
q176 0 315.5 86t218 240t78.5 348q0 193 -78.5 346t-218 238.5t-315.5 85.5q-177 0 -317 -85.5t-218.5 -238.5t-78.5 -346q0 -194 78.5 -348t218.5 -240t317 -86z" />
    <glyph glyph-name="uni1EDB" unicode="&#x1edb;" horiz-adv-x="1167" 
d="M686 1434l-133 -275h-53l116 275h70zM831 975q110 -65 172 -185t62 -278q0 -238 -133.5 -383t-351.5 -145q-220 0 -354 145t-134 383t134 383t354 145q37 0 84.5 -3t81 -6t71 -3.5t61.5 3t45.5 14t31 30t9.5 51.5t-12 76h56q30 -111 -17 -177.5t-160 -49.5zM580 45
q189 0 304 128t115 339t-115 339t-304 128q-190 0 -306 -128t-116 -339t116 -339t306 -128z" />
    <glyph glyph-name="uni1EDC" unicode="&#x1edc;" horiz-adv-x="1624" 
d="M881 1507h-52l-127 193h62zM1212 1325q131 -98 205 -255.5t74 -350.5q0 -212 -86 -380t-241 -261.5t-351 -93.5t-351.5 93.5t-242 261.5t-86.5 380q0 211 86.5 378t242 260t351.5 93q197 0 354 -96q87 53 116.5 115.5t8.5 142.5h56q48 -177 -136 -287zM813 45
q176 0 315.5 86t218 240t78.5 348q0 193 -78.5 346t-218 238.5t-315.5 85.5q-177 0 -317 -85.5t-218.5 -238.5t-78.5 -346q0 -194 78.5 -348t218.5 -240t317 -86z" />
    <glyph glyph-name="uni1EDD" unicode="&#x1edd;" horiz-adv-x="1167" 
d="M641 1159h-53l-133 275h69zM831 975q110 -65 172 -185t62 -278q0 -238 -133.5 -383t-351.5 -145q-220 0 -354 145t-134 383t134 383t354 145q37 0 84.5 -3t81 -6t71 -3.5t61.5 3t45.5 14t31 30t9.5 51.5t-12 76h56q30 -111 -17 -177.5t-160 -49.5zM580 45q189 0 304 128
t115 339t-115 339t-304 128q-190 0 -306 -128t-116 -339t116 -339t306 -128z" />
    <glyph glyph-name="uni1EDE" unicode="&#x1ede;" horiz-adv-x="1624" 
d="M920 1640q0 94 -211 66v45q116 21 192 -7.5t76 -101.5q0 -51 -44 -88t-122 -49l-12 47q56 7 88.5 31.5t32.5 56.5zM1212 1325q131 -98 205 -255.5t74 -350.5q0 -212 -86 -380t-241 -261.5t-351 -93.5t-351.5 93.5t-242 261.5t-86.5 380q0 211 86.5 378t242 260t351.5 93
q197 0 354 -96q87 53 116.5 115.5t8.5 142.5h56q48 -177 -136 -287zM813 45q176 0 315.5 86t218 240t78.5 348q0 193 -78.5 346t-218 238.5t-315.5 85.5q-177 0 -317 -85.5t-218.5 -238.5t-78.5 -346q0 -194 78.5 -348t218.5 -240t317 -86z" />
    <glyph glyph-name="uni1EDF" unicode="&#x1edf;" horiz-adv-x="1167" 
d="M690 1280q0 78 -68 102.5t-159 -2.5v54q75 19 140.5 12t109 -49.5t43.5 -108.5q0 -133 -183 -172l-18 49q67 10 101 40t34 75zM831 975q110 -65 172 -185t62 -278q0 -238 -133.5 -383t-351.5 -145q-220 0 -354 145t-134 383t134 383t354 145q37 0 84.5 -3t81 -6t71 -3.5
t61.5 3t45.5 14t31 30t9.5 51.5t-12 76h56q30 -111 -17 -177.5t-160 -49.5zM580 45q189 0 304 128t115 339t-115 339t-304 128q-190 0 -306 -128t-116 -339t116 -339t306 -128z" />
    <glyph glyph-name="uni1EE0" unicode="&#x1ee0;" horiz-adv-x="1624" 
d="M614 1509h-53q-23 76 11.5 125t103.5 49q40 0 79.5 -19t66.5 -42t63 -42t69 -19q84 0 54 120h55q20 -73 -9 -123.5t-100 -50.5q-39 0 -79 19t-67.5 42.5t-63.5 42.5t-68 19q-49 0 -64.5 -38.5t2.5 -82.5zM1212 1325q131 -98 205 -255.5t74 -350.5q0 -212 -86 -380
t-241 -261.5t-351 -93.5t-351.5 93.5t-242 261.5t-86.5 380q0 211 86.5 378t242 260t351.5 93q197 0 354 -96q87 53 116.5 115.5t8.5 142.5h56q48 -177 -136 -287zM813 45q176 0 315.5 86t218 240t78.5 348q0 193 -78.5 346t-218 238.5t-315.5 85.5q-177 0 -317 -85.5
t-218.5 -238.5t-78.5 -346q0 -194 78.5 -348t218.5 -240t317 -86z" />
    <glyph glyph-name="uni1EE1" unicode="&#x1ee1;" horiz-adv-x="1167" 
d="M393 1196h-55q-24 80 12.5 133t108.5 53q35 0 70.5 -20t60 -44.5t57 -44.5t62.5 -20q49 0 61.5 39.5t-4.5 89.5h57q21 -79 -8.5 -132.5t-105.5 -53.5q-36 0 -72 20t-60.5 44.5t-57 44.5t-60.5 20q-51 0 -68.5 -41.5t2.5 -87.5zM831 975q110 -65 172 -185t62 -278
q0 -238 -133.5 -383t-351.5 -145q-220 0 -354 145t-134 383t134 383t354 145q37 0 84.5 -3t81 -6t71 -3.5t61.5 3t45.5 14t31 30t9.5 51.5t-12 76h56q30 -111 -17 -177.5t-160 -49.5zM580 45q189 0 304 128t115 339t-115 339t-304 128q-190 0 -306 -128t-116 -339t116 -339
t306 -128z" />
    <glyph glyph-name="uni1EE2" unicode="&#x1ee2;" horiz-adv-x="1624" 
d="M1212 1325q131 -98 205 -255.5t74 -350.5q0 -212 -86 -380t-241 -261.5t-351 -93.5t-351.5 93.5t-242 261.5t-86.5 380q0 211 86.5 378t242 260t351.5 93q197 0 354 -96q87 53 116.5 115.5t8.5 142.5h56q48 -177 -136 -287zM813 45q176 0 315.5 86t218 240t78.5 348
q0 193 -78.5 346t-218 238.5t-315.5 85.5q-177 0 -317 -85.5t-218.5 -238.5t-78.5 -346q0 -194 78.5 -348t218.5 -240t317 -86zM813 -197q26 0 43.5 -17.5t17.5 -43.5t-17.5 -43.5t-43.5 -17.5t-43.5 17.5t-17.5 43.5t17.5 43.5t43.5 17.5z" />
    <glyph glyph-name="uni1EE3" unicode="&#x1ee3;" horiz-adv-x="1167" 
d="M831 975q110 -65 172 -185t62 -278q0 -238 -133.5 -383t-351.5 -145q-220 0 -354 145t-134 383t134 383t354 145q37 0 84.5 -3t81 -6t71 -3.5t61.5 3t45.5 14t31 30t9.5 51.5t-12 76h56q30 -111 -17 -177.5t-160 -49.5zM580 45q189 0 304 128t115 339t-115 339t-304 128
q-190 0 -306 -128t-116 -339t116 -339t306 -128zM580 -197q26 0 43.5 -17.5t17.5 -43.5t-17.5 -43.5t-43.5 -17.5t-44 17.5t-18 43.5t18 43.5t44 17.5z" />
    <glyph glyph-name="uni1EE4" unicode="&#x1ee4;" horiz-adv-x="1466" 
d="M733 -14q-269 0 -398.5 160t-129.5 491v797h61v-797q0 -302 114.5 -448t352.5 -146t352.5 146t114.5 448v797h62v-797q0 -331 -130 -491t-399 -160zM733 -319q-26 0 -43.5 17.5t-17.5 43.5t17.5 43.5t43.5 17.5t44 -17.5t18 -43.5t-18 -43.5t-44 -17.5z" />
    <glyph glyph-name="uni1EE5" unicode="&#x1ee5;" horiz-adv-x="1091" 
d="M877 1024h61v-1024h-61v264q-60 -136 -167.5 -208t-238.5 -72q-75 0 -133.5 24.5t-94.5 64.5t-59 96.5t-32 114.5t-9 124v616h62v-616q0 -50 6 -95.5t23.5 -96.5t46 -87t78 -60t114.5 -24q73 0 142 28.5t129 84.5t96.5 152t36.5 218v496zM526 -197q26 0 44 -17.5
t18 -43.5t-18 -43.5t-44 -17.5t-43.5 17.5t-17.5 43.5t17.5 43.5t43.5 17.5z" />
    <glyph glyph-name="uni1EE6" unicode="&#x1ee6;" horiz-adv-x="1466" 
d="M731 1505l-12 47q56 7 88.5 31.5t32.5 56.5q0 94 -211 66v45q116 21 192 -7.5t76 -101.5q0 -51 -44 -88t-122 -49zM733 -14q-269 0 -398.5 160t-129.5 491v797h61v-797q0 -302 114.5 -448t352.5 -146t352.5 146t114.5 448v797h62v-797q0 -331 -130 -491t-399 -160z" />
    <glyph glyph-name="uni1EE7" unicode="&#x1ee7;" horiz-adv-x="1091" 
d="M651 1280q0 78 -68 102.5t-159 -2.5v54q75 19 140.5 12t109 -49.5t43.5 -108.5q0 -134 -182 -172l-19 49q67 10 101 40t34 75zM877 1024h61v-1024h-61v264q-60 -136 -167.5 -208t-238.5 -72q-75 0 -133.5 24.5t-94.5 64.5t-59 96.5t-32 114.5t-9 124v616h62v-616
q0 -50 6 -95.5t23.5 -96.5t46 -87t78 -60t114.5 -24q73 0 142 28.5t129 84.5t96.5 152t36.5 218v496z" />
    <glyph glyph-name="uni1EE8" unicode="&#x1ee8;" horiz-adv-x="1466" 
d="M860 1700l-127 -193h-57l117 193h67zM1362 1612q27 -98 -5 -160t-95 -70v-745q0 -331 -130 -491t-399 -160t-398.5 160t-129.5 491v797h61v-797q0 -302 114.5 -448t352.5 -146t352.5 146t114.5 448v797h31q19 0 36 7.5t33.5 27t18 54.5t-11.5 89h55z" />
    <glyph glyph-name="uni1EE9" unicode="&#x1ee9;" horiz-adv-x="1132" 
d="M647 1434l-133 -275h-53l117 275h69zM1038 1202q27 -98 -5 -159.5t-95 -69.5v-973h-61v264q-60 -136 -167.5 -208t-238.5 -72q-75 0 -133.5 24.5t-94.5 64.5t-59 96.5t-32 114.5t-9 124v616h62v-616q0 -50 6 -95.5t23.5 -96.5t46 -87t78 -60t114.5 -24q73 0 142 28.5
t129 84.5t96.5 152t36.5 218v496h30q19 0 36 7.5t33.5 27t18 54.5t-11.5 89h55z" />
    <glyph glyph-name="uni1EEA" unicode="&#x1eea;" horiz-adv-x="1466" 
d="M801 1507h-51l-127 193h61zM1362 1612q27 -98 -5 -160t-95 -70v-745q0 -331 -130 -491t-399 -160t-398.5 160t-129.5 491v797h61v-797q0 -302 114.5 -448t352.5 -146t352.5 146t114.5 448v797h31q19 0 36 7.5t33.5 27t18 54.5t-11.5 89h55z" />
    <glyph glyph-name="uni1EEB" unicode="&#x1eeb;" horiz-adv-x="1132" 
d="M602 1159h-53l-133 275h69zM1038 1202q27 -98 -5 -159.5t-95 -69.5v-973h-61v264q-60 -136 -167.5 -208t-238.5 -72q-75 0 -133.5 24.5t-94.5 64.5t-59 96.5t-32 114.5t-9 124v616h62v-616q0 -50 6 -95.5t23.5 -96.5t46 -87t78 -60t114.5 -24q73 0 142 28.5t129 84.5
t96.5 152t36.5 218v496h30q19 0 36 7.5t33.5 27t18 54.5t-11.5 89h55z" />
    <glyph glyph-name="uni1EEC" unicode="&#x1eec;" horiz-adv-x="1466" 
d="M840 1640q0 94 -211 66v45q116 21 192 -7.5t76 -101.5q0 -51 -44 -88t-122 -49l-12 47q56 7 88.5 31.5t32.5 56.5zM1362 1612q27 -98 -5 -160t-95 -70v-745q0 -331 -130 -491t-399 -160t-398.5 160t-129.5 491v797h61v-797q0 -302 114.5 -448t352.5 -146t352.5 146
t114.5 448v797h31q19 0 36 7.5t33.5 27t18 54.5t-11.5 89h55z" />
    <glyph glyph-name="uni1EED" unicode="&#x1eed;" horiz-adv-x="1132" 
d="M651 1280q0 78 -68 102.5t-159 -2.5v54q75 19 140.5 12t109 -49.5t43.5 -108.5q0 -134 -182 -172l-19 49q67 10 101 40t34 75zM1038 1202q27 -98 -5 -159.5t-95 -69.5v-973h-61v264q-60 -136 -167.5 -208t-238.5 -72q-75 0 -133.5 24.5t-94.5 64.5t-59 96.5t-32 114.5
t-9 124v616h62v-616q0 -50 6 -95.5t23.5 -96.5t46 -87t78 -60t114.5 -24q73 0 142 28.5t129 84.5t96.5 152t36.5 218v496h30q19 0 36 7.5t33.5 27t18 54.5t-11.5 89h55z" />
    <glyph glyph-name="uni1EEE" unicode="&#x1eee;" horiz-adv-x="1466" 
d="M535 1509h-54q-23 76 11.5 125t103.5 49q40 0 79.5 -19t66.5 -42t63 -42t69 -19q84 0 54 120h55q20 -73 -9 -123.5t-100 -50.5q-39 0 -79 19t-67.5 42.5t-63.5 42.5t-68 19q-49 0 -64 -38.5t3 -82.5zM1362 1612q27 -98 -5 -160t-95 -70v-745q0 -331 -130 -491t-399 -160
t-398.5 160t-129.5 491v797h61v-797q0 -302 114.5 -448t352.5 -146t352.5 146t114.5 448v797h31q19 0 36 7.5t33.5 27t18 54.5t-11.5 89h55z" />
    <glyph glyph-name="uni1EEF" unicode="&#x1eef;" horiz-adv-x="1132" 
d="M334 1196h-55q-24 80 12 133t108 53q41 0 82 -20t70 -44.5t67 -44.5t72 -20q49 0 62 39.5t-4 89.5h57q21 -79 -8.5 -132.5t-106.5 -53.5q-41 0 -83 20t-71 44.5t-66.5 44.5t-70.5 20q-51 0 -68 -41.5t3 -87.5zM1038 1202q27 -98 -5 -159.5t-95 -69.5v-973h-61v264
q-60 -136 -167.5 -208t-238.5 -72q-75 0 -133.5 24.5t-94.5 64.5t-59 96.5t-32 114.5t-9 124v616h62v-616q0 -50 6 -95.5t23.5 -96.5t46 -87t78 -60t114.5 -24q73 0 142 28.5t129 84.5t96.5 152t36.5 218v496h30q19 0 36 7.5t33.5 27t18 54.5t-11.5 89h55z" />
    <glyph glyph-name="uni1EF0" unicode="&#x1ef0;" horiz-adv-x="1466" 
d="M1362 1612q27 -98 -5 -160t-95 -70v-745q0 -331 -130 -491t-399 -160t-398.5 160t-129.5 491v797h61v-797q0 -302 114.5 -448t352.5 -146t352.5 146t114.5 448v797h31q19 0 36 7.5t33.5 27t18 54.5t-11.5 89h55zM733 -197q26 0 44 -17.5t18 -43.5t-18 -43.5t-44 -17.5
t-43.5 17.5t-17.5 43.5t17.5 43.5t43.5 17.5z" />
    <glyph glyph-name="uni1EF1" unicode="&#x1ef1;" horiz-adv-x="1132" 
d="M1038 1202q27 -98 -5 -159.5t-95 -69.5v-973h-61v264q-60 -136 -167.5 -208t-238.5 -72q-75 0 -133.5 24.5t-94.5 64.5t-59 96.5t-32 114.5t-9 124v616h62v-616q0 -50 6 -95.5t23.5 -96.5t46 -87t78 -60t114.5 -24q73 0 142 28.5t129 84.5t96.5 152t36.5 218v496h30
q19 0 36 7.5t33.5 27t18 54.5t-11.5 89h55zM526 -197q26 0 44 -17.5t18 -43.5t-18 -43.5t-44 -17.5t-43.5 17.5t-17.5 43.5t17.5 43.5t43.5 17.5z" />
    <glyph glyph-name="Ygrave" unicode="&#x1ef2;" horiz-adv-x="1216" 
d="M676 1507h-51l-127 193h61zM1165 1434l-522 -813v-621h-61v621l-531 813h72l489 -758l482 758h71z" />
    <glyph glyph-name="ygrave" unicode="&#x1ef3;" horiz-adv-x="952" 
d="M539 1159h-54l-133 275h70zM864 1024h68l-408 -1174q-97 -276 -352 -276q-88 0 -152 33v61q65 -33 146 -33q95 0 174.5 54t116.5 166l22 69l-444 1100h71l408 -1008z" />
    <glyph glyph-name="uni1EF4" unicode="&#x1ef4;" horiz-adv-x="1216" 
d="M582 0v621l-531 813h72l489 -758l482 758h71l-522 -813v-621h-61zM608 -197q26 0 44 -17.5t18 -43.5t-18 -43.5t-44 -17.5t-43.5 17.5t-17.5 43.5t17.5 43.5t43.5 17.5z" />
    <glyph glyph-name="uni1EF5" unicode="&#x1ef5;" horiz-adv-x="952" 
d="M864 1024h68l-408 -1174q-97 -276 -352 -276q-88 0 -152 33v61q65 -33 146 -33q95 0 174.5 54t116.5 166l22 69l-444 1100h71l408 -1008zM743 -197q26 0 44 -17.5t18 -43.5t-18 -43.5t-44 -17.5t-43.5 17.5t-17.5 43.5t17.5 43.5t43.5 17.5z" />
    <glyph glyph-name="uni1EF6" unicode="&#x1ef6;" horiz-adv-x="1216" 
d="M715 1640q0 94 -211 66v45q116 21 192 -7.5t76 -101.5q0 -51 -44 -88t-122 -49l-12 47q56 7 88.5 31.5t32.5 56.5zM1165 1434l-522 -813v-621h-61v621l-531 813h72l489 -758l482 758h71z" />
    <glyph glyph-name="uni1EF7" unicode="&#x1ef7;" horiz-adv-x="952" 
d="M588 1280q0 78 -68.5 102.5t-159.5 -2.5v54q75 19 140.5 12t109 -49.5t43.5 -108.5q0 -134 -182 -172l-18 49q67 10 101 40t34 75zM864 1024h68l-408 -1174q-97 -276 -352 -276q-88 0 -152 33v61q65 -33 146 -33q95 0 174.5 54t116.5 166l22 69l-444 1100h71l408 -1008z
" />
    <glyph glyph-name="uni1EF8" unicode="&#x1ef8;" horiz-adv-x="1216" 
d="M410 1509h-54q-23 76 11.5 125t103.5 49q40 0 79.5 -19t67 -42t63.5 -42t69 -19q83 0 53 120h55q20 -74 -8.5 -124t-99.5 -50q-39 0 -79 19t-67.5 42.5t-64 42.5t-68.5 19q-49 0 -64 -38.5t3 -82.5zM1165 1434l-522 -813v-621h-61v621l-531 813h72l489 -758l482 758h71z
" />
    <glyph glyph-name="uni1EF9" unicode="&#x1ef9;" horiz-adv-x="952" 
d="M270 1196h-55q-24 80 12.5 133t108.5 53q41 0 82 -20t70 -44.5t67 -44.5t72 -20q49 0 61.5 39.5t-4.5 89.5h57q21 -79 -8.5 -132.5t-105.5 -53.5q-41 0 -83 20t-71 44.5t-66.5 44.5t-70.5 20q-51 0 -68.5 -41.5t2.5 -87.5zM864 1024h68l-408 -1174q-97 -276 -352 -276
q-88 0 -152 33v61q65 -33 146 -33q95 0 174.5 54t116.5 166l22 69l-444 1100h71l408 -1008z" />
    <glyph glyph-name="uni2000" unicode="&#x2000;" horiz-adv-x="1024" 
 />
    <glyph glyph-name="uni2001" unicode="&#x2001;" horiz-adv-x="2048" 
 />
    <glyph glyph-name="uni2002" unicode="&#x2002;" horiz-adv-x="1024" 
 />
    <glyph glyph-name="uni2003" unicode="&#x2003;" horiz-adv-x="2048" 
 />
    <glyph glyph-name="uni2004" unicode="&#x2004;" horiz-adv-x="681" 
 />
    <glyph glyph-name="uni2005" unicode="&#x2005;" horiz-adv-x="512" 
 />
    <glyph glyph-name="uni2006" unicode="&#x2006;" horiz-adv-x="342" 
 />
    <glyph glyph-name="uni2007" unicode="&#x2007;" horiz-adv-x="1331" 
 />
    <glyph glyph-name="uni2008" unicode="&#x2008;" horiz-adv-x="389" 
 />
    <glyph glyph-name="uni2009" unicode="&#x2009;" horiz-adv-x="409" 
 />
    <glyph glyph-name="uni200A" unicode="&#x200a;" horiz-adv-x="292" 
 />
    <glyph glyph-name="uni200B" unicode="&#x200b;" 
 />
    <glyph glyph-name="uni200C" unicode="&#x200c;" 
 />
    <glyph glyph-name="uni200D" unicode="&#x200d;" 
 />
    <glyph glyph-name="figuredash" unicode="&#x2012;" horiz-adv-x="978" 
d="M61 510v57h857v-57h-857z" />
    <glyph glyph-name="endash" unicode="&#x2013;" horiz-adv-x="978" 
d="M61 510v57h857v-57h-857z" />
    <glyph glyph-name="emdash" unicode="&#x2014;" horiz-adv-x="1572" 
d="M61 510v57h1450v-57h-1450z" />
    <glyph glyph-name="uni2015" unicode="&#x2015;" horiz-adv-x="1572" 
d="M61 510v57h1450v-57h-1450z" />
    <glyph glyph-name="quoteleft" unicode="&#x2018;" horiz-adv-x="307" 
d="M195 1157q28 0 44.5 -16.5t16.5 -44.5t-18.5 -45t-49.5 -17q-57 0 -92 43.5t-35 114.5q0 87 49.5 157.5t129.5 98.5v-62q-53 -23 -85 -76.5t-32 -117.5q0 -41 18 -62q17 27 54 27z" />
    <glyph glyph-name="quoteright" unicode="&#x2019;" horiz-adv-x="307" 
d="M119 1450q57 0 92 -43.5t35 -114.5q0 -87 -49 -157.5t-129 -98.5v62q52 23 84 76t32 118q0 41 -18 62q-17 -27 -53 -27q-28 0 -45 17t-17 45t18.5 44.5t49.5 16.5z" />
    <glyph glyph-name="quotesinglbase" unicode="&#x201a;" horiz-adv-x="307" 
d="M119 106q57 0 92 -46t35 -121q0 -170 -178 -246v61q53 22 84.5 71t31.5 109q0 47 -20 74q-17 -24 -51 -24q-28 0 -45 16.5t-17 44.5t18.5 44.5t49.5 16.5z" />
    <glyph glyph-name="quotedblleft" unicode="&#x201c;" horiz-adv-x="616" 
d="M195 1157q28 0 44.5 -16.5t16.5 -44.5t-18.5 -45t-49.5 -17q-57 0 -92 43.5t-35 114.5q0 87 49.5 157.5t129.5 98.5v-62q-53 -23 -85 -76.5t-32 -117.5q0 -41 18 -62q17 27 54 27zM504 1157q28 0 44.5 -16.5t16.5 -44.5t-18 -45t-49 -17q-57 0 -92 43.5t-35 114.5
q0 87 49 157.5t129 98.5v-62q-53 -23 -85 -76.5t-32 -117.5q0 -40 19 -62q17 27 53 27z" />
    <glyph glyph-name="quotedblright" unicode="&#x201d;" horiz-adv-x="616" 
d="M119 1450q57 0 92 -43.5t35 -114.5q0 -87 -49 -157.5t-129 -98.5v62q52 23 84 76t32 118q0 41 -18 62q-17 -27 -53 -27q-28 0 -45 17t-17 45t18.5 44.5t49.5 16.5zM428 1450q57 0 92 -43.5t35 -114.5q0 -87 -49 -157.5t-129 -98.5v62q53 23 85 76.5t32 117.5q0 40 -19 62
q-17 -27 -53 -27q-28 0 -45 17t-17 45t18.5 44.5t49.5 16.5z" />
    <glyph glyph-name="quotedblbase" unicode="&#x201e;" horiz-adv-x="616" 
d="M119 106q57 0 92 -46t35 -121q0 -170 -178 -246v61q53 22 84.5 71t31.5 109q0 47 -20 74q-17 -24 -51 -24q-28 0 -45 16.5t-17 44.5t18.5 44.5t49.5 16.5zM428 106q57 0 92 -46t35 -121q0 -170 -178 -246v61q53 22 85 71t32 109q0 46 -21 74q-17 -24 -51 -24
q-28 0 -45 16.5t-17 44.5t18.5 44.5t49.5 16.5z" />
    <glyph glyph-name="dagger" unicode="&#x2020;" horiz-adv-x="847" 
d="M766 1085v-57h-311v-1028h-62v1028h-311v57h311v349h62v-349h311z" />
    <glyph glyph-name="daggerdbl" unicode="&#x2021;" horiz-adv-x="847" 
d="M766 1028h-311v-557h311v-57h-311v-414h-62v414h-311v57h311v557h-311v57h311v349h62v-349h311v-57z" />
    <glyph glyph-name="bullet" unicode="&#x2022;" horiz-adv-x="552" 
d="M276 328q-75 0 -129.5 54.5t-54.5 129.5t54.5 129.5t129.5 54.5t130 -54.5t55 -129.5t-55 -129.5t-130 -54.5z" />
    <glyph glyph-name="ellipsis" unicode="&#x2026;" horiz-adv-x="1331" 
d="M276 -16q-26 0 -43.5 17.5t-17.5 43.5t17.5 43.5t43.5 17.5t44 -17.5t18 -43.5t-18 -43.5t-44 -17.5zM666 -16q-26 0 -44 17.5t-18 43.5t18 43.5t44 17.5t43.5 -17.5t17.5 -43.5t-17.5 -43.5t-43.5 -17.5zM1055 -16q-26 0 -44 17.5t-18 43.5t18 43.5t44 17.5t43.5 -17.5
t17.5 -43.5t-17.5 -43.5t-43.5 -17.5z" />
    <glyph glyph-name="uni202F" unicode="&#x202f;" horiz-adv-x="512" 
 />
    <glyph glyph-name="perthousand" unicode="&#x2030;" horiz-adv-x="2689" 
d="M469 -66l881 1524h71l-880 -1524h-72zM469 676q-156 0 -246 105t-90 259t90.5 259.5t245.5 105.5q106 0 183 -50.5t114 -132t37 -182.5q0 -155 -88 -259.5t-246 -104.5zM469 733q126 0 194 85.5t68 221.5t-68 222t-194 86t-195 -86t-69 -222t69 -221.5t195 -85.5z
M1403 -12q-156 0 -246 105t-90 259t90.5 259.5t245.5 105.5q106 0 183 -50.5t114 -132t37 -182.5q0 -155 -88 -259.5t-246 -104.5zM2222 -12q-156 0 -246 105t-90 259t90.5 259.5t245.5 105.5q106 0 183 -50.5t114 -132t37 -182.5q0 -155 -88 -259.5t-246 -104.5zM1403 45
q126 0 194 85.5t68 221.5t-68 221.5t-194 85.5t-195 -85.5t-69 -221.5t69 -221.5t195 -85.5zM2222 45q126 0 194 85.5t68 221.5t-68 221.5t-194 85.5t-195 -85.5t-69 -221.5t69 -221.5t195 -85.5z" />
    <glyph glyph-name="guilsinglleft" unicode="&#x2039;" horiz-adv-x="557" 
d="M346 162q-81 157 -264 391q183 234 264 391h80q-45 -84 -120 -192t-152 -199q77 -91 152 -199t120 -192h-80z" />
    <glyph glyph-name="guilsinglright" unicode="&#x203a;" horiz-adv-x="557" 
d="M211 162h-80q45 84 120 192t152 199q-77 91 -152 199t-120 192h80q81 -157 264 -391q-183 -234 -264 -391z" />
    <glyph glyph-name="fraction" unicode="&#x2044;" horiz-adv-x="251" 
d="M-410 0l990 1366h82l-990 -1366h-82z" />
    <glyph glyph-name="uni2070" unicode="&#x2070;" horiz-adv-x="790" 
d="M395 762q-146 0 -229.5 109t-83.5 292q0 185 83.5 293.5t229.5 108.5t230 -109.5t84 -292.5q0 -184 -83.5 -292.5t-230.5 -108.5zM395 823q115 0 180.5 91.5t65.5 248.5t-65.5 248.5t-180.5 91.5t-180 -91t-65 -249t65 -249t180 -91z" />
    <glyph glyph-name="uni2074" unicode="&#x2074;" horiz-adv-x="720" 
d="M520 1030h160v-57h-160v-195h-61v195h-428v43q128 106 245 246.5t193 285.5h51v-518zM127 1030h332v387q-135 -217 -332 -387z" />
    <glyph glyph-name="uni2075" unicode="&#x2075;" horiz-adv-x="733" 
d="M377 1327q128 0 201 -80t73 -200q0 -123 -77.5 -204t-206.5 -81q-136 0 -214.5 87.5t-56.5 211.5h68q-19 -100 38 -169t163 -69q99 0 159 64t60 160q0 92 -57 155.5t-162 63.5q-122 0 -205 -90l-60 36q50 130 50 336h456v-57h-395q-6 -147 -35 -236q89 72 201 72z" />
    <glyph glyph-name="uni2076" unicode="&#x2076;" horiz-adv-x="731" 
d="M377 1280q119 0 195.5 -71.5t76.5 -184.5t-76.5 -187.5t-197.5 -74.5q-145 0 -229.5 110t-84.5 293t84 291.5t232 108.5q125 0 193 -76t42 -182h-61q20 85 -31 140.5t-143 55.5q-116 0 -182 -91t-66 -245q0 -27 4 -67q21 83 85 131.5t159 48.5zM375 823q92 0 149.5 58
t57.5 143q0 82 -56.5 138.5t-150.5 56.5q-93 0 -150 -56t-57 -137q0 -83 57 -143t150 -60z" />
    <glyph glyph-name="uni2077" unicode="&#x2077;" horiz-adv-x="630" 
d="M41 1548h569l-2 -59q-61 -70 -106.5 -134t-93 -151.5t-79 -195t-44.5 -230.5h-70q39 398 326 713h-500v57z" />
    <glyph glyph-name="uni2078" unicode="&#x2078;" horiz-adv-x="698" 
d="M477 1202q64 -28 101.5 -83t37.5 -124q0 -99 -75 -166t-195 -67t-192 67t-72 168q0 69 36 123.5t99 83.5q-48 22 -75 64t-27 98q0 87 63.5 143t171.5 56q107 0 170.5 -56t63.5 -143q0 -55 -28 -98t-79 -66zM350 1503q-74 0 -121 -37t-47 -100q0 -61 45.5 -98t122.5 -37
t121.5 37t44.5 98q0 63 -47 100t-119 37zM346 823q89 0 146 51t57 125q0 76 -56 125.5t-145 49.5q-87 0 -142.5 -49t-55.5 -126q0 -74 54 -125t142 -51z" />
    <glyph glyph-name="uni2079" unicode="&#x2079;" horiz-adv-x="731" 
d="M356 1565q145 0 229.5 -110.5t84.5 -293.5t-84 -291t-232 -108q-125 0 -193 76t-42 182h61q-20 -85 31 -141t143 -56q116 0 182 91t66 245q0 28 -4 68q-21 -83 -85 -131.5t-159 -48.5q-119 0 -195.5 71.5t-76.5 184.5t76.5 187.5t197.5 74.5zM356 1108q93 0 150 56
t57 136q0 83 -57 143t-150 60q-92 0 -149 -57.5t-57 -142.5q0 -82 56 -138.5t150 -56.5z" />
    <glyph glyph-name="uni2080" unicode="&#x2080;" horiz-adv-x="790" 
d="M395 -262q-146 0 -229.5 109t-83.5 292q0 185 83.5 293.5t229.5 108.5t230 -109.5t84 -292.5q0 -184 -83.5 -292.5t-230.5 -108.5zM395 -201q115 0 180.5 91.5t65.5 248.5t-65.5 248.5t-180.5 91.5t-180 -91t-65 -249t65 -249t180 -91z" />
    <glyph glyph-name="uni2081" unicode="&#x2081;" horiz-adv-x="524" 
d="M317 524h64v-770h-62v645q-75 -175 -278 -268v76q99 42 173.5 128.5t102.5 188.5z" />
    <glyph glyph-name="uni2082" unicode="&#x2082;" horiz-adv-x="731" 
d="M207 -188h442v-58h-567v60q121 45 206 88.5t154.5 97.5t103.5 119.5t34 144.5q0 99 -54 157t-149 58q-97 0 -156 -58t-59 -157q0 -112 78 -211h-72q-74 86 -74 211q0 124 77.5 200.5t203.5 76.5t199 -74t73 -197q0 -283 -440 -458z" />
    <glyph glyph-name="uni2083" unicode="&#x2083;" horiz-adv-x="661" 
d="M457 172q67 -25 105 -77t38 -120q0 -101 -76.5 -169t-199.5 -68q-135 0 -212.5 83t-56.5 212h62q-20 -101 40.5 -167.5t168.5 -66.5q91 0 148.5 50.5t57.5 125.5q0 74 -55.5 119t-146.5 45h-88v62h88q77 0 124.5 40.5t47.5 102.5q0 63 -49 99t-127 36q-97 0 -143.5 -51.5
t-26.5 -140.5h-68q-21 118 47.5 186t190.5 68q109 0 176 -53.5t67 -139.5q0 -59 -29.5 -105t-82.5 -71z" />
    <glyph glyph-name="uni2084" unicode="&#x2084;" horiz-adv-x="720" 
d="M520 6h160v-57h-160v-195h-61v195h-428v43q128 106 245 246.5t193 285.5h51v-518zM127 6h332v387q-135 -217 -332 -387z" />
    <glyph glyph-name="uni2085" unicode="&#x2085;" horiz-adv-x="733" 
d="M377 303q128 0 201 -80t73 -200q0 -123 -77.5 -204t-206.5 -81q-136 0 -214.5 87.5t-56.5 211.5h68q-19 -100 38 -169t163 -69q99 0 159 64t60 160q0 92 -57 155.5t-162 63.5q-122 0 -205 -90l-60 36q50 130 50 336h456v-57h-395q-6 -147 -35 -236q89 72 201 72z" />
    <glyph glyph-name="uni2086" unicode="&#x2086;" horiz-adv-x="731" 
d="M377 256q119 0 195.5 -71.5t76.5 -184.5t-76.5 -187.5t-197.5 -74.5q-145 0 -229.5 110t-84.5 293t84 291.5t232 108.5q125 0 193 -76t42 -182h-61q20 85 -31 140.5t-143 55.5q-116 0 -182 -91t-66 -245q0 -27 4 -67q21 83 85 131.5t159 48.5zM375 -201q92 0 149.5 58
t57.5 143q0 82 -56.5 138.5t-150.5 56.5q-93 0 -150 -56t-57 -137q0 -83 57 -143t150 -60z" />
    <glyph glyph-name="uni2087" unicode="&#x2087;" horiz-adv-x="630" 
d="M41 524h569l-2 -59q-61 -70 -106.5 -134t-93 -151.5t-79 -195t-44.5 -230.5h-70q39 398 326 713h-500v57z" />
    <glyph glyph-name="uni2088" unicode="&#x2088;" horiz-adv-x="698" 
d="M477 178q64 -28 101.5 -83t37.5 -124q0 -99 -75 -166t-195 -67t-192 67t-72 168q0 69 36 123.5t99 83.5q-48 22 -75 64t-27 98q0 87 63.5 143t171.5 56q107 0 170.5 -56t63.5 -143q0 -55 -28 -98t-79 -66zM350 479q-74 0 -121 -37t-47 -100q0 -61 45.5 -98t122.5 -37
t121.5 37t44.5 98q0 63 -47 100t-119 37zM346 -201q89 0 146 51t57 125q0 76 -56 125.5t-145 49.5q-87 0 -142.5 -49t-55.5 -126q0 -74 54 -125t142 -51z" />
    <glyph glyph-name="uni2089" unicode="&#x2089;" horiz-adv-x="731" 
d="M356 541q145 0 229.5 -110.5t84.5 -293.5t-84 -291t-232 -108q-125 0 -193 76t-42 182h61q-20 -85 31 -141t143 -56q116 0 182 91t66 245q0 28 -4 68q-21 -83 -85 -131.5t-159 -48.5q-119 0 -195.5 71.5t-76.5 184.5t76.5 187.5t197.5 74.5zM356 84q93 0 150 56t57 136
q0 83 -57 143t-150 60q-92 0 -149 -57.5t-57 -142.5q0 -82 56 -138.5t150 -56.5z" />
    <glyph glyph-name="lira" unicode="&#x20a4;" horiz-adv-x="1054" 
d="M236 57h757v-57h-891v61q101 23 185.5 109.5t95.5 212.5h-272v57h274q-2 37 -18 103h-256v57h233q-13 32 -61.5 126t-72.5 170.5t-24 166.5q0 183 106 285t277 102q90 0 165.5 -30.5t124 -82t75.5 -117.5t27 -139q0 -125 -78 -235h-70q82 113 82 237q0 130 -87.5 218
t-234.5 88q-145 0 -233 -86t-88 -242q0 -66 18 -133t40.5 -113t55 -110t48.5 -105h415v-57h-395q15 -61 17 -103h378v-57h-380q-9 -111 -67.5 -196t-145.5 -130z" />
    <glyph glyph-name="uni20A8" unicode="&#x20a8;" horiz-adv-x="1368" 
d="M1153 1436v-60h-446q77 -43 118.5 -116t42.5 -168h285v-60h-287q-14 -115 -88 -195t-200 -112q65 -21 116 -61t84 -97.5t55.5 -119t34.5 -142t17.5 -149t7.5 -156.5h-62q-3 83 -8.5 146.5t-17 139t-28.5 131t-45.5 110.5t-66.5 89.5t-92.5 56t-121.5 21.5h-236v58h152
q194 0 306.5 72t127.5 208h-586v60h588q-6 135 -97 209.5t-255 74.5h-236v60h938z" />
    <glyph glyph-name="uni20A9" unicode="&#x20a9;" horiz-adv-x="1968" 
d="M1917 1434l-186 -594h186v-58h-205l-59 -188h264v-57h-283l-168 -537h-73l-164 537h-490l-164 -537h-73l-168 537h-283v57h264l-59 188h-205v58h187l-187 594h64l186 -594h467l182 594h68l182 -594h467l186 594h64zM983 1341l-152 -501h306zM319 782l60 -188h313l58 188
h-431zM756 594h454l-57 188h-340zM1589 594l60 188h-432l57 -188h315zM537 90l137 447h-277zM1430 88l141 449h-279z" />
    <glyph glyph-name="dong" unicode="&#x20ab;" horiz-adv-x="1265" 
d="M1030 1280h205v-57h-205v-1223h-61v256q-55 -129 -161 -200.5t-249 -71.5q-207 0 -337 144t-130 384q0 237 129.5 382.5t339.5 145.5q143 0 249 -71.5t159 -200.5v455h-463v57h463v154h61v-154zM563 45q186 0 299 128t113 339t-113 339t-299 128q-183 0 -294 -128
t-111 -339t111 -339t294 -128zM184 -221v59h877v-59h-877z" />
    <glyph glyph-name="Euro" unicode="&#x20ac;" horiz-adv-x="1583" 
d="M1417 479h64q-38 -227 -183.5 -360t-375.5 -133q-155 0 -286.5 62t-224 188t-122.5 299h-187v57h181q-7 58 -7 102q0 14 5 86h-179v58h185q25 176 107 313t219 218t309 81q247 0 385.5 -143t107.5 -363h-63q30 197 -92 319.5t-338 122.5q-231 0 -382 -153.5t-188 -394.5
h799l-23 -58h-782q-4 -54 -4 -84q0 -54 6 -104h717l-21 -57h-688q43 -226 195.5 -356t370.5 -130q206 0 333 115.5t162 314.5z" />
    <glyph glyph-name="uni20B2" unicode="&#x20b2;" horiz-adv-x="1529" 
d="M1479 709v-58h-418q132 -26 202 -104t70 -201q0 -161 -121.5 -258.5t-339.5 -103.5v-209h-61v209q-164 6 -294.5 65t-213.5 158.5t-126.5 229.5t-43.5 280q0 152 45 284t128.5 232t213.5 158t291 59v127h61v-129q232 -15 358 -148.5t93 -341.5h-68q31 190 -76 299
t-307 123v-671h607zM199 717q0 -294 162.5 -477t449.5 -195v1337q-150 -1 -268 -53t-192.5 -143t-113 -210t-38.5 -259zM1268 346q0 132 -105.5 212t-290.5 91v-604q189 6 292.5 89t103.5 212z" />
    <glyph glyph-name="uni20B5" unicode="&#x20b5;" horiz-adv-x="1536" 
d="M1434 520q-20 -111 -66.5 -204.5t-118.5 -167.5t-177.5 -117.5t-233.5 -46.5v-209h-62v211q-286 15 -464.5 219t-178.5 518q0 209 82.5 372.5t228.5 255.5t332 99v127h62v-127q176 -8 305.5 -88t189.5 -214.5t37 -297.5h-65q29 232 -102.5 380t-364.5 159v-1344
q114 3 207.5 42t156.5 105.5t103.5 148.5t60.5 179h68zM199 723q0 -287 160 -474t417 -202v1342q-255 -11 -416 -194.5t-161 -471.5z" />
    <glyph glyph-name="uni20BA" unicode="&#x20ba;" horiz-adv-x="948" 
d="M846 655q41 -109 41 -194q0 -196 -136 -328.5t-337 -132.5h-123v766l-260 -107v62l260 106v148l-260 -109v62l260 108v398h63v-371l338 139v-61l-338 -140v-147l338 139v-61l-338 -139v-736h60q182 0 294.5 117t112.5 287q0 105 -41 194h66z" />
    <glyph glyph-name="uni20BD" unicode="&#x20bd;" horiz-adv-x="1318" 
d="M784 653h-508v-227h777v-57h-777v-369h-61v369h-174v57h174v1008h569q443 0 443 -387q0 -394 -443 -394zM1159 1047q0 329 -375 329h-508v-665h508q375 0 375 336z" />
    <glyph glyph-name="uni2113" unicode="&#x2113;" horiz-adv-x="954" 
d="M559 37q61 0 108 27.5t99 91.5v-62q-88 -119 -231 -119q-66 0 -114.5 28t-77 79.5t-43.5 111t-21 136.5q-92 -25 -187 -25v62q100 0 182 24q-2 59 -2 180v277q0 297 76 449.5t217 152.5q117 0 181.5 -101.5t64.5 -277.5q0 -253 -129 -449.5t-342 -273.5q5 -71 17 -123.5
t36 -97t65.5 -67.5t100.5 -23zM334 571q0 -108 2 -161q191 74 300 252t109 405q0 148 -47.5 235t-134.5 87q-31 0 -59 -11t-60 -46t-55.5 -92t-39 -158t-15.5 -234v-277z" />
    <glyph glyph-name="uni2117" unicode="&#x2117;" horiz-adv-x="1785" 
d="M893 1450q222 0 403 -102t284 -282.5t103 -401.5q0 -167 -60.5 -313.5t-165 -251.5t-251 -165.5t-313.5 -60.5t-313.5 60.5t-251.5 165.5t-165.5 251.5t-60.5 313.5q0 166 60.5 312t165.5 250t251.5 164t313.5 60zM893 -66q205 0 372 95t262 262.5t95 372.5
q0 204 -95 370t-262 260.5t-372 94.5t-372 -94.5t-262 -260.5t-95 -370q0 -205 95 -372.5t262 -262.5t372 -95zM991 1190q163 0 261 -92.5t98 -247.5q0 -148 -98 -236t-261 -88h-346v-376h-67v1040h413zM991 588q136 0 210.5 68t74.5 194q0 133 -75 205.5t-210 72.5h-346
v-540h346z" />
    <glyph glyph-name="trademark" unicode="&#x2122;" horiz-adv-x="1437" 
d="M41 1378v56h563v-56h-250v-641h-53v641h-260zM1249 1434h86v-697h-55v625l-213 -606h-70l-213 614v-633h-55v697h90l215 -619z" />
    <glyph glyph-name="uni2126" unicode="&#x2126;" horiz-adv-x="1742" 
d="M1610 743q0 -114 -31.5 -211.5t-80 -166t-122 -129.5t-141 -100t-154.5 -79h498v-57h-594v74q68 30 118 54.5t112 61.5t106 73.5t88.5 88t72 107.5t45 129t17.5 155q0 150 -53 274.5t-144.5 207t-213.5 127.5t-261 45q-187 0 -340 -78t-243 -225t-90 -336
q0 -83 18.5 -158t49 -133.5t76.5 -112t92 -92.5t106 -76t109 -61.5t108 -50.5v-74h-594v57h500q-86 40 -155.5 81.5t-142 105t-121.5 135.5t-80.5 172t-31.5 215q0 162 59 294.5t160.5 218.5t234.5 132.5t283 46.5q214 0 383 -91t263 -254t94 -370z" />
    <glyph glyph-name="estimated" unicode="&#x212e;" horiz-adv-x="1681" 
d="M827 0q-220 0 -389 84t-262.5 240.5t-93.5 361.5q0 151 54 279.5t152 220.5t243 144t319 52q220 0 384.5 -80.5t260 -241t104.5 -386.5h-1206q-16 0 -23.5 -6.5t-7.5 -30.5v-361q0 -27 36 -63.5t96 -70.5t150 -57.5t185 -23.5q291 0 492 218h141q-252 -279 -635 -279z
M1286 731q21 0 27 6.5t6 26.5v371q0 25 -38.5 57t-102 61t-157 48.5t-190.5 19.5t-188 -19.5t-150.5 -48.5t-95 -61t-35.5 -57v-385q0 -19 31 -19h893z" />
    <glyph glyph-name="oneeighth" unicode="&#x215b;" horiz-adv-x="1474" 
d="M1104 1366h82l-989 -1366h-82zM319 1239q-75 -175 -278 -268v76q99 42 173.5 128.5t102.5 188.5h64v-770h-62v645zM1253 424q64 -28 102 -83t38 -124q0 -99 -75 -166t-196 -67q-120 0 -192 67t-72 168q0 69 36 123.5t99 83.5q-48 22 -75 64t-27 98q0 87 63.5 142.5
t171.5 55.5q107 0 170.5 -55.5t63.5 -142.5q0 -55 -28 -98t-79 -66zM1126 725q-74 0 -121 -37t-47 -100q0 -61 45.5 -98t122.5 -37t121.5 37t44.5 98q0 63 -47 100t-119 37zM1122 45q89 0 146 51t57 125q0 76 -56 125t-145 49q-88 0 -143 -48.5t-55 -125.5q0 -74 54 -125
t142 -51z" />
    <glyph glyph-name="threeeighths" unicode="&#x215c;" horiz-adv-x="1591" 
d="M600 815q0 -101 -76.5 -169t-199.5 -68q-135 0 -212.5 82.5t-56.5 211.5h62q-20 -100 40.5 -166.5t168.5 -66.5q91 0 148.5 50.5t57.5 125.5q0 74 -55.5 119t-146.5 45h-88v61h88q77 0 124.5 41t47.5 103q0 63 -49 99t-127 36q-97 0 -143.5 -52t-26.5 -141h-68
q-21 118 47.5 186t190.5 68q109 0 176 -53t67 -139q0 -59 -29.5 -105t-82.5 -71q67 -25 105 -77t38 -120zM1221 1366h82l-990 -1366h-82zM1370 424q64 -28 101.5 -83t37.5 -124q0 -99 -75 -166t-195 -67t-192 67t-72 168q0 69 36 123.5t99 83.5q-48 22 -75 64t-27 98
q0 87 63.5 142.5t171.5 55.5q107 0 170.5 -55.5t63.5 -142.5q0 -55 -28 -98t-79 -66zM1243 725q-74 0 -121 -37t-47 -100q0 -61 45.5 -98t122.5 -37t121.5 37t44.5 98q0 63 -47 100t-119 37zM1239 45q89 0 146 51t57 125q0 76 -56 125t-145 49q-88 0 -143.5 -48.5
t-55.5 -125.5q0 -74 54.5 -125t142.5 -51z" />
    <glyph glyph-name="fiveeighths" unicode="&#x215d;" horiz-adv-x="1683" 
d="M1313 1366h82l-989 -1366h-82zM651 862q0 -123 -77.5 -203.5t-206.5 -80.5q-136 0 -214.5 87.5t-56.5 211.5h68q-19 -100 38 -169t163 -69q99 0 159 63.5t60 159.5q0 92 -57 155.5t-162 63.5q-122 0 -205 -90l-60 37q50 130 50 336h456v-57h-395q-6 -147 -35 -236
q89 72 201 72q128 0 201 -80.5t73 -200.5zM1462 424q64 -28 102 -83t38 -124q0 -99 -75 -166t-196 -67q-120 0 -192 67t-72 168q0 69 36 123.5t99 83.5q-48 22 -75 64t-27 98q0 87 63.5 142.5t171.5 55.5q107 0 170.5 -55.5t63.5 -142.5q0 -55 -28 -98t-79 -66zM1335 725
q-74 0 -121 -37t-47 -100q0 -61 45.5 -98t122.5 -37t121.5 37t44.5 98q0 63 -47 100t-119 37zM1331 45q89 0 146 51t57 125q0 76 -56 125t-145 49q-88 0 -143 -48.5t-55 -125.5q0 -74 54 -125t142 -51z" />
    <glyph glyph-name="seveneighths" unicode="&#x215e;" horiz-adv-x="1540" 
d="M1169 1366h82l-989 -1366h-82zM215 594q39 398 326 713h-500v57h569l-2 -59q-61 -70 -106.5 -134t-93 -151.5t-79 -195t-44.5 -230.5h-70zM1319 424q64 -28 101.5 -83t37.5 -124q0 -99 -75 -166t-195 -67t-192 67t-72 168q0 69 36 123.5t99 83.5q-48 22 -75.5 64
t-27.5 98q0 87 64 142.5t172 55.5q107 0 170 -55.5t63 -142.5q0 -56 -27.5 -98.5t-78.5 -65.5zM1192 725q-74 0 -121 -37t-47 -100q0 -61 45.5 -98t122.5 -37t121.5 37t44.5 98q0 63 -47 100t-119 37zM1188 45q89 0 146 51t57 125q0 76 -56 125t-145 49q-88 0 -143.5 -48.5
t-55.5 -125.5q0 -74 54.5 -125t142.5 -51z" />
    <glyph glyph-name="arrowleft" unicode="&#x2190;" horiz-adv-x="1556" 
d="M1475 543v-62h-1229q120 -66 208 -176t171 -305h-62q-87 211 -199 325t-282 187q164 71 271 182t210 330h62q-83 -194 -171.5 -304.5t-207.5 -176.5h1229z" />
    <glyph glyph-name="arrowup" unicode="&#x2191;" horiz-adv-x="1232" 
d="M616 1454q73 -170 188 -282t326 -199v-62q-196 83 -306.5 171t-176.5 208v-1290h-61v1290q-66 -119 -177 -207.5t-307 -171.5v62q211 87 326 199t188 282z" />
    <glyph glyph-name="arrowright" unicode="&#x2192;" horiz-adv-x="1556" 
d="M993 1024q103 -218 210 -329.5t272 -182.5q-113 -49 -194 -108.5t-155 -159.5t-133 -244h-61q83 195 171 305t208 176h-1229v62h1229q-119 66 -207.5 176.5t-171.5 304.5h61z" />
    <glyph glyph-name="arrowdown" unicode="&#x2193;" horiz-adv-x="1232" 
d="M647 143q66 120 176.5 208t306.5 171v-61q-211 -87 -326 -199t-188 -282q-73 170 -188 282t-326 199v61q196 -83 307 -171.5t177 -207.5v1291h61v-1291z" />
    <glyph glyph-name="arrowboth" unicode="&#x2194;" horiz-adv-x="1961" 
d="M1399 1024q103 -219 210 -330t271 -182q-170 -73 -282 -187t-199 -325h-62q83 195 171 305t208 176h-1470q120 -66 208 -176t171 -305h-62q-87 211 -199 325t-282 187q164 71 271 182t210 330h62q-83 -194 -171.5 -304.5t-207.5 -176.5h1470q-119 66 -207.5 176.5
t-171.5 304.5h62z" />
    <glyph glyph-name="arrowupdn" unicode="&#x2195;" horiz-adv-x="1228" 
d="M1126 942q-194 83 -304.5 171.5t-176.5 207.5v-1485q66 119 176.5 207.5t304.5 171.5v-61q-218 -103 -329.5 -210t-182.5 -272q-49 113 -108.5 194t-159.5 155t-244 133v61q195 -83 305.5 -171t176.5 -208v1485q-66 -120 -176.5 -208t-305.5 -171v62q211 87 325 199
t187 282q71 -164 182 -271t330 -210v-62z" />
    <glyph glyph-name="uni2196" unicode="&#x2196;" horiz-adv-x="1366" 
d="M1223 43l-43 -43l-867 866q37 -121 21 -266t-94 -340l-45 45q61 143 79.5 265.5t3.5 222t-61 213.5q155 -65 315.5 -62t387.5 84l43 -43q-196 -78 -341 -94t-270 22z" />
    <glyph glyph-name="uni2197" unicode="&#x2197;" horiz-adv-x="1366" 
d="M1149 1008q-65 -155 -62 -315.5t84 -387.5l-43 -43q-78 195 -93.5 340t22.5 270l-871 -870l-43 43l867 866q-122 -37 -267 -20.5t-340 94.5l46 45q143 -61 265.5 -79.5t221.5 -3.5t213 61z" />
    <glyph glyph-name="uni2198" unicode="&#x2198;" horiz-adv-x="1366" 
d="M1171 725q-61 -143 -79.5 -265.5t-3.5 -221.5t61 -213q-155 65 -315.5 61.5t-387.5 -84.5l-43 43q196 78 341 94t270 -22l-871 870l43 43l867 -866q-37 121 -21 266t94 340z" />
    <glyph glyph-name="uni2199" unicode="&#x2199;" horiz-adv-x="1366" 
d="M356 119q122 37 267 20.5t340 -94.5l-45 -45q-143 61 -265.5 80t-222 4t-213.5 -61q65 155 62 315t-84 387l43 43q78 -195 93.5 -340t-22.5 -270l871 870l43 -43z" />
    <glyph glyph-name="partialdiff" unicode="&#x2202;" horiz-adv-x="1091" 
d="M520 1450q81 0 149.5 -26t117 -69.5t86 -105.5t61 -130t38.5 -146.5t21 -150.5t6 -148q0 -355 -125.5 -526t-345.5 -171q-200 0 -318 128t-118 327q0 208 126.5 339.5t313.5 131.5q144 0 251.5 -79.5t152.5 -213.5q1 239 -43 411.5t-138 270t-233 97.5t-210 -90t-52 -238
h-61q-8 81 7 150t52 123t104 85t158 31zM526 39q171 0 276 114t105 285q0 174 -106 289t-269 115q-165 0 -269.5 -116t-104.5 -294q0 -170 99 -281.5t269 -111.5z" />
    <glyph glyph-name="emptyset" unicode="&#x2205;" horiz-adv-x="1257" 
d="M1008 895q75 -73 116 -172t41 -211q0 -148 -70.5 -271.5t-194 -194.5t-271.5 -71q-175 0 -316 101l-118 -139l-48 38l117 140q-81 73 -126.5 176t-45.5 221q0 148 71 271.5t194.5 194.5t271.5 71q189 0 334 -113l108 127l47 -39zM154 512q0 -103 40 -194t111 -156
l617 727q-129 98 -293 98q-199 0 -337 -137.5t-138 -337.5zM629 37q199 0 337 137.5t138 337.5q0 198 -135 336l-617 -725q122 -86 277 -86z" />
    <glyph glyph-name="uni2206" unicode="&#x2206;" horiz-adv-x="1413" 
d="M758 1434l635 -1434h-1373l635 1434h103zM707 1374l-584 -1317h1167z" />
    <glyph glyph-name="product" unicode="&#x220f;" horiz-adv-x="1413" 
d="M1311 1434v-58h-250v-1786h-62v1786h-593v-1786h-62v1786h-242v58h1209z" />
    <glyph glyph-name="summation" unicode="&#x2211;" horiz-adv-x="1114" 
d="M158 57h854v-57h-930v61l571 662l-571 649v62h909v-58h-837l569 -655z" />
    <glyph glyph-name="minus" unicode="&#x2212;" horiz-adv-x="1323" 
d="M164 608v58h995v-58h-995z" />
    <glyph glyph-name="uni2215" unicode="&#x2215;" horiz-adv-x="1085" 
d="M51 -37l910 1534h73l-909 -1534h-74z" />
    <glyph glyph-name="uni2219" unicode="&#x2219;" horiz-adv-x="798" 
d="M399 217q-127 0 -217 89.5t-90 217.5t90 217.5t217 89.5q128 0 218 -90t90 -217t-90 -217t-218 -90z" />
    <glyph glyph-name="radical" unicode="&#x221a;" horiz-adv-x="1175" 
d="M1403 1729v-58h-223l-457 -1671h-90l-277 967h-254v57h301l277 -963l450 1668h273z" />
    <glyph glyph-name="infinity" unicode="&#x221e;" horiz-adv-x="1560" 
d="M1151 823q133 0 225 -86.5t92 -216.5q0 -132 -94 -216.5t-227 -84.5q-62 0 -115 19.5t-99 58.5t-78 76t-73 94q-41 -57 -73.5 -94t-78 -76t-99 -58.5t-115.5 -19.5q-134 0 -229 84.5t-95 216.5q0 130 92 216.5t226 86.5q62 0 116.5 -19.5t101 -59.5t79.5 -77.5t75 -95.5
q43 59 74.5 95.5t78 77t100.5 60t116 19.5zM414 276q54 0 100.5 18.5t89 57.5t71 73.5t70.5 92.5q-41 59 -70.5 95t-72.5 75.5t-92.5 58.5t-106.5 19q-111 0 -180 -69t-69 -173q0 -113 77.5 -180.5t182.5 -67.5zM1149 276q103 0 180.5 67t77.5 179q0 106 -70.5 175
t-177.5 69q-45 0 -87 -14.5t-73 -34.5t-66 -56.5t-57.5 -66t-56.5 -76.5q34 -47 56 -74.5t57 -63.5t64.5 -55.5t69.5 -34t83 -14.5z" />
    <glyph glyph-name="integral" unicode="&#x222b;" horiz-adv-x="735" 
d="M227 -463q-65 0 -125 31v72q79 -46 131 -46q56 0 76.5 38.5t20.5 142.5v1472q0 122 50.5 180t133.5 58q58 0 119 -27v-57q-52 26 -105 26q-65 0 -101 -48.5t-36 -131.5v-1472v-44.5t-1.5 -40t-4.5 -38.5t-8.5 -32.5t-13.5 -29t-20.5 -22t-28.5 -18t-38 -9.5t-49 -4z" />
    <glyph glyph-name="approxequal" unicode="&#x2248;" horiz-adv-x="1323" 
d="M231 709q-36 119 29.5 200.5t194.5 81.5q64 0 124 -23.5t107 -57.5t93.5 -67.5t102 -57t113.5 -23.5q97 0 131 61.5t11 163.5h71q25 -130 -30 -206t-185 -76q-70 0 -133 23.5t-110.5 57.5t-92.5 67.5t-98.5 57t-109.5 23.5q-99 0 -139 -65.5t-7 -159.5h-72zM248 338
q-37 119 29 201t194 82q64 0 124 -23.5t107.5 -57.5t94 -68t102 -57.5t113.5 -23.5q97 0 130.5 61.5t10.5 163.5h72q25 -130 -30 -206t-185 -76q-70 0 -133 23.5t-110.5 57t-93 67.5t-99 57.5t-109.5 23.5q-99 0 -139 -65.5t-7 -159.5h-71z" />
    <glyph glyph-name="notequal" unicode="&#x2260;" horiz-adv-x="1323" 
d="M1159 827h-403l-119 -378h522v-58h-541l-100 -315h-65l100 315h-389v58h407l119 378h-526v58h545l112 354h66l-113 -354h385v-58z" />
    <glyph glyph-name="lessequal" unicode="&#x2264;" horiz-adv-x="1323" 
d="M1200 1294v-71l-1003 -404l1003 -440v-72l-1083 484v61zM117 0v57h1083v-57h-1083z" />
    <glyph glyph-name="greaterequal" unicode="&#x2265;" horiz-adv-x="1323" 
d="M123 1294l1083 -442v-61l-1083 -484v72l1003 440l-1003 404v71zM123 0v57h1083v-57h-1083z" />
    <glyph glyph-name="uni2460" unicode="&#x2460;" horiz-adv-x="1785" 
d="M893 1450q222 0 403 -102t284 -282.5t103 -401.5q0 -167 -60.5 -313.5t-165 -251.5t-251 -165.5t-313.5 -60.5t-313.5 60.5t-251.5 165.5t-165.5 251.5t-60.5 313.5q0 166 60.5 312t165.5 250t251.5 164t313.5 60zM893 -66q205 0 372 95t262 262.5t95 372.5
q0 204 -95 370t-262 260.5t-372 94.5t-372 -94.5t-262 -260.5t-95 -370q0 -205 95 -372.5t262 -262.5t372 -95zM537 793q138 45 247.5 156.5t151.5 232.5h59v-998h-59v867q-58 -102 -163 -188.5t-236 -135.5v66z" />
    <glyph glyph-name="uni2461" unicode="&#x2461;" horiz-adv-x="1785" 
d="M893 1450q222 0 403 -102t284 -282.5t103 -401.5q0 -167 -60.5 -313.5t-165 -251.5t-251 -165.5t-313.5 -60.5t-313.5 60.5t-251.5 165.5t-165.5 251.5t-60.5 313.5q0 166 60.5 312t165.5 250t251.5 164t313.5 60zM893 -66q205 0 372 95t262 262.5t95 372.5
q0 204 -95 370t-262 260.5t-372 94.5t-372 -94.5t-262 -260.5t-95 -370q0 -205 95 -372.5t262 -262.5t372 -95zM1241 850q0 -98 -43 -186t-125.5 -162.5t-188 -138t-245.5 -123.5h625v-56h-740v60q315 130 483.5 278.5t168.5 327.5q0 127 -80 207t-205 80
q-132 0 -211.5 -84.5t-79.5 -218.5q0 -135 102 -269h-69q-94 130 -94 269q0 160 96 260t256 100q154 0 252 -95.5t98 -248.5z" />
    <glyph glyph-name="uni2462" unicode="&#x2462;" horiz-adv-x="1785" 
d="M893 1450q222 0 403 -102t284 -282.5t103 -401.5q0 -167 -60.5 -313.5t-165 -251.5t-251 -165.5t-313.5 -60.5t-313.5 60.5t-251.5 165.5t-165.5 251.5t-60.5 313.5q0 166 60.5 312t165.5 250t251.5 164t313.5 60zM893 -66q205 0 372 95t262 262.5t95 372.5
q0 204 -95 370t-262 260.5t-372 94.5t-372 -94.5t-262 -260.5t-95 -370q0 -205 95 -372.5t262 -262.5t372 -95zM1040 719q110 -30 173 -98.5t63 -163.5q0 -129 -107 -207t-274 -78q-196 0 -302.5 105t-78.5 274h64q-26 -146 63.5 -234t253.5 -88q138 0 225.5 64t87.5 166
q0 101 -86 164t-225 63h-127v59h127q116 0 189 56.5t73 144.5q0 87 -73.5 139t-192.5 52q-151 0 -229 -78t-46 -195h-61q-39 140 60.5 235t279.5 95q147 0 237.5 -68t90.5 -180q0 -79 -49 -139t-136 -88z" />
    <glyph glyph-name="uni2463" unicode="&#x2463;" horiz-adv-x="1785" 
d="M893 1450q222 0 403 -102t284 -282.5t103 -401.5q0 -167 -60.5 -313.5t-165 -251.5t-251 -165.5t-313.5 -60.5t-313.5 60.5t-251.5 165.5t-165.5 251.5t-60.5 313.5q0 166 60.5 312t165.5 250t251.5 164t313.5 60zM893 -66q205 0 372 95t262 262.5t95 372.5
q0 204 -95 370t-262 260.5t-372 94.5t-372 -94.5t-262 -260.5t-95 -370q0 -205 95 -372.5t262 -262.5t372 -95zM1073 1182v-693h227v-55h-227v-250h-59v250h-592v55q198 137 350 315.5t242 377.5h59zM1014 1057q-179 -337 -496 -568h496v568z" />
    <glyph glyph-name="uni2464" unicode="&#x2464;" horiz-adv-x="1785" 
d="M893 1450q222 0 403 -102t284 -282.5t103 -401.5q0 -167 -60.5 -313.5t-165 -251.5t-251 -165.5t-313.5 -60.5t-313.5 60.5t-251.5 165.5t-165.5 251.5t-60.5 313.5q0 166 60.5 312t165.5 250t251.5 164t313.5 60zM893 -66q205 0 372 95t262 262.5t95 372.5
q0 204 -95 370t-262 260.5t-372 94.5t-372 -94.5t-262 -260.5t-95 -370q0 -205 95 -372.5t262 -262.5t372 -95zM891 891q178 0 278.5 -104t100.5 -257q0 -98 -43 -178.5t-131 -130t-207 -49.5q-185 0 -290 111t-77 268h64q-26 -134 61.5 -228t239.5 -94q140 0 230.5 84.5
t90.5 214.5q0 125 -84 214t-239 89q-177 0 -299 -122l-54 32q72 189 72 441h617v-60h-562q-6 -181 -45 -319q116 88 277 88z" />
    <glyph glyph-name="uni2465" unicode="&#x2465;" horiz-adv-x="1785" 
d="M893 1450q222 0 403 -102t284 -282.5t103 -401.5q0 -167 -60.5 -313.5t-165 -251.5t-251 -165.5t-313.5 -60.5t-313.5 60.5t-251.5 165.5t-165.5 251.5t-60.5 313.5q0 166 60.5 312t165.5 250t251.5 164t313.5 60zM893 -66q205 0 372 95t262 262.5t95 372.5
q0 204 -95 370t-262 260.5t-372 94.5t-372 -94.5t-262 -260.5t-95 -370q0 -205 95 -372.5t262 -262.5t372 -95zM911 821q170 0 276.5 -90t106.5 -231q0 -142 -109 -235t-274 -93q-200 0 -309.5 138.5t-109.5 369.5q0 237 113.5 375.5t312.5 138.5q112 0 195.5 -43
t119.5 -119t12 -166h-61q31 113 -45 192t-221 79q-170 0 -266.5 -123t-96.5 -328q0 -28 4 -86q33 103 125 162t227 59zM909 229q140 0 229 77t89 194q0 114 -87.5 188t-230.5 74q-142 0 -228.5 -74.5t-86.5 -185.5q0 -113 86 -193t229 -80z" />
    <glyph glyph-name="uni2466" unicode="&#x2466;" horiz-adv-x="1785" 
d="M893 1450q222 0 403 -102t284 -282.5t103 -401.5q0 -167 -60.5 -313.5t-165 -251.5t-251 -165.5t-313.5 -60.5t-313.5 60.5t-251.5 165.5t-165.5 251.5t-60.5 313.5q0 166 60.5 312t165.5 250t251.5 164t313.5 60zM893 -66q205 0 372 95t262 262.5t95 372.5
q0 204 -95 370t-262 260.5t-372 94.5t-372 -94.5t-262 -260.5t-95 -370q0 -205 95 -372.5t262 -262.5t372 -95zM530 1124v58h725v-58q-75 -80 -133.5 -161.5t-118 -194.5t-102 -261t-63.5 -323h-70q36 288 146 533t264 407h-648z" />
    <glyph glyph-name="uni2467" unicode="&#x2467;" horiz-adv-x="1785" 
d="M893 1450q222 0 403 -102t284 -282.5t103 -401.5q0 -167 -60.5 -313.5t-165 -251.5t-251 -165.5t-313.5 -60.5t-313.5 60.5t-251.5 165.5t-165.5 251.5t-60.5 313.5q0 166 60.5 312t165.5 250t251.5 164t313.5 60zM893 -66q205 0 372 95t262 262.5t95 372.5
q0 204 -95 370t-262 260.5t-372 94.5t-372 -94.5t-262 -260.5t-95 -370q0 -205 95 -372.5t262 -262.5t372 -95zM1055 731q98 -32 153.5 -102t55.5 -162q0 -130 -104.5 -212.5t-266.5 -82.5q-172 0 -271.5 88t-99.5 211q0 91 55.5 160.5t155.5 101.5q-78 28 -121 84t-43 131
q0 108 89.5 177t234.5 69q146 0 236 -69t90 -177q0 -75 -43 -131.5t-121 -85.5zM633 948q0 -85 71 -136.5t191 -51.5t190 51.5t70 134.5q0 85 -72.5 138t-189.5 53q-115 0 -187.5 -53t-72.5 -136zM895 229q136 0 220.5 70t84.5 172q0 100 -83.5 165.5t-223.5 65.5
q-138 0 -222.5 -65t-84.5 -164q0 -102 85.5 -173t223.5 -71z" />
    <glyph glyph-name="uni2468" unicode="&#x2468;" horiz-adv-x="1785" 
d="M893 1450q222 0 403 -102t284 -282.5t103 -401.5q0 -167 -60.5 -313.5t-165 -251.5t-251 -165.5t-313.5 -60.5t-313.5 60.5t-251.5 165.5t-165.5 251.5t-60.5 313.5q0 166 60.5 312t165.5 250t251.5 164t313.5 60zM893 -66q205 0 372 95t262 262.5t95 372.5
q0 204 -95 370t-262 260.5t-372 94.5t-372 -94.5t-262 -260.5t-95 -370q0 -205 95 -372.5t262 -262.5t372 -95zM874 1194q200 0 310 -138.5t110 -369.5q0 -237 -113.5 -375.5t-312.5 -138.5q-112 0 -195.5 43t-119.5 119t-12 166h61q-31 -113 45 -192t221 -79
q170 0 266.5 123t96.5 328q0 28 -4 86q-33 -103 -125.5 -162t-227.5 -59q-170 0 -276 90t-106 231q0 142 108.5 235t273.5 93zM877 604q142 0 228.5 74.5t86.5 185.5q0 113 -86 193t-229 80q-140 0 -229 -77t-89 -194q0 -114 87.5 -188t230.5 -74z" />
    <glyph glyph-name="uni24B6" unicode="&#x24b6;" horiz-adv-x="1785" 
d="M893 1450q222 0 403 -102t284 -282.5t103 -401.5q0 -167 -60.5 -313.5t-165 -251.5t-251 -165.5t-313.5 -60.5t-313.5 60.5t-251.5 165.5t-165.5 251.5t-60.5 313.5q0 166 60.5 312t165.5 250t251.5 164t313.5 60zM893 -66q205 0 372 95t262 262.5t95 372.5
q0 204 -95 370t-262 260.5t-372 94.5t-372 -94.5t-262 -260.5t-95 -370q0 -205 95 -372.5t262 -262.5t372 -95zM854 1114h76l344 -860h-70l-96 248h-430l-96 -248h-72zM700 559h385l-192 492z" />
    <glyph glyph-name="uni24B7" unicode="&#x24b7;" horiz-adv-x="1785" 
d="M893 1450q222 0 403 -102t284 -282.5t103 -401.5q0 -167 -60.5 -313.5t-165 -251.5t-251 -165.5t-313.5 -60.5t-313.5 60.5t-251.5 165.5t-165.5 251.5t-60.5 313.5q0 166 60.5 312t165.5 250t251.5 164t313.5 60zM893 -66q205 0 372 95t262 262.5t95 372.5
q0 204 -95 370t-262 260.5t-372 94.5t-372 -94.5t-262 -260.5t-95 -370q0 -205 95 -372.5t262 -262.5t372 -95zM1087 721q88 -22 136.5 -80t48.5 -145q0 -112 -79.5 -177t-217.5 -65h-381v860h379q111 0 174 -54.5t63 -152.5q0 -140 -123 -186zM1143 901q0 73 -44.5 113.5
t-125.5 40.5h-316v-312h320q77 0 121.5 42.5t44.5 115.5zM973 313q109 0 171 49t62 136q0 86 -60.5 136t-166.5 50h-322v-371h316z" />
    <glyph glyph-name="uni24B8" unicode="&#x24b8;" horiz-adv-x="1785" 
d="M893 -127q-167 0 -313.5 60.5t-251.5 165.5t-165.5 251.5t-60.5 313.5q0 166 60.5 312t165.5 250t251.5 164t313.5 60q222 0 403 -102t284 -282.5t103 -401.5q0 -167 -60.5 -313.5t-165 -251.5t-251 -165.5t-313.5 -60.5zM893 -66q205 0 372 95t262 262.5t95 372.5
q0 204 -95 370t-262 260.5t-372 94.5t-372 -94.5t-262 -260.5t-95 -370q0 -205 95 -372.5t262 -262.5t372 -95zM893 229q-183 0 -300.5 125t-117.5 320q0 196 117 318t297 122q169 0 267 -104.5t75 -261.5h-68q19 136 -58 220.5t-216 84.5q-152 0 -249 -106t-97 -273
t98 -275t252 -108q127 0 205.5 74t103.5 194h68q-23 -143 -120.5 -236.5t-256.5 -93.5z" />
    <glyph glyph-name="uni24B9" unicode="&#x24b9;" horiz-adv-x="1785" 
d="M893 1450q222 0 403 -102t284 -282.5t103 -401.5q0 -167 -60.5 -313.5t-165 -251.5t-251 -165.5t-313.5 -60.5t-313.5 60.5t-251.5 165.5t-165.5 251.5t-60.5 313.5q0 166 60.5 312t165.5 250t251.5 164t313.5 60zM893 -66q205 0 372 95t262 262.5t95 372.5
q0 204 -95 370t-262 260.5t-372 94.5t-372 -94.5t-262 -260.5t-95 -370q0 -205 95 -372.5t262 -262.5t372 -95zM874 1114q181 0 293.5 -118t112.5 -312q0 -193 -110 -311.5t-291 -118.5h-289v860h284zM877 313q151 0 243 103t92 270q0 166 -92 267.5t-243 101.5h-224v-742
h224z" />
    <glyph glyph-name="uni24BA" unicode="&#x24ba;" horiz-adv-x="1785" 
d="M893 1450q222 0 403 -102t284 -282.5t103 -401.5q0 -167 -60.5 -313.5t-165 -251.5t-251 -165.5t-313.5 -60.5t-313.5 60.5t-251.5 165.5t-165.5 251.5t-60.5 313.5q0 166 60.5 312t165.5 250t251.5 164t313.5 60zM893 -66q205 0 372 95t262 262.5t95 372.5
q0 204 -95 370t-262 260.5t-372 94.5t-372 -94.5t-262 -260.5t-95 -370q0 -205 95 -372.5t262 -262.5t372 -95zM672 680v-367h506v-59h-570v860h557v-59h-493v-316h428v-59h-428z" />
    <glyph glyph-name="uni24BB" unicode="&#x24bb;" horiz-adv-x="1785" 
d="M893 1450q222 0 403 -102t284 -282.5t103 -401.5q0 -167 -60.5 -313.5t-165 -251.5t-251 -165.5t-313.5 -60.5t-313.5 60.5t-251.5 165.5t-165.5 251.5t-60.5 313.5q0 166 60.5 312t165.5 250t251.5 164t313.5 60zM893 -66q205 0 372 95t262 262.5t95 372.5
q0 204 -95 370t-262 260.5t-372 94.5t-372 -94.5t-262 -260.5t-95 -370q0 -205 95 -372.5t262 -262.5t372 -95zM637 254v860h557v-59h-494v-324h428v-59h-428v-418h-63z" />
    <glyph glyph-name="uni24BC" unicode="&#x24bc;" horiz-adv-x="1785" 
d="M893 1450q222 0 403 -102t284 -282.5t103 -401.5q0 -167 -60.5 -313.5t-165 -251.5t-251 -165.5t-313.5 -60.5t-313.5 60.5t-251.5 165.5t-165.5 251.5t-60.5 313.5q0 166 60.5 312t165.5 250t251.5 164t313.5 60zM893 -66q205 0 372 95t262 262.5t95 372.5
q0 204 -95 370t-262 260.5t-372 94.5t-372 -94.5t-262 -260.5t-95 -370q0 -205 95 -372.5t262 -262.5t372 -95zM895 627v59h393v-59h-203q119 -42 119 -164q0 -99 -82 -160t-219 -61q-199 0 -313.5 124t-114.5 318q0 192 111.5 317t304.5 125q156 0 241 -82.5t66 -214.5h-65
q17 110 -49.5 172t-192.5 62q-164 0 -256 -105.5t-92 -273.5q0 -172 97 -276.5t263 -104.5q110 0 173 46t63 118q0 75 -65.5 117.5t-178.5 42.5z" />
    <glyph glyph-name="uni24BD" unicode="&#x24bd;" horiz-adv-x="1785" 
d="M893 1450q222 0 403 -102t284 -282.5t103 -401.5q0 -167 -60.5 -313.5t-165 -251.5t-251 -165.5t-313.5 -60.5t-313.5 60.5t-251.5 165.5t-165.5 251.5t-60.5 313.5q0 166 60.5 312t165.5 250t251.5 164t313.5 60zM893 -66q205 0 372 95t262 262.5t95 372.5
q0 204 -95 370t-262 260.5t-372 94.5t-372 -94.5t-262 -260.5t-95 -370q0 -205 95 -372.5t262 -262.5t372 -95zM1167 741v373h64v-860h-64v428h-551v-428h-63v860h63v-373h551z" />
    <glyph glyph-name="uni24BE" unicode="&#x24be;" horiz-adv-x="1785" 
d="M893 -127q-167 0 -313.5 60.5t-251.5 165.5t-165.5 251.5t-60.5 313.5q0 166 60.5 312t165.5 250t251.5 164t313.5 60q222 0 403 -102t284 -282.5t103 -401.5q0 -167 -60.5 -313.5t-165 -251.5t-251 -165.5t-313.5 -60.5zM893 -66q205 0 372 95t262 262.5t95 372.5
q0 204 -95 370t-262 260.5t-372 94.5t-372 -94.5t-262 -260.5t-95 -370q0 -205 95 -372.5t262 -262.5t372 -95zM860 254v860h64v-860h-64z" />
    <glyph glyph-name="uni24BF" unicode="&#x24bf;" horiz-adv-x="1785" 
d="M893 -127q-167 0 -313.5 60.5t-251.5 165.5t-165.5 251.5t-60.5 313.5q0 166 60.5 312t165.5 250t251.5 164t313.5 60q222 0 403 -102t284 -282.5t103 -401.5q0 -167 -60.5 -313.5t-165 -251.5t-251 -165.5t-313.5 -60.5zM893 -66q205 0 372 95t262 262.5t95 372.5
q0 204 -95 370t-262 260.5t-372 94.5t-372 -94.5t-262 -260.5t-95 -370q0 -205 95 -372.5t262 -262.5t372 -95zM840 242q-119 0 -172.5 77.5t-24.5 190.5h66q-25 -89 10.5 -148t122.5 -59q45 0 77.5 18.5t48 50t22.5 64t7 70.5v608h66v-606q0 -44 -9 -85t-31 -84.5t-69 -70
t-114 -26.5z" />
    <glyph glyph-name="uni24C0" unicode="&#x24c0;" horiz-adv-x="1785" 
d="M893 1450q222 0 403 -102t284 -282.5t103 -401.5q0 -167 -60.5 -313.5t-165 -251.5t-251 -165.5t-313.5 -60.5t-313.5 60.5t-251.5 165.5t-165.5 251.5t-60.5 313.5q0 166 60.5 312t165.5 250t251.5 164t313.5 60zM893 -66q205 0 372 95t262 262.5t95 372.5
q0 204 -95 370t-262 260.5t-372 94.5t-372 -94.5t-262 -260.5t-95 -370q0 -205 95 -372.5t262 -262.5t372 -95zM1237 1114l-379 -354l397 -506h-79l-363 465l-166 -156v-309h-63v860h63v-473l504 473h86z" />
    <glyph glyph-name="uni24C1" unicode="&#x24c1;" horiz-adv-x="1785" 
d="M893 1450q222 0 403 -102t284 -282.5t103 -401.5q0 -167 -60.5 -313.5t-165 -251.5t-251 -165.5t-313.5 -60.5t-313.5 60.5t-251.5 165.5t-165.5 251.5t-60.5 313.5q0 166 60.5 312t165.5 250t251.5 164t313.5 60zM893 -66q205 0 372 95t262 262.5t95 372.5
q0 204 -95 370t-262 260.5t-372 94.5t-372 -94.5t-262 -260.5t-95 -370q0 -205 95 -372.5t262 -262.5t372 -95zM709 1114v-801h505v-59h-569v860h64z" />
    </font>
</defs>
</svg>
