<?xml version="1.0" standalone="no"?>
<!DOCTYPE svg PUBLIC "-//W3C//DTD SVG 20010904//EN"
 "http://www.w3.org/TR/2001/REC-SVG-20010904/DTD/svg10.dtd">
<svg version="1.0" xmlns="http://www.w3.org/2000/svg"
 width="2160.000000pt" height="2160.000000pt" viewBox="0 0 2160.000000 2160.000000"
 preserveAspectRatio="xMidYMid meet">
<metadata>
Created by potrace 1.14, written by Peter Selinger 2001-2017
</metadata>
<g transform="translate(0.000000,2160.000000) scale(0.100000,-0.100000)"
fill="#000000" stroke="none">
<path d="M13525 19489 c-78 -41 -166 -116 -282 -242 -115 -123 -244 -273 -308
-358 -36 -48 -179 -234 -192 -249 -7 -8 -63 -78 -124 -155 -107 -132 -516
-624 -528 -635 -3 -3 -31 -34 -61 -70 -30 -36 -57 -67 -60 -70 -3 -3 -45 -52
-95 -110 -71 -83 -190 -220 -256 -294 -7 -8 -50 -1 -239 40 -108 23 -111 23
-159 29 -24 3 -46 7 -50 9 -3 2 -30 7 -60 11 -30 4 -63 9 -75 11 -48 9 -134
24 -176 29 -25 4 -58 8 -75 10 -16 3 -77 11 -135 19 -110 15 -162 21 -270 31
-36 3 -76 8 -90 10 -14 3 -59 7 -100 10 -41 4 -91 8 -110 10 -37 4 -220 15
-335 20 -89 4 -605 5 -665 1 -25 -2 -94 -6 -155 -10 -60 -4 -112 -9 -115 -11
-3 -1 -41 -6 -85 -10 -65 -5 -271 -38 -372 -59 -99 -20 -300 -76 -348 -96 -11
-4 -62 -25 -114 -45 -323 -125 -832 -444 -1196 -748 -101 -84 -426 -401 -485
-472 -100 -121 -192 -239 -224 -288 -29 -44 -43 -56 -57 -52 -39 13 -142 -66
-201 -152 -36 -53 -86 -158 -108 -228 -35 -112 -27 -243 20 -336 17 -33 19
-46 10 -81 -16 -72 -60 -309 -60 -328 0 -11 -13 -23 -32 -30 -119 -47 -363
-148 -448 -186 -122 -55 -487 -241 -605 -309 -55 -31 -120 -69 -145 -83 -400
-226 -971 -646 -1340 -987 -224 -207 -533 -529 -711 -740 -71 -84 -252 -311
-292 -366 -107 -146 -184 -255 -256 -364 -95 -142 -251 -392 -251 -401 0 -3
-8 -18 -18 -32 -11 -15 -38 -63 -62 -107 -23 -44 -46 -84 -50 -90 -10 -13
-220 -431 -220 -438 0 -3 -18 -43 -39 -89 -209 -447 -432 -1128 -527 -1603 -4
-22 -8 -42 -9 -45 -4 -15 -15 -69 -20 -95 -23 -129 -74 -440 -79 -480 -3 -27
-8 -64 -10 -81 -3 -17 -8 -60 -11 -95 -3 -35 -8 -75 -10 -89 -3 -22 -9 -97
-20 -255 -15 -208 -18 -792 -19 -3993 l-1 -3672 10391 0 c8305 0 10393 3
10396 12 7 23 1 7287 -6 7453 -4 88 -9 180 -11 205 -6 91 -18 226 -21 250 -1
14 -6 52 -9 85 -3 33 -10 92 -15 130 -5 39 -12 90 -15 115 -3 25 -8 52 -10 60
-2 8 -7 35 -10 60 -2 25 -7 55 -9 66 -2 12 -7 37 -10 55 -18 105 -45 249 -61
314 -8 36 -17 79 -20 95 -3 17 -21 92 -41 168 -20 75 -37 144 -39 152 -44 194
-251 797 -351 1018 -13 29 -24 54 -24 57 0 2 -18 43 -40 90 -22 47 -40 88 -40
91 0 13 -227 456 -294 572 -118 207 -190 327 -198 330 -5 2 -8 8 -8 13 0 12
-240 368 -286 426 -19 23 -34 45 -34 50 0 4 -12 22 -28 38 -15 17 -53 64 -84
106 -53 72 -285 358 -298 369 -3 3 -44 48 -90 100 -87 98 -439 454 -545 550
-110 100 -244 215 -376 323 -107 87 -435 329 -565 415 -359 239 -817 495
-1175 655 -288 130 -620 253 -984 366 -161 50 -442 124 -545 145 -14 2 -49 9
-78 15 -30 6 -57 13 -60 15 -4 2 -28 7 -52 11 -25 3 -76 12 -115 20 -71 14
-189 34 -235 41 -76 10 -252 34 -292 38 -123 15 -163 18 -348 32 -47 3 -88 11
-92 18 -7 11 -23 80 -33 146 -3 19 -8 46 -10 60 -3 14 -7 41 -9 60 -2 19 -7
60 -11 90 -30 261 -169 479 -420 660 -89 64 -211 138 -261 159 l-31 12 59 157
c116 305 167 438 213 557 98 251 183 535 271 910 14 61 27 117 29 126 2 9 12
59 24 110 11 52 22 105 25 119 2 14 14 70 25 125 11 55 22 114 25 130 7 45 35
207 40 230 3 17 7 44 21 145 2 8 6 44 10 80 4 36 9 68 11 71 4 7 17 183 18
254 4 160 -54 219 -159 164z"/>
</g>
</svg>
